<svg width="359" height="437" viewBox="0 0 359 437" fill="none" xmlns="http://www.w3.org/2000/svg">
<g clipPath="url(#clip0_241_9111)">
<path fillRule="evenodd" clipRule="evenodd" d="M283.168 194.454L294.814 194.454L300.637 203.392L294.814 212.328L283.168 212.328L277.344 203.392L283.168 194.454Z" fill="#99C2A2" fillOpacity="0.7"/>
<path fillRule="evenodd" clipRule="evenodd" d="M283.337 214.932L294.645 214.932L300.299 223.61L294.645 232.288L283.337 232.288L277.683 223.61L283.337 214.932Z" fill="#99C2A2" fillOpacity="0.7"/>
<path fillRule="evenodd" clipRule="evenodd" d="M283.549 235.478L294.433 235.478L299.874 243.83L294.433 252.182L283.549 252.182L278.107 243.83L283.549 235.478Z" fill="#99C2A2" fillOpacity="0.7"/>
<path fillRule="evenodd" clipRule="evenodd" d="M283.825 256.12L294.157 256.12L299.324 264.05L294.157 271.98L283.825 271.98L278.658 264.05L283.825 256.12Z" fill="#99C2A2" fillOpacity="0.7"/>
<path fillRule="evenodd" clipRule="evenodd" d="M284.163 276.86L293.819 276.86L298.644 284.268L293.819 291.678L284.163 291.678L279.335 284.268L284.163 276.86Z" fill="#99C2A2" fillOpacity="0.7"/>
<path fillRule="evenodd" clipRule="evenodd" d="M284.567 297.698L293.415 297.698L297.838 304.488L293.415 311.28L284.567 311.28L280.141 304.488L284.567 297.698Z" fill="#99C2A2" fillOpacity="0.7"/>
<path fillRule="evenodd" clipRule="evenodd" d="M285.032 318.634L292.947 318.634L296.906 324.708L292.947 330.784L285.032 330.784L281.073 324.708L285.032 318.634Z" fill="#99C2A2" fillOpacity="0.7"/>
<path fillRule="evenodd" clipRule="evenodd" d="M285.583 339.698L292.397 339.698L295.805 344.928L292.397 350.156L285.583 350.156L282.175 344.928L285.583 339.698Z" fill="#99C2A2" fillOpacity="0.7"/>
<path fillRule="evenodd" clipRule="evenodd" d="M286.219 360.892L291.763 360.892L294.534 365.148L291.763 369.402L286.219 369.402L283.448 365.148L286.219 360.892Z" fill="#99C2A2" fillOpacity="0.7"/>
<path fillRule="evenodd" clipRule="evenodd" d="M286.939 382.22L291.042 382.22L293.092 385.366L291.042 388.514L286.939 388.514L284.89 385.366L286.939 382.22Z" fill="#99C2A2" fillOpacity="0.7"/>
<path fillRule="evenodd" clipRule="evenodd" d="M287.745 403.674L290.237 403.674L291.483 405.586L290.237 407.496L287.745 407.496L286.499 405.586L287.745 403.674Z" fill="#99C2A2" fillOpacity="0.7"/>
<path fillRule="evenodd" clipRule="evenodd" d="M288.571 425.162L289.411 425.162L289.828 425.806L289.411 426.448L288.571 426.448L288.153 425.806L288.571 425.162Z" fill="#99C2A2" fillOpacity="0.7"/>
<path fillRule="evenodd" clipRule="evenodd" d="M263.407 204.564L275.054 204.564L280.877 213.5L275.054 222.438L263.407 222.438L257.582 213.5L263.407 204.564Z" fill="#99C2A2" fillOpacity="0.7"/>
<path fillRule="evenodd" clipRule="evenodd" d="M263.576 225.042L274.884 225.042L280.536 233.72L274.884 242.398L263.576 242.398L257.92 233.72L263.576 225.042Z" fill="#99C2A2" fillOpacity="0.7"/>
<path fillRule="evenodd" clipRule="evenodd" d="M263.786 245.586L274.672 245.586L280.114 253.94L274.672 262.292L263.786 262.292L258.344 253.94L263.786 245.586Z" fill="#99C2A2" fillOpacity="0.7"/>
<path fillRule="evenodd" clipRule="evenodd" d="M264.064 266.23L274.397 266.23L279.563 274.158L274.397 282.088L264.064 282.088L258.895 274.158L264.064 266.23Z" fill="#99C2A2" fillOpacity="0.7"/>
<path fillRule="evenodd" clipRule="evenodd" d="M264.403 286.97L274.056 286.97L278.884 294.38L274.056 301.788L264.403 301.788L259.575 294.38L264.403 286.97Z" fill="#99C2A2" fillOpacity="0.7"/>
<path fillRule="evenodd" clipRule="evenodd" d="M264.804 307.808L273.654 307.808L278.078 314.598L273.654 321.39L264.804 321.39L260.381 314.598L264.804 307.808Z" fill="#99C2A2" fillOpacity="0.7"/>
<path fillRule="evenodd" clipRule="evenodd" d="M265.271 328.742L273.189 328.742L277.146 334.818L273.189 340.894L265.271 340.894L261.313 334.818L265.271 328.742Z" fill="#99C2A2" fillOpacity="0.7"/>
<path fillRule="evenodd" clipRule="evenodd" d="M265.822 349.808L272.636 349.808L276.044 355.038L272.636 360.266L265.822 360.266L262.414 355.038L265.822 349.808Z" fill="#99C2A2" fillOpacity="0.7"/>
<path fillRule="evenodd" clipRule="evenodd" d="M266.459 371.002L272 371.002L274.771 375.256L272 379.51L266.459 379.51L263.687 375.256L266.459 371.002Z" fill="#99C2A2" fillOpacity="0.7"/>
<path fillRule="evenodd" clipRule="evenodd" d="M267.179 392.328L271.28 392.328L273.331 395.478L271.28 398.624L267.179 398.624L265.127 395.478L267.179 392.328Z" fill="#99C2A2" fillOpacity="0.7"/>
<path fillRule="evenodd" clipRule="evenodd" d="M267.985 413.784L270.474 413.784L271.72 415.696L270.474 417.608L267.985 417.608L266.739 415.696L267.985 413.784Z" fill="#99C2A2" fillOpacity="0.7"/>
<path fillRule="evenodd" clipRule="evenodd" d="M268.81 435.272L269.648 435.272L270.068 435.914L269.648 436.56L268.81 436.56L268.393 435.914L268.81 435.272Z" fill="#99C2A2" fillOpacity="0.7"/>
<path fillRule="evenodd" clipRule="evenodd" d="M243.644 194.454L255.291 194.454L261.114 203.392L255.291 212.328L243.644 212.328L237.821 203.392L243.644 194.454Z" fill="#99C2A2" fillOpacity="0.7"/>
<path fillRule="evenodd" clipRule="evenodd" d="M243.814 214.932L255.121 214.932L260.778 223.61L255.121 232.288L243.814 232.288L238.16 223.61L243.814 214.932Z" fill="#99C2A2" fillOpacity="0.7"/>
<path fillRule="evenodd" clipRule="evenodd" d="M244.026 235.478L254.909 235.478L260.353 243.83L254.909 252.182L244.026 252.182L238.584 243.83L244.026 235.478Z" fill="#99C2A2" fillOpacity="0.7"/>
<path fillRule="evenodd" clipRule="evenodd" d="M244.301 256.12L254.634 256.12L259.8 264.05L254.634 271.98L244.301 271.98L239.135 264.05L244.301 256.12Z" fill="#99C2A2" fillOpacity="0.7"/>
<path fillRule="evenodd" clipRule="evenodd" d="M244.642 276.86L254.295 276.86L259.123 284.268L254.295 291.678L244.642 291.678L239.814 284.268L244.642 276.86Z" fill="#99C2A2" fillOpacity="0.7"/>
<path fillRule="evenodd" clipRule="evenodd" d="M245.044 297.698L253.894 297.698L258.317 304.488L253.894 311.28L245.044 311.28L240.618 304.488L245.044 297.698Z" fill="#99C2A2" fillOpacity="0.7"/>
<path fillRule="evenodd" clipRule="evenodd" d="M245.509 318.634L253.426 318.634L257.385 324.708L253.426 330.784L245.509 330.784L241.552 324.708L245.509 318.634Z" fill="#99C2A2" fillOpacity="0.7"/>
<path fillRule="evenodd" clipRule="evenodd" d="M246.06 339.698L252.876 339.698L256.282 344.928L252.876 350.156L246.06 350.156L242.654 344.928L246.06 339.698Z" fill="#99C2A2" fillOpacity="0.7"/>
<path fillRule="evenodd" clipRule="evenodd" d="M246.696 360.892L252.239 360.892L255.011 365.148L252.239 369.402L246.696 369.402L243.924 365.148L246.696 360.892Z" fill="#99C2A2" fillOpacity="0.7"/>
<path fillRule="evenodd" clipRule="evenodd" d="M247.418 382.22L251.519 382.22L253.571 385.366L251.519 388.514L247.418 388.514L245.366 385.366L247.418 382.22Z" fill="#99C2A2" fillOpacity="0.7"/>
<path fillRule="evenodd" clipRule="evenodd" d="M248.222 403.674L250.714 403.674L251.959 405.586L250.714 407.496L248.222 407.496L246.978 405.586L248.222 403.674Z" fill="#99C2A2" fillOpacity="0.7"/>
<path fillRule="evenodd" clipRule="evenodd" d="M249.05 425.162L249.887 425.162L250.305 425.806L249.887 426.448L249.05 426.448L248.63 425.806L249.05 425.162Z" fill="#99C2A2" fillOpacity="0.7"/>
<path fillRule="evenodd" clipRule="evenodd" d="M223.805 204.584L235.451 204.584L241.274 213.522L235.451 222.46L223.805 222.46L217.982 213.522L223.805 204.584Z" fill="#99C2A2" fillOpacity="0.7"/>
<path fillRule="evenodd" clipRule="evenodd" d="M223.972 225.064L235.282 225.064L240.934 233.74L235.282 242.418L223.972 242.418L218.318 233.74L223.972 225.064Z" fill="#99C2A2" fillOpacity="0.7"/>
<path fillRule="evenodd" clipRule="evenodd" d="M224.186 245.608L235.07 245.608L240.512 253.962L235.07 262.314L224.186 262.314L218.742 253.962L224.186 245.608Z" fill="#99C2A2" fillOpacity="0.7"/>
<path fillRule="evenodd" clipRule="evenodd" d="M224.462 266.25L234.795 266.25L239.961 274.18L234.795 282.11L224.462 282.11L219.295 274.18L224.462 266.25Z" fill="#99C2A2" fillOpacity="0.7"/>
<path fillRule="evenodd" clipRule="evenodd" d="M224.8 286.99L234.454 286.99L239.281 294.402L234.454 301.81L224.8 301.81L219.972 294.402L224.8 286.99Z" fill="#99C2A2" fillOpacity="0.7"/>
<path fillRule="evenodd" clipRule="evenodd" d="M225.202 307.828L234.052 307.828L238.476 314.62L234.052 321.41L225.202 321.41L220.778 314.62L225.202 307.828Z" fill="#99C2A2" fillOpacity="0.7"/>
<path fillRule="evenodd" clipRule="evenodd" d="M225.669 328.764L233.585 328.764L237.544 334.838L233.585 340.914L225.669 340.914L221.71 334.838L225.669 328.764Z" fill="#99C2A2" fillOpacity="0.7"/>
<path fillRule="evenodd" clipRule="evenodd" d="M226.22 349.828L233.034 349.828L236.442 355.06L233.034 360.288L226.22 360.288L222.812 355.06L226.22 349.828Z" fill="#99C2A2" fillOpacity="0.7"/>
<path fillRule="evenodd" clipRule="evenodd" d="M226.856 371.024L232.398 371.024L235.169 375.278L232.398 379.532L226.856 379.532L224.085 375.278L226.856 371.024Z" fill="#99C2A2" fillOpacity="0.7"/>
<path fillRule="evenodd" clipRule="evenodd" d="M227.577 392.35L231.678 392.35L233.729 395.496L231.678 398.646L227.577 398.646L225.525 395.496L227.577 392.35Z" fill="#99C2A2" fillOpacity="0.7"/>
<path fillRule="evenodd" clipRule="evenodd" d="M228.382 413.806L230.874 413.806L232.118 415.718L230.874 417.628L228.382 417.628L227.136 415.718L228.382 413.806Z" fill="#99C2A2" fillOpacity="0.7"/>
<path fillRule="evenodd" clipRule="evenodd" d="M229.208 435.294L230.046 435.294L230.466 435.936L230.046 436.578L229.208 436.578L228.791 435.936L229.208 435.294Z" fill="#99C2A2" fillOpacity="0.7"/>
<path fillRule="evenodd" clipRule="evenodd" d="M204.042 194.476L215.688 194.476L221.514 203.412L215.688 212.35L204.042 212.35L198.219 203.412L204.042 194.476Z" fill="#99C2A2" fillOpacity="0.7"/>
<path fillRule="evenodd" clipRule="evenodd" d="M204.211 214.954L215.519 214.954L221.173 223.632L215.519 232.31L204.211 232.31L198.557 223.632L204.211 214.954Z" fill="#99C2A2" fillOpacity="0.7"/>
<path fillRule="evenodd" clipRule="evenodd" d="M204.424 235.498L215.309 235.498L220.751 243.85L215.309 252.204L204.424 252.204L198.982 243.85L204.424 235.498Z" fill="#99C2A2" fillOpacity="0.7"/>
<path fillRule="evenodd" clipRule="evenodd" d="M204.699 256.142L215.032 256.142L220.198 264.07L215.032 272L204.699 272L199.532 264.07L204.699 256.142Z" fill="#99C2A2" fillOpacity="0.7"/>
<path fillRule="evenodd" clipRule="evenodd" d="M205.04 276.882L214.693 276.882L219.521 284.29L214.693 291.7L205.04 291.7L200.212 284.29L205.04 276.882Z" fill="#99C2A2" fillOpacity="0.7"/>
<path fillRule="evenodd" clipRule="evenodd" d="M205.442 297.72L214.292 297.72L218.715 304.51L214.292 311.302L205.442 311.302L201.016 304.51L205.442 297.72Z" fill="#99C2A2" fillOpacity="0.7"/>
<path fillRule="evenodd" clipRule="evenodd" d="M205.906 318.654L213.824 318.654L217.783 324.73L213.824 330.804L205.906 330.804L201.95 324.73L205.906 318.654Z" fill="#99C2A2" fillOpacity="0.7"/>
<path fillRule="evenodd" clipRule="evenodd" d="M206.46 339.72L213.274 339.72L216.679 344.948L213.274 350.176L206.46 350.176L203.051 344.948L206.46 339.72Z" fill="#99C2A2" fillOpacity="0.7"/>
<path fillRule="evenodd" clipRule="evenodd" d="M207.094 360.914L212.637 360.914L215.409 365.168L212.637 369.422L207.094 369.422L204.322 365.168L207.094 360.914Z" fill="#99C2A2" fillOpacity="0.7"/>
<path fillRule="evenodd" clipRule="evenodd" d="M207.816 382.24L211.917 382.24L213.966 385.388L211.917 388.536L207.816 388.536L205.764 385.388L207.816 382.24Z" fill="#99C2A2" fillOpacity="0.7"/>
<path fillRule="evenodd" clipRule="evenodd" d="M208.622 403.696L211.111 403.696L212.357 405.608L211.111 407.518L208.622 407.518L207.376 405.608L208.622 403.696Z" fill="#99C2A2" fillOpacity="0.7"/>
<path fillRule="evenodd" clipRule="evenodd" d="M209.448 425.184L210.285 425.184L210.703 425.826L210.285 426.47L209.448 426.47L209.028 425.826L209.448 425.184Z" fill="#99C2A2" fillOpacity="0.7"/>
<path fillRule="evenodd" clipRule="evenodd" d="M184.282 204.584L195.928 204.584L201.751 213.522L195.928 222.46L184.282 222.46L178.458 213.522L184.282 204.584Z" fill="#99C2A2" fillOpacity="0.7"/>
<path fillRule="evenodd" clipRule="evenodd" d="M184.451 225.064L195.759 225.064L201.413 233.74L195.759 242.418L184.451 242.418L178.797 233.74L184.451 225.064Z" fill="#99C2A2" fillOpacity="0.7"/>
<path fillRule="evenodd" clipRule="evenodd" d="M184.663 245.608L195.547 245.608L200.988 253.962L195.547 262.314L184.663 262.314L179.221 253.962L184.663 245.608Z" fill="#99C2A2" fillOpacity="0.7"/>
<path fillRule="evenodd" clipRule="evenodd" d="M184.939 266.25L195.271 266.25L200.438 274.18L195.271 282.11L184.939 282.11L179.772 274.18L184.939 266.25Z" fill="#99C2A2" fillOpacity="0.7"/>
<path fillRule="evenodd" clipRule="evenodd" d="M185.277 286.99L194.933 286.99L199.758 294.402L194.933 301.81L185.277 301.81L180.451 294.402L185.277 286.99Z" fill="#99C2A2" fillOpacity="0.7"/>
<path fillRule="evenodd" clipRule="evenodd" d="M185.681 307.828L194.529 307.828L198.955 314.62L194.529 321.41L185.681 321.41L181.255 314.62L185.681 307.828Z" fill="#99C2A2" fillOpacity="0.7"/>
<path fillRule="evenodd" clipRule="evenodd" d="M186.146 328.764L194.064 328.764L198.02 334.838L194.064 340.914L186.146 340.914L182.187 334.838L186.146 328.764Z" fill="#99C2A2" fillOpacity="0.7"/>
<path fillRule="evenodd" clipRule="evenodd" d="M186.697 349.828L193.513 349.828L196.919 355.06L193.513 360.288L186.697 360.288L183.291 355.06L186.697 349.828Z" fill="#99C2A2" fillOpacity="0.7"/>
<path fillRule="evenodd" clipRule="evenodd" d="M187.333 371.024L192.877 371.024L195.648 375.278L192.877 379.532L187.333 379.532L184.562 375.278L187.333 371.024Z" fill="#99C2A2" fillOpacity="0.7"/>
<path fillRule="evenodd" clipRule="evenodd" d="M188.053 392.35L192.156 392.35L194.206 395.496L192.156 398.646L188.053 398.646L186.004 395.496L188.053 392.35Z" fill="#99C2A2" fillOpacity="0.7"/>
<path fillRule="evenodd" clipRule="evenodd" d="M188.859 413.806L191.351 413.806L192.597 415.718L191.351 417.628L188.859 417.628L187.615 415.718L188.859 413.806Z" fill="#99C2A2" fillOpacity="0.7"/>
<path fillRule="evenodd" clipRule="evenodd" d="M189.685 435.294L190.525 435.294L190.942 435.936L190.525 436.578L189.685 436.578L189.267 435.936L189.685 435.294Z" fill="#99C2A2" fillOpacity="0.7"/>
<path fillRule="evenodd" clipRule="evenodd" d="M164.521 194.476L176.168 194.476L181.991 203.412L176.168 212.35L164.521 212.35L158.696 203.412L164.521 194.476Z" fill="#99C2A2" fillOpacity="0.7"/>
<path fillRule="evenodd" clipRule="evenodd" d="M164.69 214.954L175.996 214.954L181.652 223.632L175.996 232.31L164.69 232.31L159.036 223.632L164.69 214.954Z" fill="#99C2A2" fillOpacity="0.7"/>
<path fillRule="evenodd" clipRule="evenodd" d="M164.9 235.498L175.786 235.498L181.228 243.85L175.786 252.204L164.9 252.204L159.459 243.85L164.9 235.498Z" fill="#99C2A2" fillOpacity="0.7"/>
<path fillRule="evenodd" clipRule="evenodd" d="M165.178 256.142L175.511 256.142L180.677 264.07L175.511 272L165.178 272L160.009 264.07L165.178 256.142Z" fill="#99C2A2" fillOpacity="0.7"/>
<path fillRule="evenodd" clipRule="evenodd" d="M165.517 276.882L175.17 276.882L179.998 284.29L175.17 291.7L165.517 291.7L160.689 284.29L165.517 276.882Z" fill="#99C2A2" fillOpacity="0.7"/>
<path fillRule="evenodd" clipRule="evenodd" d="M165.921 297.72L174.768 297.72L179.194 304.51L174.768 311.302L165.921 311.302L161.495 304.51L165.921 297.72Z" fill="#99C2A2" fillOpacity="0.7"/>
<path fillRule="evenodd" clipRule="evenodd" d="M166.385 318.654L174.303 318.654L178.26 324.73L174.303 330.804L166.385 330.804L162.427 324.73L166.385 318.654Z" fill="#99C2A2" fillOpacity="0.7"/>
<path fillRule="evenodd" clipRule="evenodd" d="M166.936 339.72L173.75 339.72L177.158 344.948L173.75 350.176L166.936 350.176L163.528 344.948L166.936 339.72Z" fill="#99C2A2" fillOpacity="0.7"/>
<path fillRule="evenodd" clipRule="evenodd" d="M167.573 360.914L173.114 360.914L175.888 365.168L173.114 369.422L167.573 369.422L164.801 365.168L167.573 360.914Z" fill="#99C2A2" fillOpacity="0.7"/>
<path fillRule="evenodd" clipRule="evenodd" d="M168.293 382.24L172.394 382.24L174.445 385.388L172.394 388.536L168.293 388.536L166.241 385.388L168.293 382.24Z" fill="#99C2A2" fillOpacity="0.7"/>
<path fillRule="evenodd" clipRule="evenodd" d="M169.098 403.696L171.588 403.696L172.834 405.608L171.588 407.518L169.098 407.518L167.852 405.608L169.098 403.696Z" fill="#99C2A2" fillOpacity="0.7"/>
<path fillRule="evenodd" clipRule="evenodd" d="M169.924 425.184L170.762 425.184L171.182 425.826L170.762 426.47L169.924 426.47L169.507 425.826L169.924 425.184Z" fill="#99C2A2" fillOpacity="0.7"/>
<path fillRule="evenodd" clipRule="evenodd" d="M144.679 204.606L156.326 204.606L162.149 213.544L156.326 222.482L144.679 222.482L138.854 213.544L144.679 204.606Z" fill="#99C2A2" fillOpacity="0.7"/>
<path fillRule="evenodd" clipRule="evenodd" d="M144.849 225.084L156.156 225.084L161.81 233.762L156.156 242.44L144.849 242.44L139.195 233.762L144.849 225.084Z" fill="#99C2A2" fillOpacity="0.7"/>
<path fillRule="evenodd" clipRule="evenodd" d="M145.058 245.63L155.944 245.63L161.386 253.984L155.944 262.334L145.058 262.334L139.617 253.984L145.058 245.63Z" fill="#99C2A2" fillOpacity="0.7"/>
<path fillRule="evenodd" clipRule="evenodd" d="M145.339 266.272L155.669 266.272L160.835 274.202L155.669 282.132L145.339 282.132L140.17 274.202L145.339 266.272Z" fill="#99C2A2" fillOpacity="0.7"/>
<path fillRule="evenodd" clipRule="evenodd" d="M145.675 287.012L155.33 287.012L160.158 294.42L155.33 301.83L145.675 301.83L140.847 294.42L145.675 287.012Z" fill="#99C2A2" fillOpacity="0.7"/>
<path fillRule="evenodd" clipRule="evenodd" d="M146.079 307.85L154.929 307.85L159.35 314.642L154.929 321.432L146.079 321.432L141.655 314.642L146.079 307.85Z" fill="#99C2A2" fillOpacity="0.7"/>
<path fillRule="evenodd" clipRule="evenodd" d="M146.546 328.786L154.459 328.786L158.418 334.86L154.459 340.936L146.546 340.936L142.587 334.86L146.546 328.786Z" fill="#99C2A2" fillOpacity="0.7"/>
<path fillRule="evenodd" clipRule="evenodd" d="M147.097 349.848L153.908 349.848L157.317 355.08L153.908 360.31L147.097 360.31L143.689 355.08L147.097 349.848Z" fill="#99C2A2" fillOpacity="0.7"/>
<path fillRule="evenodd" clipRule="evenodd" d="M147.731 371.046L153.274 371.046L156.046 375.3L153.274 379.554L147.731 379.554L144.962 375.3L147.731 371.046Z" fill="#99C2A2" fillOpacity="0.7"/>
<path fillRule="evenodd" clipRule="evenodd" d="M148.451 392.372L152.554 392.372L154.604 395.518L152.554 398.666L148.451 398.666L146.402 395.518L148.451 392.372Z" fill="#99C2A2" fillOpacity="0.7"/>
<path fillRule="evenodd" clipRule="evenodd" d="M149.257 413.826L151.746 413.826L152.992 415.74L151.746 417.65L149.257 417.65L148.011 415.74L149.257 413.826Z" fill="#99C2A2" fillOpacity="0.7"/>
<path fillRule="evenodd" clipRule="evenodd" d="M150.083 435.316L150.92 435.316L151.34 435.958L150.92 436.6L150.083 436.6L149.663 435.958L150.083 435.316Z" fill="#99C2A2" fillOpacity="0.7"/>
<path fillRule="evenodd" clipRule="evenodd" d="M124.919 194.494L136.567 194.494L142.391 203.432L136.567 212.37L124.919 212.37L119.096 203.432L124.919 194.494Z" fill="#99C2A2" fillOpacity="0.7"/>
<path fillRule="evenodd" clipRule="evenodd" d="M125.088 214.976L136.398 214.976L142.05 223.654L136.398 232.33L125.088 232.33L119.434 223.654L125.088 214.976Z" fill="#99C2A2" fillOpacity="0.7"/>
<path fillRule="evenodd" clipRule="evenodd" d="M125.302 235.52L136.184 235.52L141.625 243.872L136.184 252.224L125.302 252.224L119.861 243.872L125.302 235.52Z" fill="#99C2A2" fillOpacity="0.7"/>
<path fillRule="evenodd" clipRule="evenodd" d="M125.578 256.162L135.911 256.162L141.075 264.09L135.911 272.02L125.578 272.02L120.411 264.09L125.578 256.162Z" fill="#99C2A2" fillOpacity="0.7"/>
<path fillRule="evenodd" clipRule="evenodd" d="M125.914 276.902L135.57 276.902L140.398 284.312L135.57 291.72L125.914 291.72L121.089 284.312L125.914 276.902Z" fill="#99C2A2" fillOpacity="0.7"/>
<path fillRule="evenodd" clipRule="evenodd" d="M126.318 297.738L135.168 297.738L139.592 304.53L135.168 311.322L126.318 311.322L121.894 304.53L126.318 297.738Z" fill="#99C2A2" fillOpacity="0.7"/>
<path fillRule="evenodd" clipRule="evenodd" d="M126.785 318.674L134.701 318.674L138.66 324.75L134.701 330.824L126.785 330.824L122.826 324.75L126.785 318.674Z" fill="#99C2A2" fillOpacity="0.7"/>
<path fillRule="evenodd" clipRule="evenodd" d="M127.336 339.74L134.148 339.74L137.556 344.97L134.148 350.198L127.336 350.198L123.928 344.97L127.336 339.74Z" fill="#99C2A2" fillOpacity="0.7"/>
<path fillRule="evenodd" clipRule="evenodd" d="M127.97 360.934L133.514 360.934L136.285 365.188L133.514 369.442L127.97 369.442L125.201 365.188L127.97 360.934Z" fill="#99C2A2" fillOpacity="0.7"/>
<path fillRule="evenodd" clipRule="evenodd" d="M128.693 382.26L132.794 382.26L134.843 385.408L132.794 388.556L128.693 388.556L126.641 385.408L128.693 382.26Z" fill="#99C2A2" fillOpacity="0.7"/>
<path fillRule="evenodd" clipRule="evenodd" d="M129.496 403.718L131.988 403.718L133.234 405.628L131.988 407.54L129.496 407.54L128.253 405.628L129.496 403.718Z" fill="#99C2A2" fillOpacity="0.7"/>
<path fillRule="evenodd" clipRule="evenodd" d="M130.324 425.204L131.159 425.204L131.582 425.848L131.162 426.49L130.322 426.49L129.907 425.848L130.324 425.204Z" fill="#99C2A2" fillOpacity="0.7"/>
<path fillRule="evenodd" clipRule="evenodd" d="M105.158 204.604L116.805 204.604L122.628 213.542L116.805 222.482L105.158 222.482L99.3351 213.542L105.158 204.604Z" fill="#99C2A2" fillOpacity="0.7"/>
<path fillRule="evenodd" clipRule="evenodd" d="M105.328 225.084L116.636 225.084L122.29 233.762L116.636 242.44L105.328 242.44L99.6739 233.762L105.328 225.084Z" fill="#99C2A2" fillOpacity="0.7"/>
<path fillRule="evenodd" clipRule="evenodd" d="M105.54 245.63L116.423 245.63L121.867 253.982L116.423 262.334L105.54 262.334L100.098 253.982L105.54 245.63Z" fill="#99C2A2" fillOpacity="0.7"/>
<path fillRule="evenodd" clipRule="evenodd" d="M105.815 266.272L116.148 266.272L121.314 274.202L116.148 282.13L105.815 282.13L100.649 274.202L105.815 266.272Z" fill="#99C2A2" fillOpacity="0.7"/>
<path fillRule="evenodd" clipRule="evenodd" d="M106.156 287.012L115.809 287.012L120.637 294.42L115.809 301.828L106.156 301.828L101.328 294.42L106.156 287.012Z" fill="#99C2A2" fillOpacity="0.7"/>
<path fillRule="evenodd" clipRule="evenodd" d="M106.558 307.848L115.405 307.848L119.832 314.64L115.405 321.43L106.558 321.43L102.132 314.64L106.558 307.848Z" fill="#99C2A2" fillOpacity="0.7"/>
<path fillRule="evenodd" clipRule="evenodd" d="M107.023 328.784L114.941 328.784L118.899 334.86L114.941 340.934L107.023 340.934L103.064 334.86L107.023 328.784Z" fill="#99C2A2" fillOpacity="0.7"/>
<path fillRule="evenodd" clipRule="evenodd" d="M107.576 349.848L114.39 349.848L117.798 355.078L114.39 360.31L107.576 360.31L104.168 355.078L107.576 349.848Z" fill="#99C2A2" fillOpacity="0.7"/>
<path fillRule="evenodd" clipRule="evenodd" d="M108.212 371.046L113.753 371.046L116.525 375.3L113.753 379.552L108.212 379.552L105.438 375.3L108.212 371.046Z" fill="#99C2A2" fillOpacity="0.7"/>
<path fillRule="evenodd" clipRule="evenodd" d="M108.932 392.37L113.033 392.37L115.085 395.518L113.033 398.666L108.932 398.666L106.881 395.518L108.932 392.37Z" fill="#99C2A2" fillOpacity="0.7"/>
<path fillRule="evenodd" clipRule="evenodd" d="M109.738 413.826L112.227 413.826L113.473 415.738L112.227 417.65L109.738 417.65L108.492 415.738L109.738 413.826Z" fill="#99C2A2" fillOpacity="0.7"/>
<path fillRule="evenodd" clipRule="evenodd" d="M110.564 435.316L111.401 435.316L111.819 435.958L111.401 436.6L110.564 436.6L110.144 435.958L110.564 435.316Z" fill="#99C2A2" fillOpacity="0.7"/>
<path fillRule="evenodd" clipRule="evenodd" d="M85.3978 194.494L97.0464 194.494L102.87 203.432L97.0464 212.37L85.3978 212.37L79.5746 203.432L85.3978 194.494Z" fill="#99C2A2" fillOpacity="0.7"/>
<path fillRule="evenodd" clipRule="evenodd" d="M85.5671 214.976L96.8749 214.976L102.529 223.654L96.8749 232.33L85.5671 232.33L79.9131 223.654L85.5671 214.976Z" fill="#99C2A2" fillOpacity="0.7"/>
<path fillRule="evenodd" clipRule="evenodd" d="M85.7792 235.52L96.665 235.52L102.104 243.872L96.665 252.224L85.7792 252.224L80.3375 243.872L85.7792 235.52Z" fill="#99C2A2" fillOpacity="0.7"/>
<path fillRule="evenodd" clipRule="evenodd" d="M86.0547 256.162L96.3875 256.162L101.556 264.09L96.3875 272.02L86.0547 272.02L80.8883 264.09L86.0547 256.162Z" fill="#99C2A2" fillOpacity="0.7"/>
<path fillRule="evenodd" clipRule="evenodd" d="M86.3957 276.902L96.0491 276.902L100.877 284.312L96.0491 291.72L86.3957 291.72L81.5656 284.312L86.3957 276.902Z" fill="#99C2A2" fillOpacity="0.7"/>
<path fillRule="evenodd" clipRule="evenodd" d="M86.7951 297.738L95.645 297.738L100.069 304.53L95.645 311.322L86.7951 311.322L82.3736 304.53L86.7951 297.738Z" fill="#99C2A2" fillOpacity="0.7"/>
<path fillRule="evenodd" clipRule="evenodd" d="M87.2646 318.674L95.1801 318.674L99.1367 324.75L95.1801 330.824L87.2646 330.824L83.3057 324.75L87.2646 318.674Z" fill="#99C2A2" fillOpacity="0.7"/>
<path fillRule="evenodd" clipRule="evenodd" d="M87.8152 339.74L94.627 339.74L98.0352 344.97L94.627 350.198L87.8152 350.198L84.4071 344.97L87.8152 339.74Z" fill="#99C2A2" fillOpacity="0.7"/>
<path fillRule="evenodd" clipRule="evenodd" d="M88.4495 360.934L93.9928 360.934L96.7622 365.188L93.9928 369.442L88.4495 369.442L85.6778 365.188L88.4495 360.934Z" fill="#99C2A2" fillOpacity="0.7"/>
<path fillRule="evenodd" clipRule="evenodd" d="M89.1695 382.26L93.2729 382.26L95.3223 385.408L93.2729 388.556L89.1695 388.556L87.1201 385.408L89.1695 382.26Z" fill="#99C2A2" fillOpacity="0.7"/>
<path fillRule="evenodd" clipRule="evenodd" d="M89.9775 403.718L92.467 403.718L93.7129 405.628L92.467 407.54L89.9775 407.54L88.7316 405.628L89.9775 403.718Z" fill="#99C2A2" fillOpacity="0.7"/>
<path fillRule="evenodd" clipRule="evenodd" d="M90.8034 425.204L91.6407 425.204L92.0605 425.848L91.6407 426.49L90.8034 426.49L90.3835 425.848L90.8034 425.204Z" fill="#99C2A2" fillOpacity="0.7"/>
<path fillRule="evenodd" clipRule="evenodd" d="M65.556 204.626L77.2024 204.626L83.0278 213.564L77.2024 222.5L65.556 222.5L59.7328 213.564L65.556 204.626Z" fill="#99C2A2" fillOpacity="0.7"/>
<path fillRule="evenodd" clipRule="evenodd" d="M65.7275 225.106L77.0331 225.106L82.687 233.784L77.0331 242.462L65.7275 242.462L60.0736 233.784L65.7275 225.106Z" fill="#99C2A2" fillOpacity="0.7"/>
<path fillRule="evenodd" clipRule="evenodd" d="M65.9376 245.652L76.8234 245.652L82.2651 254.002L76.8234 262.354L65.9376 262.354L60.4959 254.002L65.9376 245.652Z" fill="#99C2A2" fillOpacity="0.7"/>
<path fillRule="evenodd" clipRule="evenodd" d="M66.2129 266.294L76.5457 266.294L81.7144 274.222L76.5457 282.152L66.2129 282.152L61.0465 274.222L66.2129 266.294Z" fill="#99C2A2" fillOpacity="0.7"/>
<path fillRule="evenodd" clipRule="evenodd" d="M66.5539 287.034L76.2073 287.034L81.0352 294.442L76.2073 301.85L66.5539 301.85L61.7261 294.442L66.5539 287.034Z" fill="#99C2A2" fillOpacity="0.7"/>
<path fillRule="evenodd" clipRule="evenodd" d="M66.9553 307.87L75.8029 307.87L80.229 314.66L75.8029 321.452L66.9553 321.452L62.5292 314.66L66.9553 307.87Z" fill="#99C2A2" fillOpacity="0.7"/>
<path fillRule="evenodd" clipRule="evenodd" d="M67.4203 328.806L75.338 328.806L79.2969 334.882L75.338 340.956L67.4203 340.956L63.4636 334.882L67.4203 328.806Z" fill="#99C2A2" fillOpacity="0.7"/>
<path fillRule="evenodd" clipRule="evenodd" d="M67.9736 349.872L74.7877 349.872L78.1958 355.098L74.7877 360.33L67.9736 360.33L64.5655 355.098L67.9736 349.872Z" fill="#99C2A2" fillOpacity="0.7"/>
<path fillRule="evenodd" clipRule="evenodd" d="M68.6101 371.068L74.1512 371.068L76.9229 375.32L74.1512 379.572L68.6101 379.572L65.8362 375.32L68.6101 371.068Z" fill="#99C2A2" fillOpacity="0.7"/>
<path fillRule="evenodd" clipRule="evenodd" d="M69.3297 392.392L73.4308 392.392L75.4824 395.54L73.4308 398.686L69.3297 398.686L67.278 395.54L69.3297 392.392Z" fill="#99C2A2" fillOpacity="0.7"/>
<path fillRule="evenodd" clipRule="evenodd" d="M70.1357 413.848L72.6252 413.848L73.8711 415.758L72.6252 417.67L70.1357 417.67L68.8898 415.758L70.1357 413.848Z" fill="#99C2A2" fillOpacity="0.7"/>
<path fillRule="evenodd" clipRule="evenodd" d="M70.9619 435.336L71.7992 435.336L72.2168 435.98L71.7992 436.622L70.9619 436.622L70.5421 435.98L70.9619 435.336Z" fill="#99C2A2" fillOpacity="0.7"/>
<path fillRule="evenodd" clipRule="evenodd" d="M45.7957 194.516L57.4444 194.516L63.2676 203.454L57.4444 212.392L45.7957 212.392L39.9703 203.454L45.7957 194.516Z" fill="#99C2A2" fillOpacity="0.7"/>
<path fillRule="evenodd" clipRule="evenodd" d="M45.9673 214.996L57.2706 214.996L62.9268 223.672L57.2706 232.35L45.9673 232.35L40.3111 223.672L45.9673 214.996Z" fill="#99C2A2" fillOpacity="0.7"/>
<path fillRule="evenodd" clipRule="evenodd" d="M46.1769 235.542L57.0626 235.542L62.5044 243.894L57.0626 252.244L46.1769 252.244L40.7351 243.894L46.1769 235.542Z" fill="#99C2A2" fillOpacity="0.7"/>
<path fillRule="evenodd" clipRule="evenodd" d="M46.4527 256.182L56.7855 256.182L61.9541 264.112L56.7855 272.042L46.4527 272.042L41.2863 264.112L46.4527 256.182Z" fill="#99C2A2" fillOpacity="0.7"/>
<path fillRule="evenodd" clipRule="evenodd" d="M46.7932 276.922L56.4466 276.922L61.2744 284.332L56.4466 291.74L46.7932 291.74L41.9631 284.332L46.7932 276.922Z" fill="#99C2A2" fillOpacity="0.7"/>
<path fillRule="evenodd" clipRule="evenodd" d="M47.1948 297.76L56.0402 297.76L60.4663 304.552L56.0402 311.342L47.1948 311.342L42.771 304.552L47.1948 297.76Z" fill="#99C2A2" fillOpacity="0.7"/>
<path fillRule="evenodd" clipRule="evenodd" d="M47.6624 318.696L55.5734 318.696L59.5322 324.77L55.5734 330.846L47.6624 330.846L43.7035 324.77L47.6624 318.696Z" fill="#99C2A2" fillOpacity="0.7"/>
<path fillRule="evenodd" clipRule="evenodd" d="M48.2132 339.76L55.025 339.76L58.4331 344.99L55.025 350.218L48.2132 350.218L44.805 344.99L48.2132 339.76Z" fill="#99C2A2" fillOpacity="0.7"/>
<path fillRule="evenodd" clipRule="evenodd" d="M48.8471 360.956L54.3905 360.956L57.1621 365.21L54.3905 369.464L48.8471 369.464L46.0755 365.21L48.8471 360.956Z" fill="#99C2A2" fillOpacity="0.7"/>
<path fillRule="evenodd" clipRule="evenodd" d="M49.567 382.282L53.6703 382.282L55.7197 385.43L53.6703 388.576L49.567 388.576L47.5176 385.43L49.567 382.282Z" fill="#99C2A2" fillOpacity="0.7"/>
<path fillRule="evenodd" clipRule="evenodd" d="M50.3752 403.738L52.8648 403.738L54.1084 405.65L52.8648 407.562L50.3752 407.562L49.1294 405.65L50.3752 403.738Z" fill="#99C2A2" fillOpacity="0.7"/>
<path fillRule="evenodd" clipRule="evenodd" d="M51.2013 425.226L52.0387 425.226L52.4585 425.87L52.0387 426.512L51.2013 426.512L50.7815 425.87L51.2013 425.226Z" fill="#99C2A2" fillOpacity="0.7"/>
<path fillRule="evenodd" clipRule="evenodd" d="M26.0353 204.626L37.6817 204.626L43.5049 213.564L37.6817 222.5L26.0353 222.5L20.2098 213.564L26.0353 204.626Z" fill="#99C2A2" fillOpacity="0.7"/>
<path fillRule="evenodd" clipRule="evenodd" d="M26.2045 225.106L37.5124 225.106L43.1641 233.784L37.5124 242.462L26.2045 242.462L20.5507 233.784L26.2045 225.106Z" fill="#99C2A2" fillOpacity="0.7"/>
<path fillRule="evenodd" clipRule="evenodd" d="M26.4164 245.652L37.2999 245.652L42.7417 254.002L37.2999 262.354L26.4164 262.354L20.9724 254.002L26.4164 245.652Z" fill="#99C2A2" fillOpacity="0.7"/>
<path fillRule="evenodd" clipRule="evenodd" d="M26.6917 266.294L37.0245 266.294L42.1909 274.222L37.0245 282.152L26.6917 282.152L21.5253 274.222L26.6917 266.294Z" fill="#99C2A2" fillOpacity="0.7"/>
<path fillRule="evenodd" clipRule="evenodd" d="M27.0305 287.034L36.6839 287.034L41.5117 294.442L36.6839 301.85L27.0305 301.85L22.2026 294.442L27.0305 287.034Z" fill="#99C2A2" fillOpacity="0.7"/>
<path fillRule="evenodd" clipRule="evenodd" d="M27.4343 307.87L36.2842 307.87L40.708 314.66L36.2842 321.452L27.4343 321.452L23.0082 314.66L27.4343 307.87Z" fill="#99C2A2" fillOpacity="0.7"/>
<path fillRule="evenodd" clipRule="evenodd" d="M27.8996 328.806L35.8173 328.806L39.7739 334.882L35.8173 340.956L27.8996 340.956L23.9407 334.882L27.8996 328.806Z" fill="#99C2A2" fillOpacity="0.7"/>
<path fillRule="evenodd" clipRule="evenodd" d="M28.4502 349.872L35.2642 349.872L38.6724 355.098L35.2642 360.33L28.4502 360.33L25.0443 355.098L28.4502 349.872Z" fill="#99C2A2" fillOpacity="0.7"/>
<path fillRule="evenodd" clipRule="evenodd" d="M29.0869 371.068L34.628 371.068L37.4019 375.32L34.628 379.572L29.0869 379.572L26.3152 375.32L29.0869 371.068Z" fill="#99C2A2" fillOpacity="0.7"/>
<path fillRule="evenodd" clipRule="evenodd" d="M29.8068 392.392L33.9101 392.392L35.9595 395.54L33.9101 398.686L29.8068 398.686L27.7551 395.54L29.8068 392.392Z" fill="#99C2A2" fillOpacity="0.7"/>
<path fillRule="evenodd" clipRule="evenodd" d="M30.6122 413.848L33.1018 413.848L34.3477 415.758L33.1018 417.67L30.6122 417.67L29.3663 415.758L30.6122 413.848Z" fill="#99C2A2" fillOpacity="0.7"/>
<path fillRule="evenodd" clipRule="evenodd" d="M31.4386 435.336L32.276 435.336L32.6958 435.98L32.276 436.622L31.4386 436.622L31.0211 435.98L31.4386 435.336Z" fill="#99C2A2" fillOpacity="0.7"/>
<path fillRule="evenodd" clipRule="evenodd" d="M6.27454 194.516L17.9209 194.516L23.7441 203.454L17.9209 212.392L6.27454 212.392L0.45137 203.454L6.27454 194.516Z" fill="#99C2A2" fillOpacity="0.7"/>
<path fillRule="evenodd" clipRule="evenodd" d="M6.44401 214.996L17.7518 214.996L23.4058 223.672L17.7518 232.35L6.44401 232.35L0.790079 223.672L6.44401 214.996Z" fill="#99C2A2" fillOpacity="0.7"/>
<path fillRule="evenodd" clipRule="evenodd" d="M6.65618 235.542L17.5397 235.542L22.9814 243.894L17.5397 252.244L6.65617 252.244L1.21443 243.894L6.65618 235.542Z" fill="#99C2A2" fillOpacity="0.7"/>
<path fillRule="evenodd" clipRule="evenodd" d="M6.93147 256.182L17.2643 256.182L22.4307 264.112L17.2643 272.042L6.93147 272.042L1.76511 264.112L6.93147 256.182Z" fill="#99C2A2" fillOpacity="0.7"/>
<path fillRule="evenodd" clipRule="evenodd" d="M7.27021 276.922L16.9236 276.922L21.7515 284.332L16.9236 291.74L7.27021 291.74L2.44236 284.332L7.27021 276.922Z" fill="#99C2A2" fillOpacity="0.7"/>
<path fillRule="evenodd" clipRule="evenodd" d="M7.67176 297.76L16.5217 297.76L20.9478 304.552L16.5217 311.342L7.67176 311.342L3.24795 304.552L7.67176 297.76Z" fill="#99C2A2" fillOpacity="0.7"/>
<path fillRule="evenodd" clipRule="evenodd" d="M8.13882 318.696L16.0566 318.696L20.0132 324.77L16.0566 330.846L8.13882 330.846L4.17996 324.77L8.13882 318.696Z" fill="#99C2A2" fillOpacity="0.7"/>
<path fillRule="evenodd" clipRule="evenodd" d="M8.68973 339.76L15.506 339.76L18.9097 344.99L15.506 350.218L8.68973 350.218L5.28159 344.99L8.68973 339.76Z" fill="#99C2A2" fillOpacity="0.7"/>
<path fillRule="evenodd" clipRule="evenodd" d="M9.32371 360.956L14.867 360.956L17.6387 365.21L14.867 369.464L9.32371 369.464L6.55429 365.21L9.32371 360.956Z" fill="#99C2A2" fillOpacity="0.7"/>
<path fillRule="evenodd" clipRule="evenodd" d="M10.0463 382.282L14.1474 382.282L16.1968 385.43L14.1474 388.576L10.0463 388.576L7.99464 385.43L10.0463 382.282Z" fill="#99C2A2" fillOpacity="0.7"/>
<path fillRule="evenodd" clipRule="evenodd" d="M10.8519 403.738L13.3437 403.738L14.5874 405.65L13.3437 407.562L10.8519 407.562L9.60608 405.65L10.8519 403.738Z" fill="#99C2A2" fillOpacity="0.7"/>
<path fillRule="evenodd" clipRule="evenodd" d="M11.6779 425.226L12.5153 425.226L12.9351 425.87L12.5153 426.512L11.6779 426.512L11.2603 425.87L11.6779 425.226Z" fill="#99C2A2" fillOpacity="0.7"/>
<path fillRule="evenodd" clipRule="evenodd" d="M342.53 204.542L354.177 204.542L360 213.48L354.177 222.416L342.53 222.416L336.707 213.48L342.53 204.542Z" fill="#99C2A2" fillOpacity="0.7"/>
<path fillRule="evenodd" clipRule="evenodd" d="M342.7 225.022L354.007 225.022L359.661 233.698L354.007 242.376L342.7 242.376L337.046 233.698L342.7 225.022Z" fill="#99C2A2" fillOpacity="0.7"/>
<path fillRule="evenodd" clipRule="evenodd" d="M342.912 245.568L353.795 245.568L359.239 253.918L353.795 262.27L342.912 262.27L337.47 253.918L342.912 245.568Z" fill="#99C2A2" fillOpacity="0.7"/>
<path fillRule="evenodd" clipRule="evenodd" d="M343.187 266.208L353.52 266.208L358.686 274.138L353.52 282.068L343.187 282.068L338.021 274.138L343.187 266.208Z" fill="#99C2A2" fillOpacity="0.7"/>
<path fillRule="evenodd" clipRule="evenodd" d="M343.526 286.948L353.181 286.948L358.009 294.358L353.181 301.766L343.526 301.766L338.698 294.358L343.526 286.948Z" fill="#99C2A2" fillOpacity="0.7"/>
<path fillRule="evenodd" clipRule="evenodd" d="M343.93 307.786L352.778 307.786L357.204 314.576L352.778 321.368L343.93 321.368L339.504 314.576L343.93 307.786Z" fill="#99C2A2" fillOpacity="0.7"/>
<path fillRule="evenodd" clipRule="evenodd" d="M344.395 328.722L352.312 328.722L356.271 334.796L352.312 340.872L344.395 340.872L340.436 334.796L344.395 328.722Z" fill="#99C2A2" fillOpacity="0.7"/>
<path fillRule="evenodd" clipRule="evenodd" d="M344.946 349.786L351.76 349.786L355.168 355.016L351.76 360.244L344.946 360.244L341.54 355.016L344.946 349.786Z" fill="#99C2A2" fillOpacity="0.7"/>
<path fillRule="evenodd" clipRule="evenodd" d="M345.582 370.982L351.125 370.982L353.897 375.236L351.125 379.49L345.582 379.49L342.81 375.236L345.582 370.982Z" fill="#99C2A2" fillOpacity="0.7"/>
<path fillRule="evenodd" clipRule="evenodd" d="M346.304 392.308L350.405 392.308L352.455 395.456L350.405 398.602L346.304 398.602L344.252 395.456L346.304 392.308Z" fill="#99C2A2" fillOpacity="0.7"/>
<path fillRule="evenodd" clipRule="evenodd" d="M347.108 413.762L349.6 413.762L350.845 415.674L349.6 417.586L347.108 417.586L345.864 415.674L347.108 413.762Z" fill="#99C2A2" fillOpacity="0.7"/>
<path fillRule="evenodd" clipRule="evenodd" d="M347.936 435.25L348.773 435.25L349.191 435.894L348.773 436.538L347.936 436.538L347.516 435.894L347.936 435.25Z" fill="#99C2A2" fillOpacity="0.7"/>
<path fillRule="evenodd" clipRule="evenodd" d="M322.77 194.432L334.416 194.432L340.24 203.37L334.416 212.308L322.77 212.308L316.947 203.37L322.77 194.432Z" fill="#99C2A2" fillOpacity="0.7"/>
<path fillRule="evenodd" clipRule="evenodd" d="M322.939 214.91L334.247 214.91L339.901 223.588L334.247 232.266L322.939 232.266L317.285 223.588L322.939 214.91Z" fill="#99C2A2" fillOpacity="0.7"/>
<path fillRule="evenodd" clipRule="evenodd" d="M323.151 235.456L334.035 235.456L339.477 243.81L334.035 252.16L323.151 252.16L317.71 243.81L323.151 235.456Z" fill="#99C2A2" fillOpacity="0.7"/>
<path fillRule="evenodd" clipRule="evenodd" d="M323.427 256.098L333.759 256.098L338.926 264.028L333.759 271.958L323.427 271.958L318.26 264.028L323.427 256.098Z" fill="#99C2A2" fillOpacity="0.7"/>
<path fillRule="evenodd" clipRule="evenodd" d="M323.765 276.838L333.421 276.838L338.247 284.248L333.421 291.656L323.765 291.656L318.937 284.248L323.765 276.838Z" fill="#99C2A2" fillOpacity="0.7"/>
<path fillRule="evenodd" clipRule="evenodd" d="M324.167 297.676L333.017 297.676L337.441 304.468L333.017 311.258L324.167 311.258L319.743 304.468L324.167 297.676Z" fill="#99C2A2" fillOpacity="0.7"/>
<path fillRule="evenodd" clipRule="evenodd" d="M324.634 318.612L332.552 318.612L336.509 324.686L332.552 330.762L324.634 330.762L320.675 324.686L324.634 318.612Z" fill="#99C2A2" fillOpacity="0.7"/>
<path fillRule="evenodd" clipRule="evenodd" d="M325.185 339.676L331.999 339.676L335.407 344.908L331.999 350.136L325.185 350.136L321.779 344.908L325.185 339.676Z" fill="#99C2A2" fillOpacity="0.7"/>
<path fillRule="evenodd" clipRule="evenodd" d="M325.822 360.872L331.365 360.872L334.134 365.126L331.365 369.38L325.822 369.38L323.05 365.126L325.822 360.872Z" fill="#99C2A2" fillOpacity="0.7"/>
<path fillRule="evenodd" clipRule="evenodd" d="M326.541 382.198L330.645 382.198L332.694 385.346L330.645 388.492L326.541 388.492L324.492 385.346L326.541 382.198Z" fill="#99C2A2" fillOpacity="0.7"/>
<path fillRule="evenodd" clipRule="evenodd" d="M327.347 403.654L329.839 403.654L331.083 405.566L329.839 407.478L327.347 407.478L326.101 405.566L327.347 403.654Z" fill="#99C2A2" fillOpacity="0.7"/>
<path fillRule="evenodd" clipRule="evenodd" d="M328.173 425.142L329.011 425.142L329.43 425.784L329.011 426.426L328.173 426.426L327.756 425.784L328.173 425.142Z" fill="#99C2A2" fillOpacity="0.7"/>
<path fillRule="evenodd" clipRule="evenodd" d="M302.928 204.564L314.574 204.564L320.4 213.5L314.574 222.438L302.928 222.438L297.105 213.5L302.928 204.564Z" fill="#99C2A2" fillOpacity="0.7"/>
<path fillRule="evenodd" clipRule="evenodd" d="M303.097 225.042L314.405 225.042L320.059 233.72L314.405 242.398L303.097 242.398L297.443 233.72L303.097 225.042Z" fill="#99C2A2" fillOpacity="0.7"/>
<path fillRule="evenodd" clipRule="evenodd" d="M303.31 245.586L314.195 245.586L319.635 253.94L314.195 262.292L303.31 262.292L297.868 253.94L303.31 245.586Z" fill="#99C2A2" fillOpacity="0.7"/>
<path fillRule="evenodd" clipRule="evenodd" d="M303.585 266.23L313.918 266.23L319.084 274.158L313.918 282.088L303.585 282.088L298.419 274.158L303.585 266.23Z" fill="#99C2A2" fillOpacity="0.7"/>
<path fillRule="evenodd" clipRule="evenodd" d="M303.923 286.97L313.579 286.97L318.407 294.38L313.579 301.788L303.923 301.788L299.098 294.38L303.923 286.97Z" fill="#99C2A2" fillOpacity="0.7"/>
<path fillRule="evenodd" clipRule="evenodd" d="M304.328 307.808L313.175 307.808L317.601 314.598L313.175 321.39L304.328 321.39L299.902 314.598L304.328 307.808Z" fill="#99C2A2" fillOpacity="0.7"/>
<path fillRule="evenodd" clipRule="evenodd" d="M304.793 328.742L312.71 328.742L316.669 334.818L312.71 340.894L304.793 340.894L300.836 334.818L304.793 328.742Z" fill="#99C2A2" fillOpacity="0.7"/>
<path fillRule="evenodd" clipRule="evenodd" d="M305.345 349.808L312.16 349.808L315.565 355.038L312.16 360.266L305.345 360.266L301.937 355.038L305.345 349.808Z" fill="#99C2A2" fillOpacity="0.7"/>
<path fillRule="evenodd" clipRule="evenodd" d="M305.98 371.002L311.523 371.002L314.295 375.256L311.523 379.51L305.98 379.51L303.208 375.256L305.98 371.002Z" fill="#99C2A2" fillOpacity="0.7"/>
<path fillRule="evenodd" clipRule="evenodd" d="M306.702 392.328L310.803 392.328L312.852 395.478L310.803 398.624L306.702 398.624L304.65 395.478L306.702 392.328Z" fill="#99C2A2" fillOpacity="0.7"/>
<path fillRule="evenodd" clipRule="evenodd" d="M307.508 413.784L309.997 413.784L311.243 415.696L309.997 417.608L307.508 417.608L306.262 415.696L307.508 413.784Z" fill="#99C2A2" fillOpacity="0.7"/>
<path fillRule="evenodd" clipRule="evenodd" d="M308.334 435.272L309.171 435.272L309.589 435.914L309.171 436.56L308.334 436.56L307.914 435.914L308.334 435.272Z" fill="#99C2A2" fillOpacity="0.7"/>
<path fillRule="evenodd" clipRule="evenodd" d="M66.5196 184.44L77.4054 184.44L82.8472 192.792L77.4054 201.146L66.5196 201.146L61.0779 192.792L66.5196 184.44Z" fill="#99C2A2" fillOpacity="0.7"/>
<path fillRule="evenodd" clipRule="evenodd" d="M66.795 164.642L77.13 164.642L82.2964 172.572L77.13 180.502L66.795 180.502L61.6286 172.572L66.795 164.642Z" fill="#99C2A2" fillOpacity="0.7"/>
<path fillRule="evenodd" clipRule="evenodd" d="M67.1354 144.944L76.7889 144.944L81.6167 152.352L76.7889 159.762L67.1354 159.762L62.3076 152.352L67.1354 144.944Z" fill="#99C2A2" fillOpacity="0.7"/>
<path fillRule="evenodd" clipRule="evenodd" d="M67.5396 125.342L76.3849 125.342L80.811 132.134L76.3849 138.924L67.5396 138.924L63.1135 132.134L67.5396 125.342Z" fill="#99C2A2" fillOpacity="0.7"/>
<path fillRule="evenodd" clipRule="evenodd" d="M68.0045 105.84L75.92 105.84L79.8789 111.914L75.92 117.99L68.0045 117.99L64.0457 111.914L68.0045 105.84Z" fill="#99C2A2" fillOpacity="0.7"/>
<path fillRule="evenodd" clipRule="evenodd" d="M68.5552 86.466L75.3692 86.466L78.7773 91.694L75.3692 96.924L68.5552 96.924L65.147 91.694L68.5552 86.466Z" fill="#99C2A2" fillOpacity="0.7"/>
<path fillRule="evenodd" clipRule="evenodd" d="M69.1919 67.22L74.7329 67.22L77.5068 71.474L74.7329 75.728L69.1919 75.728L66.4202 71.474L69.1919 67.22Z" fill="#99C2A2" fillOpacity="0.7"/>
<path fillRule="evenodd" clipRule="evenodd" d="M69.9117 48.108L74.0151 48.108L76.0645 51.256L74.0151 54.402L69.9117 54.402L67.8601 51.256L69.9117 48.108Z" fill="#99C2A2" fillOpacity="0.7"/>
<path fillRule="evenodd" clipRule="evenodd" d="M70.7177 29.124L73.2072 29.124L74.4531 31.036L73.2072 32.948L70.7177 32.948L69.4718 31.036L70.7177 29.124Z" fill="#99C2A2" fillOpacity="0.7"/>
<path fillRule="evenodd" clipRule="evenodd" d="M71.5436 10.172L72.381 10.172L72.8008 10.816L72.381 11.46L71.5436 11.46L71.1238 10.816L71.5436 10.172Z" fill="#99C2A2" fillOpacity="0.7"/>
<path fillRule="evenodd" clipRule="evenodd" d="M86.2822 174.33L97.1657 174.33L102.607 182.682L97.1657 191.034L86.2822 191.034L80.8404 182.682L86.2822 174.33Z" fill="#99C2A2" fillOpacity="0.7"/>
<path fillRule="evenodd" clipRule="evenodd" d="M86.5575 154.534L96.8903 154.534L102.057 162.464L96.8903 170.392L86.5575 170.392L81.3911 162.464L86.5575 154.534Z" fill="#99C2A2" fillOpacity="0.7"/>
<path fillRule="evenodd" clipRule="evenodd" d="M86.8964 134.834L96.552 134.834L101.38 142.244L96.552 149.652L86.8964 149.652L82.0685 142.244L86.8964 134.834Z" fill="#99C2A2" fillOpacity="0.7"/>
<path fillRule="evenodd" clipRule="evenodd" d="M87.2981 115.232L96.148 115.232L100.572 122.024L96.148 128.814L87.2981 128.814L82.8765 122.024L87.2981 115.232Z" fill="#99C2A2" fillOpacity="0.7"/>
<path fillRule="evenodd" clipRule="evenodd" d="M87.7676 95.728L95.6808 95.728L99.6396 101.804L95.6808 107.88L87.7676 107.88L83.8087 101.804L87.7676 95.728Z" fill="#99C2A2" fillOpacity="0.7"/>
<path fillRule="evenodd" clipRule="evenodd" d="M88.3181 76.354L95.1299 76.354L98.5381 81.584L95.1299 86.814L88.3181 86.814L84.91 81.584L88.3181 76.354Z" fill="#99C2A2" fillOpacity="0.7"/>
<path fillRule="evenodd" clipRule="evenodd" d="M88.9524 57.112L94.4957 57.112L97.2651 61.366L94.4957 65.618L88.9524 65.618L86.1807 61.366L88.9524 57.112Z" fill="#99C2A2" fillOpacity="0.7"/>
<path fillRule="evenodd" clipRule="evenodd" d="M89.6725 37.998L93.7758 37.998L95.8252 41.146L93.7758 44.294L89.6725 44.294L87.6231 41.146L89.6725 37.998Z" fill="#99C2A2" fillOpacity="0.7"/>
<path fillRule="evenodd" clipRule="evenodd" d="M90.4804 19.014L92.9699 19.014L94.2158 20.926L92.9699 22.838L90.4804 22.838L89.2345 20.926L90.4804 19.014Z" fill="#99C2A2" fillOpacity="0.7"/>
<path fillRule="evenodd" clipRule="evenodd" d="M91.3063 0.0639877L92.1437 0.0639877L92.5635 0.705988L92.1437 1.34799L91.3063 1.34799L90.8865 0.705988L91.3063 0.0639877Z" fill="#99C2A2" fillOpacity="0.7"/>
<path fillRule="evenodd" clipRule="evenodd" d="M106.043 184.44L116.926 184.44L122.37 192.792L116.926 201.146L106.043 201.146L100.601 192.792L106.043 184.44Z" fill="#99C2A2" fillOpacity="0.7"/>
<path fillRule="evenodd" clipRule="evenodd" d="M106.318 164.642L116.651 164.642L121.817 172.572L116.651 180.502L106.318 180.502L101.152 172.572L106.318 164.642Z" fill="#99C2A2" fillOpacity="0.7"/>
<path fillRule="evenodd" clipRule="evenodd" d="M106.659 144.944L116.312 144.944L121.14 152.352L116.312 159.762L106.659 159.762L101.831 152.352L106.659 144.944Z" fill="#99C2A2" fillOpacity="0.7"/>
<path fillRule="evenodd" clipRule="evenodd" d="M107.061 125.342L115.908 125.342L120.334 132.134L115.908 138.924L107.061 138.924L102.635 132.134L107.061 125.342Z" fill="#99C2A2" fillOpacity="0.7"/>
<path fillRule="evenodd" clipRule="evenodd" d="M107.526 105.84L115.443 105.84L119.402 111.914L115.443 117.99L107.526 117.99L103.567 111.914L107.526 105.84Z" fill="#99C2A2" fillOpacity="0.7"/>
<path fillRule="evenodd" clipRule="evenodd" d="M108.079 86.466L114.893 86.466L118.301 91.694L114.893 96.924L108.079 96.924L104.67 91.694L108.079 86.466Z" fill="#99C2A2" fillOpacity="0.7"/>
<path fillRule="evenodd" clipRule="evenodd" d="M108.715 67.22L114.256 67.22L117.028 71.474L114.256 75.728L108.715 75.728L105.941 71.474L108.715 67.22Z" fill="#99C2A2" fillOpacity="0.7"/>
<path fillRule="evenodd" clipRule="evenodd" d="M109.435 48.108L113.536 48.108L115.588 51.256L113.536 54.402L109.435 54.402L107.383 51.256L109.435 48.108Z" fill="#99C2A2" fillOpacity="0.7"/>
<path fillRule="evenodd" clipRule="evenodd" d="M110.241 29.124L112.73 29.124L113.976 31.036L112.73 32.948L110.241 32.948L108.995 31.036L110.241 29.124Z" fill="#99C2A2" fillOpacity="0.7"/>
<path fillRule="evenodd" clipRule="evenodd" d="M111.067 10.172L111.904 10.172L112.322 10.816L111.904 11.46L111.067 11.46L110.647 10.816L111.067 10.172Z" fill="#99C2A2" fillOpacity="0.7"/>
<path fillRule="evenodd" clipRule="evenodd" d="M125.885 174.308L136.768 174.308L142.208 182.662L136.768 191.012L125.885 191.012L120.443 182.662L125.885 174.308Z" fill="#99C2A2" fillOpacity="0.7"/>
<path fillRule="evenodd" clipRule="evenodd" d="M126.16 154.512L136.491 154.512L141.659 162.442L136.491 170.37L126.16 170.37L120.994 162.442L126.16 154.512Z" fill="#99C2A2" fillOpacity="0.7"/>
<path fillRule="evenodd" clipRule="evenodd" d="M126.496 134.812L136.154 134.812L140.979 142.222L136.154 149.632L126.496 149.632L121.67 142.222L126.496 134.812Z" fill="#99C2A2" fillOpacity="0.7"/>
<path fillRule="evenodd" clipRule="evenodd" d="M126.9 115.212L135.75 115.212L140.174 122.002L135.75 128.792L126.9 128.792L122.476 122.002L126.9 115.212Z" fill="#99C2A2" fillOpacity="0.7"/>
<path fillRule="evenodd" clipRule="evenodd" d="M127.367 95.708L135.283 95.708L139.242 101.782L135.283 107.858L127.367 107.858L123.408 101.782L127.367 95.708Z" fill="#99C2A2" fillOpacity="0.7"/>
<path fillRule="evenodd" clipRule="evenodd" d="M127.918 76.334L134.732 76.334L138.138 81.564L134.732 86.794L127.918 86.794L124.51 81.564L127.918 76.334Z" fill="#99C2A2" fillOpacity="0.7"/>
<path fillRule="evenodd" clipRule="evenodd" d="M128.552 57.09L134.096 57.09L136.867 61.344L134.096 65.598L128.552 65.598L125.783 61.344L128.552 57.09Z" fill="#99C2A2" fillOpacity="0.7"/>
<path fillRule="evenodd" clipRule="evenodd" d="M129.275 37.976L133.376 37.976L135.425 41.124L133.376 44.272L129.275 44.272L127.223 41.124L129.275 37.976Z" fill="#99C2A2" fillOpacity="0.7"/>
<path fillRule="evenodd" clipRule="evenodd" d="M130.08 18.994L132.572 18.994L133.816 20.904L132.572 22.816L130.08 22.816L128.835 20.904L130.08 18.994Z" fill="#99C2A2" fillOpacity="0.7"/>
<path fillRule="evenodd" clipRule="evenodd" d="M130.906 0.0419921L131.744 0.0419922L132.161 0.683992L131.744 1.32799L130.906 1.32799L130.489 0.683992L130.906 0.0419921Z" fill="#99C2A2" fillOpacity="0.7"/>
<path fillRule="evenodd" clipRule="evenodd" d="M145.645 184.418L156.528 184.418L161.97 192.77L156.528 201.124L145.645 201.124L140.201 192.77L145.645 184.418Z" fill="#99C2A2" fillOpacity="0.7"/>
<path fillRule="evenodd" clipRule="evenodd" d="M145.92 164.622L156.253 164.622L161.419 172.55L156.253 180.48L145.92 180.48L140.754 172.55L145.92 164.622Z" fill="#99C2A2" fillOpacity="0.7"/>
<path fillRule="evenodd" clipRule="evenodd" d="M146.259 144.924L155.912 144.924L160.74 152.332L155.912 159.74L146.259 159.74L141.431 152.332L146.259 144.924Z" fill="#99C2A2" fillOpacity="0.7"/>
<path fillRule="evenodd" clipRule="evenodd" d="M146.663 125.322L155.513 125.322L159.937 132.112L155.513 138.902L146.663 138.902L142.237 132.112L146.663 125.322Z" fill="#99C2A2" fillOpacity="0.7"/>
<path fillRule="evenodd" clipRule="evenodd" d="M147.128 105.818L155.046 105.818L159.004 111.892L155.046 117.968L147.128 117.968L143.169 111.892L147.128 105.818Z" fill="#99C2A2" fillOpacity="0.7"/>
<path fillRule="evenodd" clipRule="evenodd" d="M147.679 86.444L154.495 86.444L157.901 91.674L154.495 96.902L147.679 96.902L144.271 91.674L147.679 86.444Z" fill="#99C2A2" fillOpacity="0.7"/>
<path fillRule="evenodd" clipRule="evenodd" d="M148.315 67.2L153.856 67.2L156.63 71.454L153.856 75.708L148.315 75.708L145.543 71.454L148.315 67.2Z" fill="#99C2A2" fillOpacity="0.7"/>
<path fillRule="evenodd" clipRule="evenodd" d="M149.037 48.086L153.136 48.086L155.188 51.234L153.136 54.382L149.037 54.382L146.983 51.234L149.037 48.086Z" fill="#99C2A2" fillOpacity="0.7"/>
<path fillRule="evenodd" clipRule="evenodd" d="M149.841 29.102L152.333 29.102L153.576 31.014L152.333 32.926L149.841 32.926L148.595 31.014L149.841 29.102Z" fill="#99C2A2" fillOpacity="0.7"/>
<path fillRule="evenodd" clipRule="evenodd" d="M150.667 10.152L151.504 10.152L151.924 10.796L151.504 11.438L150.667 11.438L150.249 10.796L150.667 10.152Z" fill="#99C2A2" fillOpacity="0.7"/>
<path fillRule="evenodd" clipRule="evenodd" d="M165.405 174.308L176.291 174.308L181.731 182.662L176.291 191.012L165.405 191.012L159.964 182.662L165.405 174.308Z" fill="#99C2A2" fillOpacity="0.7"/>
<path fillRule="evenodd" clipRule="evenodd" d="M165.683 154.512L176.014 154.512L181.18 162.442L176.014 170.37L165.683 170.37L160.514 162.442L165.683 154.512Z" fill="#99C2A2" fillOpacity="0.7"/>
<path fillRule="evenodd" clipRule="evenodd" d="M166.019 134.812L175.675 134.812L180.503 142.222L175.675 149.632L166.019 149.632L161.192 142.222L166.019 134.812Z" fill="#99C2A2" fillOpacity="0.7"/>
<path fillRule="evenodd" clipRule="evenodd" d="M166.424 115.212L175.273 115.212L179.697 122.002L175.273 128.792L166.424 128.792L162 122.002L166.424 115.212Z" fill="#99C2A2" fillOpacity="0.7"/>
<path fillRule="evenodd" clipRule="evenodd" d="M166.891 95.708L174.806 95.708L178.765 101.782L174.806 107.858L166.891 107.858L162.932 101.782L166.891 95.708Z" fill="#99C2A2" fillOpacity="0.7"/>
<path fillRule="evenodd" clipRule="evenodd" d="M167.441 76.334L174.253 76.334L177.661 81.564L174.253 86.794L167.441 86.794L164.033 81.564L167.441 76.334Z" fill="#99C2A2" fillOpacity="0.7"/>
<path fillRule="evenodd" clipRule="evenodd" d="M168.076 57.09L173.619 57.09L176.391 61.344L173.619 65.598L168.076 65.598L165.306 61.344L168.076 57.09Z" fill="#99C2A2" fillOpacity="0.7"/>
<path fillRule="evenodd" clipRule="evenodd" d="M168.796 37.976L172.899 37.976L174.948 41.124L172.899 44.272L168.796 44.272L166.746 41.124L168.796 37.976Z" fill="#99C2A2" fillOpacity="0.7"/>
<path fillRule="evenodd" clipRule="evenodd" d="M169.604 18.994L172.091 18.994L173.339 20.904L172.093 22.816L169.601 22.816L168.358 20.904L169.604 18.994Z" fill="#99C2A2" fillOpacity="0.7"/>
<path fillRule="evenodd" clipRule="evenodd" d="M170.43 0.0419921L171.267 0.0419922L171.687 0.683992L171.267 1.32799L170.43 1.32799L170.012 0.683992L170.43 0.0419921Z" fill="#99C2A2" fillOpacity="0.7"/>
<path fillRule="evenodd" clipRule="evenodd" d="M185.166 184.418L196.052 184.418L201.493 192.77L196.052 201.124L185.166 201.124L179.724 192.77L185.166 184.418Z" fill="#99C2A2" fillOpacity="0.7"/>
<path fillRule="evenodd" clipRule="evenodd" d="M185.441 164.622L195.776 164.622L200.943 172.55L195.776 180.48L185.441 180.48L180.275 172.55L185.441 164.622Z" fill="#99C2A2" fillOpacity="0.7"/>
<path fillRule="evenodd" clipRule="evenodd" d="M185.782 144.924L195.436 144.924L200.263 152.332L195.436 159.74L185.782 159.74L180.954 152.332L185.782 144.924Z" fill="#99C2A2" fillOpacity="0.7"/>
<path fillRule="evenodd" clipRule="evenodd" d="M186.184 125.322L195.034 125.322L199.458 132.112L195.034 138.902L186.184 138.902L181.76 132.112L186.184 125.322Z" fill="#99C2A2" fillOpacity="0.7"/>
<path fillRule="evenodd" clipRule="evenodd" d="M186.651 105.818L194.567 105.818L198.525 111.892L194.567 117.968L186.651 117.968L182.692 111.892L186.651 105.818Z" fill="#99C2A2" fillOpacity="0.7"/>
<path fillRule="evenodd" clipRule="evenodd" d="M187.202 86.444L194.016 86.444L197.424 91.674L194.016 96.902L187.202 96.902L183.794 91.674L187.202 86.444Z" fill="#99C2A2" fillOpacity="0.7"/>
<path fillRule="evenodd" clipRule="evenodd" d="M187.836 67.2L193.379 67.2L196.151 71.454L193.379 75.708L187.836 75.708L185.064 71.454L187.836 67.2Z" fill="#99C2A2" fillOpacity="0.7"/>
<path fillRule="evenodd" clipRule="evenodd" d="M188.558 48.086L192.66 48.086L194.711 51.234L192.66 54.382L188.558 54.382L186.507 51.234L188.558 48.086Z" fill="#99C2A2" fillOpacity="0.7"/>
<path fillRule="evenodd" clipRule="evenodd" d="M189.364 29.102L191.854 29.102L193.1 31.014L191.854 32.926L189.364 32.926L188.118 31.014L189.364 29.102Z" fill="#99C2A2" fillOpacity="0.7"/>
<path fillRule="evenodd" clipRule="evenodd" d="M190.19 10.152L191.027 10.152L191.447 10.796L191.027 11.438L190.19 11.438L189.77 10.796L190.19 10.152Z" fill="#99C2A2" fillOpacity="0.7"/>
<path fillRule="evenodd" clipRule="evenodd" d="M205.008 174.288L215.891 174.288L221.333 182.64L215.891 190.992L205.008 190.992L199.566 182.64L205.008 174.288Z" fill="#99C2A2" fillOpacity="0.7"/>
<path fillRule="evenodd" clipRule="evenodd" d="M205.283 154.49L215.616 154.49L220.782 162.42L215.616 170.35L205.283 170.35L200.117 162.42L205.283 154.49Z" fill="#99C2A2" fillOpacity="0.7"/>
<path fillRule="evenodd" clipRule="evenodd" d="M205.622 134.792L215.277 134.792L220.105 142.2L215.277 149.61L205.622 149.61L200.796 142.2L205.622 134.792Z" fill="#99C2A2" fillOpacity="0.7"/>
<path fillRule="evenodd" clipRule="evenodd" d="M206.026 115.19L214.873 115.19L219.299 121.98L214.873 128.772L206.026 128.772L201.602 121.98L206.026 115.19Z" fill="#99C2A2" fillOpacity="0.7"/>
<path fillRule="evenodd" clipRule="evenodd" d="M206.491 95.686L214.408 95.686L218.367 101.762L214.408 107.838L206.491 107.838L202.534 101.762L206.491 95.686Z" fill="#99C2A2" fillOpacity="0.7"/>
<path fillRule="evenodd" clipRule="evenodd" d="M207.044 76.312L213.858 76.312L217.264 81.542L213.858 86.772L207.044 86.772L203.636 81.542L207.044 76.312Z" fill="#99C2A2" fillOpacity="0.7"/>
<path fillRule="evenodd" clipRule="evenodd" d="M207.678 57.068L213.221 57.068L215.993 61.322L213.221 65.576L207.678 65.576L204.906 61.322L207.678 57.068Z" fill="#99C2A2" fillOpacity="0.7"/>
<path fillRule="evenodd" clipRule="evenodd" d="M208.398 37.956L212.501 37.956L214.551 41.102L212.501 44.25L208.398 44.25L206.348 41.102L208.398 37.956Z" fill="#99C2A2" fillOpacity="0.7"/>
<path fillRule="evenodd" clipRule="evenodd" d="M209.204 18.972L211.696 18.972L212.941 20.884L211.696 22.796L209.204 22.796L207.958 20.884L209.204 18.972Z" fill="#99C2A2" fillOpacity="0.7"/>
<path fillRule="evenodd" clipRule="evenodd" d="M210.03 0.0199966L210.869 0.0199966L211.287 0.663997L210.869 1.306L210.03 1.306L209.612 0.663997L210.03 0.0199966Z" fill="#99C2A2" fillOpacity="0.7"/>
<path fillRule="evenodd" clipRule="evenodd" d="M224.768 184.398L235.652 184.398L241.094 192.75L235.652 201.104L224.768 201.104L219.326 192.75L224.768 184.398Z" fill="#99C2A2" fillOpacity="0.7"/>
<path fillRule="evenodd" clipRule="evenodd" d="M225.044 164.6L235.376 164.6L240.543 172.53L235.376 180.46L225.044 180.46L219.877 172.53L225.044 164.6Z" fill="#99C2A2" fillOpacity="0.7"/>
<path fillRule="evenodd" clipRule="evenodd" d="M225.382 144.902L235.038 144.902L239.864 152.31L235.038 159.72L225.382 159.72L220.557 152.31L225.382 144.902Z" fill="#99C2A2" fillOpacity="0.7"/>
<path fillRule="evenodd" clipRule="evenodd" d="M225.784 125.302L234.634 125.302L239.058 132.092L234.634 138.882L225.784 138.882L221.36 132.092L225.784 125.302Z" fill="#99C2A2" fillOpacity="0.7"/>
<path fillRule="evenodd" clipRule="evenodd" d="M226.251 105.798L234.169 105.798L238.125 111.872L234.169 117.948L226.251 117.948L222.295 111.872L226.251 105.798Z" fill="#99C2A2" fillOpacity="0.7"/>
<path fillRule="evenodd" clipRule="evenodd" d="M226.802 86.424L233.618 86.424L237.024 91.652L233.618 96.882L226.802 96.882L223.396 91.652L226.802 86.424Z" fill="#99C2A2" fillOpacity="0.7"/>
<path fillRule="evenodd" clipRule="evenodd" d="M227.438 67.178L232.982 67.178L235.751 71.432L232.982 75.686L227.438 75.686L224.667 71.432L227.438 67.178Z" fill="#99C2A2" fillOpacity="0.7"/>
<path fillRule="evenodd" clipRule="evenodd" d="M228.158 48.066L232.262 48.066L234.311 51.214L232.262 54.36L228.158 54.36L226.107 51.214L228.158 48.066Z" fill="#99C2A2" fillOpacity="0.7"/>
<path fillRule="evenodd" clipRule="evenodd" d="M228.964 29.082L231.456 29.082L232.699 30.994L231.456 32.906L228.964 32.906L227.718 30.994L228.964 29.082Z" fill="#99C2A2" fillOpacity="0.7"/>
<path fillRule="evenodd" clipRule="evenodd" d="M229.79 10.132L230.628 10.132L231.047 10.774L230.628 11.418L229.79 11.418L229.373 10.774L229.79 10.132Z" fill="#99C2A2" fillOpacity="0.7"/>
<path fillRule="evenodd" clipRule="evenodd" d="M244.529 174.288L255.412 174.288L260.856 182.64L255.412 190.992L244.529 190.992L239.087 182.64L244.529 174.288Z" fill="#99C2A2" fillOpacity="0.7"/>
<path fillRule="evenodd" clipRule="evenodd" d="M244.804 154.492L255.137 154.492L260.303 162.422L255.137 170.35L244.804 170.35L239.638 162.422L244.804 154.492Z" fill="#99C2A2" fillOpacity="0.7"/>
<path fillRule="evenodd" clipRule="evenodd" d="M245.145 134.792L254.798 134.792L259.626 142.202L254.798 149.61L245.145 149.61L240.315 142.202L245.145 134.792Z" fill="#99C2A2" fillOpacity="0.7"/>
<path fillRule="evenodd" clipRule="evenodd" d="M245.547 115.19L254.396 115.19L258.82 121.982L254.396 128.772L245.547 128.772L241.121 121.982L245.547 115.19Z" fill="#99C2A2" fillOpacity="0.7"/>
<path fillRule="evenodd" clipRule="evenodd" d="M246.012 95.686L253.929 95.686L257.888 101.762L253.929 107.838L246.012 107.838L242.053 101.762L246.012 95.686Z" fill="#99C2A2" fillOpacity="0.7"/>
<path fillRule="evenodd" clipRule="evenodd" d="M246.562 76.314L253.379 76.314L256.785 81.544L253.379 86.772L246.562 86.772L243.157 81.544L246.562 76.314Z" fill="#99C2A2" fillOpacity="0.7"/>
<path fillRule="evenodd" clipRule="evenodd" d="M247.199 57.07L252.742 57.07L255.514 61.324L252.742 65.576L247.199 65.576L244.43 61.324L247.199 57.07Z" fill="#99C2A2" fillOpacity="0.7"/>
<path fillRule="evenodd" clipRule="evenodd" d="M247.921 37.956L252.022 37.956L254.072 41.104L252.022 44.252L247.921 44.252L245.869 41.104L247.921 37.956Z" fill="#99C2A2" fillOpacity="0.7"/>
<path fillRule="evenodd" clipRule="evenodd" d="M248.725 18.972L251.217 18.972L252.462 20.884L251.217 22.796L248.725 22.796L247.481 20.884L248.725 18.972Z" fill="#99C2A2" fillOpacity="0.7"/>
<path fillRule="evenodd" clipRule="evenodd" d="M249.553 0.0219955L250.39 0.0219955L250.808 0.663996L250.39 1.308L249.553 1.308L249.133 0.663995L249.553 0.0219955Z" fill="#99C2A2" fillOpacity="0.7"/>
<path fillRule="evenodd" clipRule="evenodd" d="M264.289 184.398L275.175 184.398L280.615 192.75L275.175 201.104L264.289 201.104L258.847 192.75L264.289 184.398Z" fill="#99C2A2" fillOpacity="0.7"/>
<path fillRule="evenodd" clipRule="evenodd" d="M264.567 164.6L274.9 164.6L280.066 172.53L274.9 180.46L264.567 180.46L259.398 172.53L264.567 164.6Z" fill="#99C2A2" fillOpacity="0.7"/>
<path fillRule="evenodd" clipRule="evenodd" d="M264.905 144.902L274.559 144.902L279.387 152.31L274.559 159.72L264.905 159.72L260.078 152.31L264.905 144.902Z" fill="#99C2A2" fillOpacity="0.7"/>
<path fillRule="evenodd" clipRule="evenodd" d="M265.307 125.302L274.157 125.302L278.581 132.092L274.157 138.882L265.307 138.882L260.883 132.092L265.307 125.302Z" fill="#99C2A2" fillOpacity="0.7"/>
<path fillRule="evenodd" clipRule="evenodd" d="M265.774 105.798L273.69 105.798L277.649 111.872L273.69 117.948L265.774 117.948L261.815 111.872L265.774 105.798Z" fill="#99C2A2" fillOpacity="0.7"/>
<path fillRule="evenodd" clipRule="evenodd" d="M266.325 86.424L273.139 86.424L276.547 91.652L273.139 96.882L266.325 96.882L262.917 91.652L266.325 86.424Z" fill="#99C2A2" fillOpacity="0.7"/>
<path fillRule="evenodd" clipRule="evenodd" d="M266.962 67.178L272.505 67.178L275.274 71.432L272.505 75.686L266.962 75.686L264.19 71.432L266.962 67.178Z" fill="#99C2A2" fillOpacity="0.7"/>
<path fillRule="evenodd" clipRule="evenodd" d="M267.682 48.066L271.783 48.066L273.834 51.214L271.783 54.36L267.682 54.36L265.63 51.214L267.682 48.066Z" fill="#99C2A2" fillOpacity="0.7"/>
<path fillRule="evenodd" clipRule="evenodd" d="M268.487 29.082L270.977 29.082L272.223 30.994L270.977 32.906L268.487 32.906L267.242 30.994L268.487 29.082Z" fill="#99C2A2" fillOpacity="0.7"/>
<path fillRule="evenodd" clipRule="evenodd" d="M269.313 10.132L270.151 10.132L270.571 10.774L270.151 11.418L269.313 11.418L268.896 10.774L269.313 10.132Z" fill="#99C2A2" fillOpacity="0.7"/>
<path fillRule="evenodd" clipRule="evenodd" d="M284.131 174.266L295.015 174.266L300.456 182.62L295.015 190.972L284.131 190.972L278.689 182.62L284.131 174.266Z" fill="#99C2A2" fillOpacity="0.7"/>
<path fillRule="evenodd" clipRule="evenodd" d="M284.406 154.47L294.739 154.47L299.906 162.4L294.739 170.33L284.406 170.33L279.24 162.4L284.406 154.47Z" fill="#99C2A2" fillOpacity="0.7"/>
<path fillRule="evenodd" clipRule="evenodd" d="M284.745 134.77L294.401 134.77L299.229 142.18L294.401 149.59L284.745 149.59L279.919 142.18L284.745 134.77Z" fill="#99C2A2" fillOpacity="0.7"/>
<path fillRule="evenodd" clipRule="evenodd" d="M285.149 115.17L293.999 115.17L298.423 121.96L293.999 128.752L285.149 128.752L280.723 121.96L285.149 115.17Z" fill="#99C2A2" fillOpacity="0.7"/>
<path fillRule="evenodd" clipRule="evenodd" d="M285.614 95.666L293.532 95.666L297.488 101.742L293.532 107.816L285.614 107.816L281.657 101.742L285.614 95.666Z" fill="#99C2A2" fillOpacity="0.7"/>
<path fillRule="evenodd" clipRule="evenodd" d="M286.165 76.292L292.981 76.292L296.387 81.522L292.981 86.752L286.165 86.752L282.759 81.522L286.165 76.292Z" fill="#99C2A2" fillOpacity="0.7"/>
<path fillRule="evenodd" clipRule="evenodd" d="M286.801 57.048L292.345 57.048L295.116 61.302L292.345 65.556L286.801 65.556L284.03 61.302L286.801 57.048Z" fill="#99C2A2" fillOpacity="0.7"/>
<path fillRule="evenodd" clipRule="evenodd" d="M287.523 37.934L291.624 37.934L293.676 41.082L291.624 44.23L287.523 44.23L285.472 41.082L287.523 37.934Z" fill="#99C2A2" fillOpacity="0.7"/>
<path fillRule="evenodd" clipRule="evenodd" d="M288.327 18.952L290.819 18.952L292.064 20.862L290.819 22.774L288.327 22.774L287.083 20.862L288.327 18.952Z" fill="#99C2A2" fillOpacity="0.7"/>
<path fillRule="evenodd" clipRule="evenodd" d="M289.155 -5.48543e-08L289.993 -1.82518e-08L290.41 0.644L289.993 1.286L289.155 1.286L288.735 0.644L289.155 -5.48543e-08Z" fill="#99C2A2" fillOpacity="0.7"/>
<path fillRule="evenodd" clipRule="evenodd" d="M303.891 184.376L314.777 184.376L320.219 192.728L314.777 201.082L303.891 201.082L298.45 192.728L303.891 184.376Z" fill="#99C2A2" fillOpacity="0.7"/>
<path fillRule="evenodd" clipRule="evenodd" d="M304.169 164.58L314.502 164.58L319.666 172.51L314.502 180.438L304.169 180.438L299 172.51L304.169 164.58Z" fill="#99C2A2" fillOpacity="0.7"/>
<path fillRule="evenodd" clipRule="evenodd" d="M304.508 144.882L314.161 144.882L318.989 152.29L314.161 159.698L304.508 159.698L299.68 152.29L304.508 144.882Z" fill="#99C2A2" fillOpacity="0.7"/>
<path fillRule="evenodd" clipRule="evenodd" d="M304.909 125.28L313.759 125.28L318.183 132.07L313.759 138.862L304.909 138.862L300.486 132.07L304.909 125.28Z" fill="#99C2A2" fillOpacity="0.7"/>
<path fillRule="evenodd" clipRule="evenodd" d="M305.377 105.776L313.292 105.776L317.251 111.85L313.292 117.926L305.377 117.926L301.418 111.85L305.377 105.776Z" fill="#99C2A2" fillOpacity="0.7"/>
<path fillRule="evenodd" clipRule="evenodd" d="M305.927 86.402L312.742 86.402L316.15 91.632L312.742 96.86L305.927 96.86L302.519 91.632L305.927 86.402Z" fill="#99C2A2" fillOpacity="0.7"/>
<path fillRule="evenodd" clipRule="evenodd" d="M306.562 67.158L312.105 67.158L314.877 71.412L312.105 75.666L306.562 75.666L303.79 71.412L306.562 67.158Z" fill="#99C2A2" fillOpacity="0.7"/>
<path fillRule="evenodd" clipRule="evenodd" d="M307.284 48.044L311.385 48.044L313.434 51.192L311.385 54.34L307.284 54.34L305.232 51.192L307.284 48.044Z" fill="#99C2A2" fillOpacity="0.7"/>
<path fillRule="evenodd" clipRule="evenodd" d="M308.09 29.06L310.579 29.06L311.825 30.972L310.579 32.884L308.09 32.884L306.844 30.972L308.09 29.06Z" fill="#99C2A2" fillOpacity="0.7"/>
<path fillRule="evenodd" clipRule="evenodd" d="M308.916 10.11L309.753 10.11L310.173 10.754L309.753 11.396L308.916 11.396L308.496 10.754L308.916 10.11Z" fill="#99C2A2" fillOpacity="0.7"/>
<path fillRule="evenodd" clipRule="evenodd" d="M323.654 174.266L334.538 174.266L339.979 182.62L334.538 190.972L323.654 190.972L318.212 182.62L323.654 174.266Z" fill="#99C2A2" fillOpacity="0.7"/>
<path fillRule="evenodd" clipRule="evenodd" d="M323.93 154.47L334.262 154.47L339.429 162.4L334.262 170.33L323.93 170.33L318.763 162.4L323.93 154.47Z" fill="#99C2A2" fillOpacity="0.7"/>
<path fillRule="evenodd" clipRule="evenodd" d="M324.268 134.77L333.924 134.77L338.75 142.18L333.924 149.59L324.268 149.59L319.44 142.18L324.268 134.77Z" fill="#99C2A2" fillOpacity="0.7"/>
<path fillRule="evenodd" clipRule="evenodd" d="M324.67 115.17L333.52 115.17L337.944 121.96L333.52 128.752L324.67 128.752L320.246 121.96L324.67 115.17Z" fill="#99C2A2" fillOpacity="0.7"/>
<path fillRule="evenodd" clipRule="evenodd" d="M325.137 95.666L333.053 95.666L337.011 101.742L333.053 107.816L325.137 107.816L321.178 101.742L325.137 95.666Z" fill="#99C2A2" fillOpacity="0.7"/>
<path fillRule="evenodd" clipRule="evenodd" d="M325.688 76.292L332.502 76.292L335.91 81.522L332.502 86.752L325.688 86.752L322.28 81.522L325.688 76.292Z" fill="#99C2A2" fillOpacity="0.7"/>
<path fillRule="evenodd" clipRule="evenodd" d="M326.324 57.048L331.868 57.048L334.637 61.302L331.868 65.556L326.324 65.556L323.553 61.302L326.324 57.048Z" fill="#99C2A2" fillOpacity="0.7"/>
<path fillRule="evenodd" clipRule="evenodd" d="M327.044 37.934L331.148 37.934L333.197 41.082L331.145 44.23L327.044 44.23L324.995 41.082L327.044 37.934Z" fill="#99C2A2" fillOpacity="0.7"/>
<path fillRule="evenodd" clipRule="evenodd" d="M327.85 18.952L330.342 18.952L331.585 20.862L330.342 22.774L327.85 22.774L326.604 20.862L327.85 18.952Z" fill="#99C2A2" fillOpacity="0.7"/>
<path fillRule="evenodd" clipRule="evenodd" d="M328.676 -5.4953e-08L329.514 -1.83505e-08L329.933 0.644L329.514 1.286L328.676 1.286L328.259 0.644L328.676 -5.4953e-08Z" fill="#99C2A2" fillOpacity="0.7"/>
<path fillRule="evenodd" clipRule="evenodd" d="M343.415 184.376L354.298 184.376L359.742 192.728L354.298 201.082L343.415 201.082L337.973 192.728L343.415 184.376Z" fill="#99C2A2" fillOpacity="0.7"/>
<path fillRule="evenodd" clipRule="evenodd" d="M343.69 164.58L354.023 164.58L359.189 172.51L354.023 180.438L343.69 180.438L338.524 172.51L343.69 164.58Z" fill="#99C2A2" fillOpacity="0.7"/>
<path fillRule="evenodd" clipRule="evenodd" d="M344.029 144.882L353.684 144.882L358.512 152.29L353.684 159.698L344.029 159.698L339.201 152.29L344.029 144.882Z" fill="#99C2A2" fillOpacity="0.7"/>
<path fillRule="evenodd" clipRule="evenodd" d="M344.433 125.28L353.283 125.28L357.707 132.07L353.283 138.862L344.433 138.862L340.007 132.07L344.433 125.28Z" fill="#99C2A2" fillOpacity="0.7"/>
<path fillRule="evenodd" clipRule="evenodd" d="M344.898 105.776L352.815 105.776L356.774 111.85L352.815 117.926L344.898 117.926L340.939 111.85L344.898 105.776Z" fill="#99C2A2" fillOpacity="0.7"/>
<path fillRule="evenodd" clipRule="evenodd" d="M345.448 86.402L352.263 86.402L355.671 91.632L352.263 96.86L345.448 96.86L342.043 91.632L345.448 86.402Z" fill="#99C2A2" fillOpacity="0.7"/>
<path fillRule="evenodd" clipRule="evenodd" d="M346.085 67.158L351.628 67.158L354.4 71.412L351.628 75.666L346.085 75.666L343.313 71.412L346.085 67.158Z" fill="#99C2A2" fillOpacity="0.7"/>
<path fillRule="evenodd" clipRule="evenodd" d="M346.807 48.044L350.908 48.044L352.958 51.192L350.908 54.34L346.807 54.34L344.755 51.192L346.807 48.044Z" fill="#99C2A2" fillOpacity="0.7"/>
<path fillRule="evenodd" clipRule="evenodd" d="M347.611 29.06L350.102 29.06L351.348 30.972L350.102 32.884L347.611 32.884L346.367 30.972L347.611 29.06Z" fill="#99C2A2" fillOpacity="0.7"/>
<path fillRule="evenodd" clipRule="evenodd" d="M348.439 10.11L349.276 10.11L349.694 10.754L349.276 11.396L348.439 11.396L348.019 10.754L348.439 10.11Z" fill="#99C2A2" fillOpacity="0.7"/>
<path fillRule="evenodd" clipRule="evenodd" d="M7.15911 174.352L18.0426 174.352L23.4844 182.704L18.0426 191.056L7.1591 191.056L1.71736 182.704L7.15911 174.352Z" fill="#99C2A2" fillOpacity="0.7"/>
<path fillRule="evenodd" clipRule="evenodd" d="M7.4344 154.554L17.7672 154.554L22.9336 162.484L17.7672 170.414L7.4344 170.414L2.26804 162.484L7.4344 154.554Z" fill="#99C2A2" fillOpacity="0.7"/>
<path fillRule="evenodd" clipRule="evenodd" d="M7.77314 134.856L17.4265 134.856L22.2544 142.264L17.4265 149.674L7.77314 149.674L2.94305 142.264L7.77314 134.856Z" fill="#99C2A2" fillOpacity="0.7"/>
<path fillRule="evenodd" clipRule="evenodd" d="M8.17452 115.254L17.0244 115.254L21.4482 122.046L17.0244 128.836L8.17452 128.836L3.75071 122.046L8.17452 115.254Z" fill="#99C2A2" fillOpacity="0.7"/>
<path fillRule="evenodd" clipRule="evenodd" d="M8.64175 95.75L16.5572 95.75L20.5161 101.826L16.5572 107.9L8.64175 107.9L4.68289 101.826L8.64175 95.75Z" fill="#99C2A2" fillOpacity="0.7"/>
<path fillRule="evenodd" clipRule="evenodd" d="M9.19266 76.376L16.0067 76.376L19.4126 81.606L16.0067 86.836L9.19266 86.836L5.78452 81.606L9.19266 76.376Z" fill="#99C2A2" fillOpacity="0.7"/>
<path fillRule="evenodd" clipRule="evenodd" d="M9.82664 57.134L15.3699 57.134L18.1416 61.386L15.3699 65.64L9.82664 65.64L7.05722 61.386L9.82664 57.134Z" fill="#99C2A2" fillOpacity="0.7"/>
<path fillRule="evenodd" clipRule="evenodd" d="M10.5492 38.02L14.6503 38.02L16.6997 41.168L14.6503 44.314L10.5492 44.314L8.49757 41.168L10.5492 38.02Z" fill="#99C2A2" fillOpacity="0.7"/>
<path fillRule="evenodd" clipRule="evenodd" d="M11.3549 19.036L13.8467 19.036L15.0903 20.948L13.8467 22.858L11.3549 22.858L10.109 20.948L11.3549 19.036Z" fill="#99C2A2" fillOpacity="0.7"/>
<path fillRule="evenodd" clipRule="evenodd" d="M12.1808 0.0859832L13.0182 0.0859833L13.438 0.727983L13.0182 1.36998L12.1808 1.36998L11.7633 0.727983L12.1808 0.0859832Z" fill="#99C2A2" fillOpacity="0.7"/>
<path fillRule="evenodd" clipRule="evenodd" d="M26.9194 184.462L37.8028 184.462L43.2446 192.814L37.8028 201.166L26.9194 201.166L21.4753 192.814L26.9194 184.462Z" fill="#99C2A2" fillOpacity="0.7"/>
<path fillRule="evenodd" clipRule="evenodd" d="M27.1947 164.664L37.5274 164.664L42.6938 172.594L37.5274 180.524L27.1947 180.524L22.0283 172.594L27.1947 164.664Z" fill="#99C2A2" fillOpacity="0.7"/>
<path fillRule="evenodd" clipRule="evenodd" d="M27.5334 144.966L37.1868 144.966L42.0146 152.374L37.1868 159.784L27.5334 159.784L22.7055 152.374L27.5334 144.966Z" fill="#99C2A2" fillOpacity="0.7"/>
<path fillRule="evenodd" clipRule="evenodd" d="M27.9372 125.364L36.7871 125.364L41.2109 132.154L36.7871 138.946L27.9372 138.946L23.5111 132.154L27.9372 125.364Z" fill="#99C2A2" fillOpacity="0.7"/>
<path fillRule="evenodd" clipRule="evenodd" d="M28.4025 105.86L36.3202 105.86L40.2769 111.936L36.3202 118.01L28.4025 118.01L24.4436 111.936L28.4025 105.86Z" fill="#99C2A2" fillOpacity="0.7"/>
<path fillRule="evenodd" clipRule="evenodd" d="M28.9531 86.486L35.7672 86.486L39.1753 91.716L35.7672 96.946L28.9531 96.946L25.5449 91.716L28.9531 86.486Z" fill="#99C2A2" fillOpacity="0.7"/>
<path fillRule="evenodd" clipRule="evenodd" d="M29.5898 67.242L35.1309 67.242L37.9048 71.496L35.1309 75.75L29.5898 75.75L26.8182 71.496L29.5898 67.242Z" fill="#99C2A2" fillOpacity="0.7"/>
<path fillRule="evenodd" clipRule="evenodd" d="M30.3097 48.13L34.413 48.13L36.4624 51.276L34.413 54.424L30.3097 54.424L28.258 51.276L30.3097 48.13Z" fill="#99C2A2" fillOpacity="0.7"/>
<path fillRule="evenodd" clipRule="evenodd" d="M31.1152 29.146L33.6047 29.146L34.8506 31.056L33.6047 32.968L31.1152 32.968L29.8693 31.056L31.1152 29.146Z" fill="#99C2A2" fillOpacity="0.7"/>
<path fillRule="evenodd" clipRule="evenodd" d="M31.9415 10.194L32.7789 10.194L33.1987 10.838L32.7789 11.48L31.9415 11.48L31.524 10.838L31.9415 10.194Z" fill="#99C2A2" fillOpacity="0.7"/>
<path fillRule="evenodd" clipRule="evenodd" d="M46.7612 174.33L57.6424 174.33L63.0864 182.682L57.6424 191.034L46.7612 191.034L41.3172 182.682L46.7612 174.33Z" fill="#99C2A2" fillOpacity="0.7"/>
<path fillRule="evenodd" clipRule="evenodd" d="M47.0365 154.534L57.3692 154.534L62.5356 162.464L57.3692 170.392L47.0364 170.392L41.8701 162.464L47.0365 154.534Z" fill="#99C2A2" fillOpacity="0.7"/>
<path fillRule="evenodd" clipRule="evenodd" d="M47.3729 134.834L57.0286 134.834L61.8564 142.244L57.0286 149.652L47.3729 149.652L42.5451 142.244L47.3729 134.834Z" fill="#99C2A2" fillOpacity="0.7"/>
<path fillRule="evenodd" clipRule="evenodd" d="M47.7767 115.232L56.6267 115.232L61.0527 122.024L56.6267 128.814L47.7767 128.814L43.3529 122.024L47.7767 115.232Z" fill="#99C2A2" fillOpacity="0.7"/>
<path fillRule="evenodd" clipRule="evenodd" d="M48.2443 95.728L56.162 95.728L60.1187 101.804L56.162 107.88L48.2443 107.88L44.2854 101.804L48.2443 95.728Z" fill="#99C2A2" fillOpacity="0.7"/>
<path fillRule="evenodd" clipRule="evenodd" d="M48.7947 76.356L55.6042 76.356L59.0146 81.584L55.6042 86.814L48.7947 86.814L45.3865 81.584L48.7947 76.356Z" fill="#99C2A2" fillOpacity="0.7"/>
<path fillRule="evenodd" clipRule="evenodd" d="M49.4291 57.112L54.9725 57.112L57.7441 61.366L54.9725 65.618L49.4291 65.618L46.6598 61.366L49.4291 57.112Z" fill="#99C2A2" fillOpacity="0.7"/>
<path fillRule="evenodd" clipRule="evenodd" d="M50.1492 37.998L54.2525 37.998L56.3042 41.146L54.2525 44.294L50.1492 44.294L48.0998 41.146L50.1492 37.998Z" fill="#99C2A2" fillOpacity="0.7"/>
<path fillRule="evenodd" clipRule="evenodd" d="M50.957 19.014L53.4465 19.014L54.6924 20.926L53.4465 22.838L50.957 22.838L49.7111 20.926L50.957 19.014Z" fill="#99C2A2" fillOpacity="0.7"/>
<path fillRule="evenodd" clipRule="evenodd" d="M51.7833 0.0639877L52.6207 0.0639877L53.0405 0.705988L52.6207 1.34799L51.7833 1.34799L51.3658 0.705988L51.7833 0.0639877Z" fill="#99C2A2" fillOpacity="0.7"/>
</g>
<defs>
<clipPath id="clip0_241_9111">
<rect width="437" height="360" fill="white" transform="translate(360) rotate(90)"/>
</clipPath>
</defs>
</svg>
