<?xml version="1.0" encoding="UTF-8" standalone="no"?><!DOCTYPE svg PUBLIC "-//W3C//DTD SVG 1.1//EN" "http://www.w3.org/Graphics/SVG/1.1/DTD/svg11.dtd"><svg width="100%" height="100%" viewBox="0 0 5949 4387" version="1.1" xmlns="http://www.w3.org/2000/svg" xmlns:xlink="http://www.w3.org/1999/xlink" xml:space="preserve" xmlns:serif="http://www.serif.com/" style="fill-rule:evenodd;clip-rule:evenodd;stroke-linejoin:round;stroke-miterlimit:2;"><g><clipPath id="_clip1"><rect x="-37.8" y="0" width="6000" height="6100"/></clipPath><g clip-path="url(#_clip1)"><path d="M4704.99,2447.18l147.458,0l73.708,94.775l-73.708,94.834l-147.458,-0l-73.792,-94.834l73.792,-94.775Z" style="fill:#99c2a2;fill-opacity:0.7;"/><path d="M4712.74,2739.42l131.916,-0l66,84.791l-66,84.834l-131.916,-0l-66,-84.834l66,-84.791Z" style="fill:#99c2a2;fill-opacity:0.7;"/><path d="M4721.91,3033.46l113.584,0l56.791,73l-56.791,72.959l-113.584,-0l-56.791,-72.959l56.791,-73Z" style="fill:#99c2a2;fill-opacity:0.7;"/><path d="M4732.53,3329.29l92.375,-0l46.209,59.416l-46.209,59.375l-92.375,0l-46.208,-59.375l46.208,-59.416Z" style="fill:#99c2a2;fill-opacity:0.7;"/><path d="M4744.53,3627l68.375,0l34.167,43.917l-34.167,43.958l-68.375,0l-34.166,-43.958l34.166,-43.917Z" style="fill:#99c2a2;fill-opacity:0.7;"/><path d="M4757.95,3926.5l41.542,0l20.75,26.667l-20.75,26.666l-41.542,0l-20.75,-26.666l20.75,-26.667Z" style="fill:#99c2a2;fill-opacity:0.7;"/><path d="M4771.7,4226.42l14,-0l6.958,9l-6.958,8.958l-14,0l-6.958,-8.958l6.958,-9Z" style="fill:#99c2a2;fill-opacity:0.7;"/><path d="M4375.62,2588.29l147.5,-0l73.708,94.791l-73.708,94.834l-147.5,-0l-73.75,-94.834l73.75,-94.791Z" style="fill:#99c2a2;fill-opacity:0.7;"/><path d="M4383.41,2880.54l131.959,-0l65.916,84.791l-65.916,84.834l-131.959,-0l-66,-84.834l66,-84.791Z" style="fill:#99c2a2;fill-opacity:0.7;"/><path d="M4392.57,3174.58l113.542,0l56.833,73l-56.833,72.959l-113.542,-0l-56.792,-72.959l56.792,-73Z" style="fill:#99c2a2;fill-opacity:0.7;"/><path d="M4403.16,3470.42l92.375,-0l46.209,59.375l-46.209,59.375l-92.375,-0l-46.166,-59.375l46.166,-59.375Z" style="fill:#99c2a2;fill-opacity:0.7;"/><path d="M4415.16,3768.12l68.375,0l34.209,43.958l-34.209,43.917l-68.375,0l-34.166,-43.917l34.166,-43.958Z" style="fill:#99c2a2;fill-opacity:0.7;"/><path d="M4428.62,4067.62l41.5,0l20.75,26.667l-20.75,26.708l-41.5,0l-20.792,-26.708l20.792,-26.667Z" style="fill:#99c2a2;fill-opacity:0.7;"/><path d="M4442.37,4367.54l13.958,-0l7,8.958l-7,9.042l-13.958,-0l-6.959,-9.042l6.959,-8.958Z" style="fill:#99c2a2;fill-opacity:0.7;"/><path d="M4046.26,2447.18l147.48,0l73.75,94.775l-73.75,94.834l-147.48,-0l-73.766,-94.834l73.766,-94.775Z" style="fill:#99c2a2;fill-opacity:0.7;"/><path d="M4054.01,2739.42l131.98,-0l65.958,84.791l-65.958,84.834l-131.98,-0l-65.945,-84.834l65.945,-84.791Z" style="fill:#99c2a2;fill-opacity:0.7;"/><path d="M4063.19,3033.46l113.591,0l56.792,73l-56.792,72.959l-113.591,-0l-56.767,-72.959l56.767,-73Z" style="fill:#99c2a2;fill-opacity:0.7;"/><path d="M4073.8,3329.29l92.4,-0l46.167,59.416l-46.167,59.375l-92.4,0l-46.196,-59.375l46.196,-59.416Z" style="fill:#99c2a2;fill-opacity:0.7;"/><path d="M4085.84,3627l68.363,0l34.167,43.917l-34.167,43.958l-68.363,0l-34.195,-43.958l34.195,-43.917Z" style="fill:#99c2a2;fill-opacity:0.7;"/><path d="M4099.23,3926.5l41.513,0l20.791,26.667l-20.791,26.666l-41.513,0l-20.729,-26.666l20.729,-26.667Z" style="fill:#99c2a2;fill-opacity:0.7;"/><path d="M4113.03,4226.42l13.959,-0l6.958,9l-6.958,8.958l-13.959,0l-6.996,-8.958l6.996,-9Z" style="fill:#99c2a2;fill-opacity:0.7;"/><path d="M3715.57,2588.58l147.5,0l73.729,94.792l-73.729,94.792l-147.5,-0l-73.73,-94.792l73.73,-94.792Z" style="fill:#99c2a2;fill-opacity:0.7;"/><path d="M3723.35,2880.83l131.925,0l65.979,84.792l-65.979,84.792l-131.925,-0l-65.983,-84.792l65.983,-84.792Z" style="fill:#99c2a2;fill-opacity:0.7;"/><path d="M3732.53,3174.88l113.567,0l56.804,73l-56.804,73l-113.567,0l-56.804,-73l56.804,-73Z" style="fill:#99c2a2;fill-opacity:0.7;"/><path d="M3743.14,3470.71l92.35,0l46.195,59.417l-46.195,59.375l-92.35,0l-46.196,-59.375l46.196,-59.417Z" style="fill:#99c2a2;fill-opacity:0.7;"/><path d="M3755.14,3768.42l68.35,-0l34.195,43.916l-34.195,43.959l-68.35,-0l-34.196,-43.959l34.196,-43.916Z" style="fill:#99c2a2;fill-opacity:0.7;"/><path d="M3768.57,4067.92l41.529,-0l20.725,26.666l-20.725,26.667l-41.529,0l-20.767,-26.667l20.767,-26.666Z" style="fill:#99c2a2;fill-opacity:0.7;"/><path d="M3782.34,4367.88l13.959,0l6.996,8.958l-6.996,8.959l-13.959,-0l-6.958,-8.959l6.958,-8.958Z" style="fill:#99c2a2;fill-opacity:0.7;"/><path d="M3386.22,2447.49l147.5,-0l73.729,94.762l-73.729,94.833l-147.5,0l-73.767,-94.833l73.767,-94.762Z" style="fill:#99c2a2;fill-opacity:0.7;"/><path d="M3393.97,2739.71l131.962,0l65.98,84.792l-65.98,84.792l-131.962,-0l-65.946,-84.792l65.946,-84.792Z" style="fill:#99c2a2;fill-opacity:0.7;"/><path d="M3403.19,3033.75l113.566,0l56.767,73l-56.767,72.958l-113.566,0l-56.805,-72.958l56.805,-73Z" style="fill:#99c2a2;fill-opacity:0.7;"/><path d="M3413.76,3329.58l92.388,0l46.196,59.417l-46.196,59.375l-92.388,0l-46.195,-59.375l46.195,-59.417Z" style="fill:#99c2a2;fill-opacity:0.7;"/><path d="M3425.8,3627.29l68.35,-0l34.158,43.958l-34.158,43.917l-68.35,-0l-34.196,-43.917l34.196,-43.958Z" style="fill:#99c2a2;fill-opacity:0.7;"/><path d="M3439.23,3926.79l41.492,-0l20.762,26.666l-20.762,26.667l-41.492,0l-20.767,-26.667l20.767,-26.666Z" style="fill:#99c2a2;fill-opacity:0.7;"/><path d="M3453,4226.75l13.958,0l6.958,8.958l-6.958,9l-13.958,0l-6.996,-9l6.996,-8.958Z" style="fill:#99c2a2;fill-opacity:0.7;"/><path d="M3056.88,2588.58l147.463,0l73.766,94.792l-73.766,94.792l-147.463,-0l-73.766,-94.792l73.766,-94.792Z" style="fill:#99c2a2;fill-opacity:0.7;"/><path d="M3064.63,2880.83l131.963,0l65.941,84.792l-65.941,84.792l-131.963,-0l-65.983,-84.792l65.983,-84.792Z" style="fill:#99c2a2;fill-opacity:0.7;"/><path d="M3073.81,3174.88l113.605,0l56.766,73l-56.766,73l-113.605,0l-56.766,-73l56.766,-73Z" style="fill:#99c2a2;fill-opacity:0.7;"/><path d="M3084.42,3470.71l92.387,0l46.196,59.417l-46.196,59.375l-92.387,0l-46.196,-59.375l46.196,-59.417Z" style="fill:#99c2a2;fill-opacity:0.7;"/><path d="M3096.42,3768.42l68.387,-0l34.154,43.916l-34.154,43.959l-68.387,-0l-34.159,-43.959l34.159,-43.916Z" style="fill:#99c2a2;fill-opacity:0.7;"/><path d="M3109.85,4067.92l41.529,-0l20.763,26.666l-20.763,26.667l-41.529,0l-20.729,-26.667l20.729,-26.666Z" style="fill:#99c2a2;fill-opacity:0.7;"/><path d="M3123.62,4367.88l13.995,0l6.959,8.958l-6.959,8.959l-13.995,-0l-6.959,-8.959l6.959,-8.958Z" style="fill:#99c2a2;fill-opacity:0.7;"/><path d="M2727.54,2447.49l147.462,-0l73.767,94.762l-73.767,94.833l-147.462,0l-73.767,-94.833l73.767,-94.762Z" style="fill:#99c2a2;fill-opacity:0.7;"/><path d="M2735.29,2739.71l131.962,0l65.942,84.792l-65.942,84.792l-131.962,-0l-65.984,-84.792l65.984,-84.792Z" style="fill:#99c2a2;fill-opacity:0.7;"/><path d="M2744.47,3033.75l113.566,0l56.805,73l-56.805,72.958l-113.566,0l-56.804,-72.958l56.804,-73Z" style="fill:#99c2a2;fill-opacity:0.7;"/><path d="M2755.08,3329.58l92.35,0l46.233,59.417l-46.233,59.375l-92.35,0l-46.196,-59.375l46.196,-59.417Z" style="fill:#99c2a2;fill-opacity:0.7;"/><path d="M2767.08,3627.29l68.35,-0l34.196,43.958l-34.196,43.917l-68.35,-0l-34.196,-43.917l34.196,-43.958Z" style="fill:#99c2a2;fill-opacity:0.7;"/><path d="M2780.51,3926.79l41.492,-0l20.762,26.666l-20.762,26.667l-41.492,0l-20.766,-26.667l20.766,-26.666Z" style="fill:#99c2a2;fill-opacity:0.7;"/><path d="M2794.28,4226.75l13.958,0l6.996,8.958l-6.996,9l-13.958,0l-6.958,-9l6.958,-8.958Z" style="fill:#99c2a2;fill-opacity:0.7;"/><path d="M2396.85,2588.88l147.5,0l73.691,94.833l-73.691,94.792l-147.5,0l-73.729,-94.792l73.729,-94.833Z" style="fill:#99c2a2;fill-opacity:0.7;"/><path d="M2404.63,2881.12l131.888,0l65.979,84.792l-65.979,84.833l-131.888,0l-65.983,-84.833l65.983,-84.792Z" style="fill:#99c2a2;fill-opacity:0.7;"/><path d="M2413.81,3175.12l113.53,0l56.8,73.042l-56.8,73l-113.53,-0l-56.804,-73l56.804,-73.042Z" style="fill:#99c2a2;fill-opacity:0.7;"/><path d="M2424.38,3471.04l92.388,-0l46.196,59.375l-46.196,59.375l-92.388,-0l-46.158,-59.375l46.158,-59.375Z" style="fill:#99c2a2;fill-opacity:0.7;"/><path d="M2436.38,3768.71l68.388,0l34.158,43.917l-34.158,43.958l-68.388,0l-34.158,-43.958l34.158,-43.917Z" style="fill:#99c2a2;fill-opacity:0.7;"/><path d="M2449.81,4068.21l41.492,0l20.767,26.709l-20.767,26.666l-41.492,0l-20.766,-26.666l20.766,-26.709Z" style="fill:#99c2a2;fill-opacity:0.7;"/><path d="M2463.58,4368.17l13.958,-0l6.996,8.958l-6.996,8.958l-13.958,0l-6.996,-8.958l6.996,-8.958Z" style="fill:#99c2a2;fill-opacity:0.7;"/><path d="M2067.5,2447.74l147.5,-0l73.729,94.8l-73.729,94.833l-147.5,0l-73.729,-94.833l73.729,-94.8Z" style="fill:#99c2a2;fill-opacity:0.7;"/><path d="M2075.29,2740l131.925,0l65.979,84.792l-65.979,84.791l-131.925,0l-65.984,-84.791l65.984,-84.792Z" style="fill:#99c2a2;fill-opacity:0.7;"/><path d="M2084.47,3034.04l113.529,-0l56.804,73l-56.804,72.958l-113.529,0l-56.804,-72.958l56.804,-73Z" style="fill:#99c2a2;fill-opacity:0.7;"/><path d="M2095.04,3329.88l92.387,0l46.196,59.375l-46.196,59.375l-92.387,0l-46.159,-59.375l46.159,-59.375Z" style="fill:#99c2a2;fill-opacity:0.7;"/><path d="M2107.08,3627.58l68.35,0l34.158,43.917l-34.158,43.958l-68.35,0l-34.196,-43.958l34.196,-43.917Z" style="fill:#99c2a2;fill-opacity:0.7;"/><path d="M2120.47,3927.08l41.529,0l20.767,26.667l-20.767,26.708l-41.529,0l-20.729,-26.708l20.729,-26.667Z" style="fill:#99c2a2;fill-opacity:0.7;"/><path d="M2134.28,4227l13.921,0l7.033,9l-6.996,8.958l-13.996,0l-6.92,-8.958l6.958,-9Z" style="fill:#99c2a2;fill-opacity:0.7;"/><path d="M1738.16,2588.88l147.463,0l73.767,94.792l-73.767,94.791l-147.463,0l-73.766,-94.791l73.766,-94.792Z" style="fill:#99c2a2;fill-opacity:0.7;"/><path d="M1745.91,2881.12l131.963,0l65.979,84.792l-65.979,84.791l-131.963,0l-65.983,-84.791l65.983,-84.792Z" style="fill:#99c2a2;fill-opacity:0.7;"/><path d="M1755.13,3175.12l113.567,0l56.804,73l-56.804,73.042l-113.567,-0l-56.804,-73.042l56.804,-73Z" style="fill:#99c2a2;fill-opacity:0.7;"/><path d="M1765.74,3471.04l92.35,-0l46.196,59.375l-46.196,59.333l-92.35,0l-46.233,-59.333l46.233,-59.375Z" style="fill:#99c2a2;fill-opacity:0.7;"/><path d="M1777.74,3768.71l68.35,0l34.196,43.917l-34.196,43.958l-68.35,0l-34.195,-43.958l34.195,-43.917Z" style="fill:#99c2a2;fill-opacity:0.7;"/><path d="M1791.17,4068.21l41.491,0l20.767,26.667l-20.767,26.708l-41.491,0l-20.767,-26.708l20.767,-26.667Z" style="fill:#99c2a2;fill-opacity:0.7;"/><path d="M1804.93,4368.17l13.959,-0l6.958,8.958l-6.958,8.958l-13.959,0l-6.996,-8.958l6.996,-8.958Z" style="fill:#99c2a2;fill-opacity:0.7;"/><path d="M1408.78,2447.74l147.5,-0l73.729,94.8l-73.729,94.833l-147.5,0l-73.691,-94.833l73.691,-94.8Z" style="fill:#99c2a2;fill-opacity:0.7;"/><path d="M1416.61,2740l131.925,0l65.942,84.792l-65.942,84.791l-131.925,0l-65.983,-84.791l65.983,-84.792Z" style="fill:#99c2a2;fill-opacity:0.7;"/><path d="M1425.79,3034.04l113.53,-0l56.804,73l-56.804,72.958l-113.53,0l-56.804,-72.958l56.804,-73Z" style="fill:#99c2a2;fill-opacity:0.7;"/><path d="M1436.36,3329.88l92.388,0l46.158,59.375l-46.158,59.375l-92.388,0l-46.196,-59.375l46.196,-59.375Z" style="fill:#99c2a2;fill-opacity:0.7;"/><path d="M1448.36,3627.58l68.388,0l34.158,43.917l-34.158,43.958l-68.388,0l-34.158,-43.958l34.158,-43.917Z" style="fill:#99c2a2;fill-opacity:0.7;"/><path d="M1461.83,3927.08l41.492,0l20.762,26.667l-20.762,26.708l-41.492,0l-20.767,-26.708l20.767,-26.667Z" style="fill:#99c2a2;fill-opacity:0.7;"/><path d="M1475.59,4227l13.958,0l6.996,9l-6.996,8.958l-13.958,0l-6.996,-8.958l6.996,-9Z" style="fill:#99c2a2;fill-opacity:0.7;"/><path d="M1078.12,2589.17l147.462,-0l73.767,94.791l-73.767,94.792l-147.462,0l-73.767,-94.792l73.767,-94.791Z" style="fill:#99c2a2;fill-opacity:0.7;"/><path d="M1085.88,2881.42l131.962,-0l65.98,84.791l-65.98,84.792l-131.962,0l-65.946,-84.792l65.946,-84.791Z" style="fill:#99c2a2;fill-opacity:0.7;"/><path d="M1095.09,3175.46l113.566,0l56.8,72.959l-56.8,73.041l-113.566,0l-56.805,-73.041l56.805,-72.959Z" style="fill:#99c2a2;fill-opacity:0.7;"/><path d="M1105.7,3471.33l92.35,0l46.196,59.375l-46.196,59.334l-92.35,-0l-46.233,-59.334l46.233,-59.375Z" style="fill:#99c2a2;fill-opacity:0.7;"/><path d="M1117.7,3769l68.35,0l34.196,43.958l-34.196,43.917l-68.35,0l-34.196,-43.917l34.196,-43.958Z" style="fill:#99c2a2;fill-opacity:0.7;"/><path d="M1131.13,4068.5l41.492,0l20.762,26.667l-20.762,26.666l-41.492,0l-20.767,-26.666l20.767,-26.667Z" style="fill:#99c2a2;fill-opacity:0.7;"/><path d="M1144.9,4368.46l13.958,0l6.958,8.959l-6.958,9l-13.958,-0l-6.996,-9l6.996,-8.959Z" style="fill:#99c2a2;fill-opacity:0.7;"/><path d="M748.783,2448.05l147.425,0l73.767,94.825l-73.767,94.75l-147.425,0l-73.729,-94.75l73.729,-94.825Z" style="fill:#99c2a2;fill-opacity:0.7;"/><path d="M756.571,2740.29l131.85,-0l65.979,84.791l-65.979,84.792l-131.85,0l-65.984,-84.792l65.984,-84.791Z" style="fill:#99c2a2;fill-opacity:0.7;"/><path d="M765.75,3034.33l113.529,0l56.804,73l-56.804,72.959l-113.529,-0l-56.804,-72.959l56.804,-73Z" style="fill:#99c2a2;fill-opacity:0.7;"/><path d="M776.321,3330.21l92.387,0l46.196,59.375l-46.196,59.375l-92.387,0l-46.196,-59.375l46.196,-59.375Z" style="fill:#99c2a2;fill-opacity:0.7;"/><path d="M788.321,3627.88l68.387,0l34.159,43.958l-34.159,43.917l-68.387,0l-34.159,-43.917l34.159,-43.958Z" style="fill:#99c2a2;fill-opacity:0.7;"/><path d="M801.787,3927.38l41.492,0l20.725,26.708l-20.725,26.667l-41.492,0l-20.766,-26.667l20.766,-26.708Z" style="fill:#99c2a2;fill-opacity:0.7;"/><path d="M815.554,4227.33l13.958,0l6.996,9l-6.996,8.959l-13.958,-0l-6.996,-8.959l6.996,-9Z" style="fill:#99c2a2;fill-opacity:0.7;"/><path d="M412.708,2298.33l160.892,0l80.462,103.404l-80.462,103.392l-160.892,0l-80.463,-103.392l80.463,-103.404Z" style="fill:#99c2a2;fill-opacity:0.7;"/><path d="M419.442,2589.17l147.5,-0l73.729,94.791l-73.729,94.792l-147.5,0l-73.768,-94.792l73.768,-94.791Z" style="fill:#99c2a2;fill-opacity:0.7;"/><path d="M427.192,2881.42l131.962,-0l65.942,84.791l-65.942,84.792l-131.962,0l-65.982,-84.792l65.982,-84.791Z" style="fill:#99c2a2;fill-opacity:0.7;"/><path d="M436.371,3175.46l113.566,0l56.805,72.959l-56.805,73.041l-113.566,0l-56.767,-73.041l56.767,-72.959Z" style="fill:#99c2a2;fill-opacity:0.7;"/><path d="M446.979,3471.33l92.35,0l46.233,59.375l-46.233,59.334l-92.35,-0l-46.196,-59.334l46.196,-59.375Z" style="fill:#99c2a2;fill-opacity:0.7;"/><path d="M458.979,3769l68.388,0l34.158,43.958l-34.158,43.917l-68.388,0l-34.196,-43.917l34.196,-43.958Z" style="fill:#99c2a2;fill-opacity:0.7;"/><path d="M472.408,4068.5l41.492,0l20.762,26.667l-20.762,26.666l-41.492,0l-20.766,-26.666l20.766,-26.667Z" style="fill:#99c2a2;fill-opacity:0.7;"/><path d="M486.175,4368.46l13.958,0l6.996,8.959l-6.996,9l-13.958,-0l-6.958,-9l6.958,-8.959Z" style="fill:#99c2a2;fill-opacity:0.7;"/><path d="M90.062,2448.05l147.499,0l73.768,94.825l-73.768,94.75l-147.499,0l-73.73,-94.75l73.73,-94.825Z" style="fill:#99c2a2;fill-opacity:0.7;"/><path d="M97.85,2740.29l131.962,-0l65.943,84.791l-65.943,84.792l-131.963,0l-65.98,-84.792l65.98,-84.791Z" style="fill:#99c2a2;fill-opacity:0.7;"/><path d="M107.029,3034.33l113.605,0l56.726,73l-56.726,72.959l-113.605,-0l-56.803,-72.959l56.803,-73Z" style="fill:#99c2a2;fill-opacity:0.7;"/><path d="M117.599,3330.21l92.388,0l46.195,59.375l-46.195,59.375l-92.388,0l-46.157,-59.375l46.157,-59.375Z" style="fill:#99c2a2;fill-opacity:0.7;"/><path d="M129.636,3627.88l68.351,0l34.157,43.958l-34.157,43.917l-68.351,0l-34.194,-43.917l34.194,-43.958Z" style="fill:#99c2a2;fill-opacity:0.7;"/><path d="M143.066,3927.38l41.53,0l20.727,26.708l-20.727,26.667l-41.53,0l-20.764,-26.667l20.764,-26.708Z" style="fill:#99c2a2;fill-opacity:0.7;"/><path d="M156.834,4227.33l13.956,0l6.997,9l-6.997,8.959l-13.956,-0l-6.959,-8.959l6.959,-9Z" style="fill:#99c2a2;fill-opacity:0.7;"/><path d="M5694.37,2588l147.458,0l73.75,94.792l-73.75,94.791l-147.458,0l-73.792,-94.791l73.792,-94.792Z" style="fill:#99c2a2;fill-opacity:0.7;"/><path d="M5702.12,2880.25l131.958,0l66,84.792l-66,84.791l-131.958,0l-66,-84.791l66,-84.792Z" style="fill:#99c2a2;fill-opacity:0.7;"/><path d="M5711.28,3174.25l113.584,0l56.791,73.042l-56.791,72.958l-113.584,0l-56.75,-72.958l56.75,-73.042Z" style="fill:#99c2a2;fill-opacity:0.7;"/><path d="M5721.91,3470.12l92.375,0l46.209,59.417l-46.209,59.375l-92.375,-0l-46.208,-59.375l46.208,-59.417Z" style="fill:#99c2a2;fill-opacity:0.7;"/><path d="M5733.95,3767.83l68.333,0l34.167,43.917l-34.167,43.917l-68.333,-0l-34.208,-43.917l34.208,-43.917Z" style="fill:#99c2a2;fill-opacity:0.7;"/><path d="M5747.32,4067.29l41.542,-0l20.75,26.708l-20.75,26.667l-41.542,-0l-20.708,-26.667l20.708,-26.708Z" style="fill:#99c2a2;fill-opacity:0.7;"/><path d="M5761.12,4367.25l13.958,0l6.958,9l-6.958,8.958l-13.958,0l-7,-8.958l7,-9Z" style="fill:#99c2a2;fill-opacity:0.7;"/><path d="M5364.99,2446.88l147.5,0l73.708,94.792l-73.708,94.791l-147.5,0l-73.75,-94.791l73.75,-94.792Z" style="fill:#99c2a2;fill-opacity:0.7;"/><path d="M5372.78,2739.12l131.959,0l65.916,84.792l-65.916,84.791l-131.959,0l-66,-84.791l66,-84.792Z" style="fill:#99c2a2;fill-opacity:0.7;"/><path d="M5381.95,3033.17l113.583,-0l56.792,73l-56.792,73l-113.583,-0l-56.75,-73l56.75,-73Z" style="fill:#99c2a2;fill-opacity:0.7;"/><path d="M5392.57,3329l92.375,0l46.167,59.417l-46.167,59.375l-92.375,-0l-46.208,-59.375l46.208,-59.417Z" style="fill:#99c2a2;fill-opacity:0.7;"/><path d="M5404.57,3626.71l68.375,0l34.167,43.917l-34.167,43.917l-68.375,-0l-34.167,-43.917l34.167,-43.917Z" style="fill:#99c2a2;fill-opacity:0.7;"/><path d="M5417.99,3926.21l41.541,0l20.709,26.667l-20.709,26.708l-41.541,0l-20.75,-26.708l20.75,-26.667Z" style="fill:#99c2a2;fill-opacity:0.7;"/><path d="M5431.74,4226.17l13.958,-0l7,8.958l-7,8.958l-13.958,0l-6.959,-8.958l6.959,-8.958Z" style="fill:#99c2a2;fill-opacity:0.7;"/><path d="M5034.32,2588.29l147.458,-0l73.792,94.791l-73.792,94.834l-147.458,-0l-73.75,-94.834l73.75,-94.791Z" style="fill:#99c2a2;fill-opacity:0.7;"/><path d="M5042.07,2880.54l131.958,-0l66,84.791l-66,84.834l-131.958,-0l-65.958,-84.834l65.958,-84.791Z" style="fill:#99c2a2;fill-opacity:0.7;"/><path d="M5051.28,3174.58l113.584,0l56.75,73l-56.75,72.959l-113.584,-0l-56.791,-72.959l56.791,-73Z" style="fill:#99c2a2;fill-opacity:0.7;"/><path d="M5061.87,3470.42l92.375,-0l46.208,59.375l-46.208,59.375l-92.375,-0l-46.209,-59.375l46.209,-59.375Z" style="fill:#99c2a2;fill-opacity:0.7;"/><path d="M5073.91,3768.12l68.334,0l34.166,43.958l-34.166,43.917l-68.334,0l-34.208,-43.917l34.208,-43.958Z" style="fill:#99c2a2;fill-opacity:0.7;"/><path d="M5087.32,4067.62l41.5,0l20.75,26.667l-20.75,26.708l-41.5,0l-20.75,-26.708l20.75,-26.667Z" style="fill:#99c2a2;fill-opacity:0.7;"/><path d="M5101.12,4367.54l13.916,-0l6.959,8.958l-6.959,9.042l-13.916,-0l-7,-9.042l7,-8.958Z" style="fill:#99c2a2;fill-opacity:0.7;"/><path d="M1075.45,2298.2l172.254,0l86.104,110.696l-86.104,110.692l-172.254,-0l-86.104,-110.692l86.104,-110.696Z" style="fill:#99c2a2;fill-opacity:0.7;"/><path d="M1081.13,2023.25l160.888,-0l80.466,103.408l-80.466,103.434l-160.888,-0l-80.467,-103.434l80.467,-103.408Z" style="fill:#99c2a2;fill-opacity:0.7;"/><path d="M1087.86,1749.62l147.421,0l73.771,94.808l-73.771,94.78l-147.421,-0l-73.77,-94.78l73.77,-94.808Z" style="fill:#99c2a2;fill-opacity:0.7;"/><path d="M1095.61,1477.4l131.925,0l65.98,84.788l-65.98,84.812l-131.925,0l-65.983,-84.812l65.983,-84.788Z" style="fill:#99c2a2;fill-opacity:0.7;"/><path d="M1104.79,1206.96l113.571,-0l56.8,72.975l-56.8,73.004l-113.571,-0l-56.8,-73.004l56.8,-72.975Z" style="fill:#99c2a2;fill-opacity:0.7;"/><path d="M1115.4,938.313l92.354,-0l46.229,59.379l-46.229,59.383l-92.354,0l-46.192,-59.383l46.192,-59.379Z" style="fill:#99c2a2;fill-opacity:0.7;"/><path d="M1127.4,671.529l68.391,0l34.155,43.946l-34.155,43.913l-68.391,-0l-34.192,-43.913l34.192,-43.946Z" style="fill:#99c2a2;fill-opacity:0.7;"/><path d="M1140.83,406.537l41.492,-0l20.762,26.688l-20.762,26.692l-41.492,-0l-20.767,-26.692l20.767,-26.688Z" style="fill:#99c2a2;fill-opacity:0.7;"/><path d="M1154.6,141.988l13.954,-0l6.996,8.99l-6.996,8.989l-13.954,0l-6.996,-8.989l6.996,-8.99Z" style="fill:#99c2a2;fill-opacity:0.7;"/><path d="M1404.83,2157.11l172.213,-0l86.104,110.691l-86.104,110.667l-172.213,-0l-86.108,-110.667l86.108,-110.691Z" style="fill:#99c2a2;fill-opacity:0.7;"/><path d="M1410.47,1882.12l160.925,-0l80.466,103.437l-80.466,103.405l-160.925,-0l-80.467,-103.405l80.467,-103.437Z" style="fill:#99c2a2;fill-opacity:0.7;"/><path d="M1417.17,1608.5l147.495,0l73.734,94.809l-73.734,94.779l-147.495,-0l-73.696,-94.784l73.696,-94.804Z" style="fill:#99c2a2;fill-opacity:0.7;"/><path d="M1424.99,1336.25l131.887,0l65.979,84.813l-65.979,84.812l-131.887,0l-65.984,-84.812l65.984,-84.813Z" style="fill:#99c2a2;fill-opacity:0.7;"/><path d="M1434.17,1065.81l113.529,0l56.8,73.009l-56.8,73.004l-113.529,-0l-56.804,-73.004l56.804,-73.009Z" style="fill:#99c2a2;fill-opacity:0.7;"/><path d="M1444.74,797.217l92.392,-0l46.154,59.379l-46.154,59.354l-92.392,0l-46.191,-59.354l46.191,-59.379Z" style="fill:#99c2a2;fill-opacity:0.7;"/><path d="M1456.74,530.408l68.392,0l34.154,43.942l-34.154,43.942l-68.392,-0l-34.154,-43.942l34.154,-43.942Z" style="fill:#99c2a2;fill-opacity:0.7;"/><path d="M1470.21,265.413l41.492,0l20.762,26.69l-20.762,26.689l-41.492,0l-20.766,-26.689l20.766,-26.69Z" style="fill:#99c2a2;fill-opacity:0.7;"/><path d="M1483.98,0.893l13.954,0l7,8.962l-7,8.961l-13.954,0l-6.996,-8.961l6.996,-8.962Z" style="fill:#99c2a2;fill-opacity:0.7;"/><path d="M1734.17,2298.2l172.212,0l86.104,110.696l-86.104,110.692l-172.212,-0l-86.109,-110.692l86.109,-110.696Z" style="fill:#99c2a2;fill-opacity:0.7;"/><path d="M1739.85,2023.25l160.887,-0l80.467,103.408l-80.467,103.434l-160.887,-0l-80.467,-103.434l80.467,-103.408Z" style="fill:#99c2a2;fill-opacity:0.7;"/><path d="M1746.55,1749.62l147.458,0l73.771,94.808l-73.771,94.78l-147.458,-0l-73.771,-94.78l73.771,-94.808Z" style="fill:#99c2a2;fill-opacity:0.7;"/><path d="M1754.3,1477.4l131.962,0l65.979,84.788l-65.979,84.812l-131.962,0l-65.984,-84.812l65.984,-84.788Z" style="fill:#99c2a2;fill-opacity:0.7;"/><path d="M1763.51,1206.96l113.567,-0l56.8,72.975l-56.8,73.004l-113.567,-0l-56.804,-73.004l56.804,-72.975Z" style="fill:#99c2a2;fill-opacity:0.7;"/><path d="M1774.12,938.313l92.354,-0l46.191,59.379l-46.191,59.383l-92.354,0l-46.23,-59.383l46.23,-59.379Z" style="fill:#99c2a2;fill-opacity:0.7;"/><path d="M1786.12,671.529l68.354,0l34.191,43.946l-34.191,43.913l-68.354,-0l-34.192,-43.913l34.192,-43.946Z" style="fill:#99c2a2;fill-opacity:0.7;"/><path d="M1799.55,406.537l41.492,-0l20.762,26.688l-20.762,26.692l-41.492,-0l-20.767,-26.692l20.767,-26.688Z" style="fill:#99c2a2;fill-opacity:0.7;"/><path d="M1813.32,141.988l13.954,-0l6.962,8.99l-6.962,8.989l-13.954,0l-6.996,-8.989l6.996,-8.99Z" style="fill:#99c2a2;fill-opacity:0.7;"/><path d="M2064.86,2156.8l172.18,0l86.141,110.692l-86.141,110.667l-172.18,-0l-86.104,-110.667l86.104,-110.692Z" style="fill:#99c2a2;fill-opacity:0.7;"/><path d="M2070.47,1881.82l160.962,-0l80.429,103.433l-80.429,103.433l-160.962,0l-80.429,-103.433l80.429,-103.433Z" style="fill:#99c2a2;fill-opacity:0.7;"/><path d="M2077.2,1608.22l147.496,-0l73.733,94.779l-73.733,94.783l-147.496,0l-73.733,-94.783l73.733,-94.779Z" style="fill:#99c2a2;fill-opacity:0.7;"/><path d="M2084.99,1335.97l131.92,-0l65.984,84.783l-65.984,84.817l-131.92,-0l-65.984,-84.817l65.984,-84.783Z" style="fill:#99c2a2;fill-opacity:0.7;"/><path d="M2094.17,1065.53l113.57,0l56.763,73.005l-56.763,73.004l-113.57,-0l-56.8,-73.004l56.8,-73.005Z" style="fill:#99c2a2;fill-opacity:0.7;"/><path d="M2104.74,796.908l92.387,0l46.192,59.38l-46.192,59.383l-92.387,-0l-46.159,-59.383l46.159,-59.38Z" style="fill:#99c2a2;fill-opacity:0.7;"/><path d="M2116.78,530.1l68.35,0l34.154,43.942l-34.154,43.941l-68.35,0l-34.196,-43.941l34.196,-43.942Z" style="fill:#99c2a2;fill-opacity:0.7;"/><path d="M2130.2,265.133l41.533,-0l20.725,26.661l-20.725,26.689l-41.533,0l-20.762,-26.689l20.762,-26.661Z" style="fill:#99c2a2;fill-opacity:0.7;"/><path d="M2143.97,0.586l13.954,-0l6.963,8.962l-6.963,8.989l-13.954,-0l-6.958,-8.989l6.958,-8.962Z" style="fill:#99c2a2;fill-opacity:0.7;"/><path d="M2394.21,2297.93l172.213,0l86.104,110.667l-86.104,110.696l-172.213,-0l-86.108,-110.696l86.108,-110.667Z" style="fill:#99c2a2;fill-opacity:0.7;"/><path d="M2399.85,2022.97l160.887,-0l80.467,103.408l-80.467,103.404l-160.887,0l-80.467,-103.404l80.467,-103.408Z" style="fill:#99c2a2;fill-opacity:0.7;"/><path d="M2406.58,1749.35l147.5,-0l73.729,94.783l-73.729,94.779l-147.5,0l-73.766,-94.779l73.766,-94.783Z" style="fill:#99c2a2;fill-opacity:0.7;"/><path d="M2414.33,1477.09l131.963,-0l65.979,84.787l-65.979,84.813l-131.963,-0l-65.983,-84.813l65.983,-84.787Z" style="fill:#99c2a2;fill-opacity:0.7;"/><path d="M2423.51,1206.65l113.609,0l56.762,73.004l-56.762,72.98l-113.609,-0l-56.8,-72.98l56.8,-73.004Z" style="fill:#99c2a2;fill-opacity:0.7;"/><path d="M2434.12,938.033l92.354,0l46.229,59.38l-46.229,59.383l-92.354,-0l-46.192,-59.383l46.192,-59.38Z" style="fill:#99c2a2;fill-opacity:0.7;"/><path d="M2446.15,671.225l68.317,0l34.191,43.942l-34.191,43.941l-68.317,0l-34.229,-43.941l34.229,-43.942Z" style="fill:#99c2a2;fill-opacity:0.7;"/><path d="M2459.55,406.23l41.533,-0l20.725,26.691l-20.725,26.687l-41.533,0l-20.763,-26.687l20.763,-26.691Z" style="fill:#99c2a2;fill-opacity:0.7;"/><path d="M2473.32,141.71l13.954,-0l7,8.989l-7,8.961l-13.954,0l-6.959,-8.961l6.959,-8.989Z" style="fill:#99c2a2;fill-opacity:0.7;"/><path d="M2723.59,2156.8l172.175,0l86.105,110.692l-86.105,110.667l-172.175,-0l-86.145,-110.667l86.145,-110.692Z" style="fill:#99c2a2;fill-opacity:0.7;"/><path d="M2729.19,1881.82l160.925,-0l80.466,103.433l-80.466,103.433l-160.925,0l-80.467,-103.433l80.467,-103.433Z" style="fill:#99c2a2;fill-opacity:0.7;"/><path d="M2735.93,1608.22l147.5,-0l73.729,94.779l-73.729,94.783l-147.5,0l-73.729,-94.783l73.729,-94.779Z" style="fill:#99c2a2;fill-opacity:0.7;"/><path d="M2743.71,1335.97l131.925,-0l65.98,84.783l-65.98,84.817l-131.925,-0l-65.983,-84.817l65.983,-84.783Z" style="fill:#99c2a2;fill-opacity:0.7;"/><path d="M2752.89,1065.53l113.529,0l56.8,73.005l-56.8,73.004l-113.534,-0l-56.8,-73.004l56.805,-73.005Z" style="fill:#99c2a2;fill-opacity:0.7;"/><path d="M2763.46,796.908l92.388,0l46.192,59.38l-46.192,59.383l-92.388,-0l-46.158,-59.383l46.158,-59.38Z" style="fill:#99c2a2;fill-opacity:0.7;"/><path d="M2775.46,530.1l68.392,0l34.154,43.942l-34.154,43.941l-68.392,0l-34.154,-43.941l34.154,-43.942Z" style="fill:#99c2a2;fill-opacity:0.7;"/><path d="M2788.93,265.133l41.454,-0l20.8,26.661l-20.762,26.689l-41.534,0l-20.725,-26.689l20.767,-26.661Z" style="fill:#99c2a2;fill-opacity:0.7;"/><path d="M2802.7,0.586l13.954,-0l7,8.962l-7,8.989l-13.954,-0l-6.959,-8.989l6.959,-8.962Z" style="fill:#99c2a2;fill-opacity:0.7;"/><path d="M3052.89,2297.93l172.255,0l86.104,110.667l-86.104,110.696l-172.255,-0l-86.104,-110.696l86.104,-110.667Z" style="fill:#99c2a2;fill-opacity:0.7;"/><path d="M3058.57,2022.97l160.887,-0l80.467,103.408l-80.467,103.404l-160.887,0l-80.467,-103.404l80.467,-103.408Z" style="fill:#99c2a2;fill-opacity:0.7;"/><path d="M3065.27,1749.35l147.495,-0l73.734,94.783l-73.734,94.779l-147.495,0l-73.734,-94.779l73.734,-94.783Z" style="fill:#99c2a2;fill-opacity:0.7;"/><path d="M3073.05,1477.09l131.925,-0l65.979,84.787l-65.979,84.813l-131.925,-0l-65.983,-84.813l65.983,-84.787Z" style="fill:#99c2a2;fill-opacity:0.7;"/><path d="M3082.23,1206.65l113.571,0l56.8,73.004l-56.8,72.98l-113.571,-0l-56.8,-72.98l56.8,-73.004Z" style="fill:#99c2a2;fill-opacity:0.7;"/><path d="M3092.8,938.033l92.388,0l46.191,59.38l-46.191,59.383l-92.388,-0l-46.196,-59.383l46.196,-59.38Z" style="fill:#99c2a2;fill-opacity:0.7;"/><path d="M3104.84,671.225l68.35,0l34.191,43.942l-34.191,43.941l-68.35,0l-34.196,-43.941l34.196,-43.942Z" style="fill:#99c2a2;fill-opacity:0.7;"/><path d="M3118.27,406.23l41.495,-0l20.763,26.691l-20.763,26.687l-41.495,0l-20.763,-26.687l20.763,-26.691Z" style="fill:#99c2a2;fill-opacity:0.7;"/><path d="M3132.04,141.71l13.955,-0l7,8.989l-7,8.961l-13.955,0l-6.995,-8.961l6.995,-8.989Z" style="fill:#99c2a2;fill-opacity:0.7;"/><path d="M3383.59,2156.5l172.213,-0l86.104,110.696l-86.104,110.691l-172.213,0l-86.108,-110.691l86.108,-110.696Z" style="fill:#99c2a2;fill-opacity:0.7;"/><path d="M3389.23,1881.54l160.929,-0l80.463,103.408l-80.463,103.433l-160.929,0l-80.425,-103.433l80.425,-103.408Z" style="fill:#99c2a2;fill-opacity:0.7;"/><path d="M3395.96,1607.92l147.459,-0l73.771,94.779l-73.771,94.808l-147.459,0l-73.729,-94.808l73.729,-94.779Z" style="fill:#99c2a2;fill-opacity:0.7;"/><path d="M3403.71,1335.66l131.963,-0l65.979,84.812l-65.979,84.817l-131.963,-0l-65.945,-84.817l65.945,-84.812Z" style="fill:#99c2a2;fill-opacity:0.7;"/><path d="M3412.93,1065.22l113.571,0l56.762,73.004l-56.762,73.004l-113.571,0l-56.8,-73.004l56.8,-73.004Z" style="fill:#99c2a2;fill-opacity:0.7;"/><path d="M3423.5,796.6l92.391,0l46.192,59.379l-46.192,59.384l-92.391,-0l-46.192,-59.384l46.192,-59.379Z" style="fill:#99c2a2;fill-opacity:0.7;"/><path d="M3435.5,529.821l68.391,-0l34.155,43.912l-34.155,43.942l-68.391,0l-34.154,-43.942l34.154,-43.912Z" style="fill:#99c2a2;fill-opacity:0.7;"/><path d="M3448.93,264.828l41.529,-0l20.763,26.689l-20.763,26.689l-41.529,-0l-20.767,-26.689l20.767,-26.689Z" style="fill:#99c2a2;fill-opacity:0.7;"/><path d="M3462.7,0.279l13.991,-0l6.963,8.989l-6.963,8.962l-13.991,-0l-6.959,-8.962l6.959,-8.989Z" style="fill:#99c2a2;fill-opacity:0.7;"/><path d="M3712.93,2297.62l172.213,-0l86.104,110.692l-86.104,110.695l-172.213,0l-86.108,-110.695l86.108,-110.692Z" style="fill:#99c2a2;fill-opacity:0.7;"/><path d="M3718.57,2022.66l160.929,0l80.425,103.409l-80.425,103.433l-160.929,0l-80.425,-103.433l80.425,-103.409Z" style="fill:#99c2a2;fill-opacity:0.7;"/><path d="M3725.27,1749.07l147.495,-0l73.734,94.779l-73.734,94.779l-147.495,0l-73.734,-94.779l73.734,-94.779Z" style="fill:#99c2a2;fill-opacity:0.7;"/><path d="M3733.05,1476.82l131.958,-0l65.946,84.783l-65.946,84.813l-131.958,-0l-65.946,-84.813l65.946,-84.783Z" style="fill:#99c2a2;fill-opacity:0.7;"/><path d="M3742.23,1206.38l113.608,0l56.763,72.979l-56.763,73.004l-113.608,0l-56.762,-73.004l56.762,-72.979Z" style="fill:#99c2a2;fill-opacity:0.7;"/><path d="M3752.84,937.725l92.387,0l46.154,59.383l-46.154,59.38l-92.387,-0l-46.196,-59.38l46.196,-59.383Z" style="fill:#99c2a2;fill-opacity:0.7;"/><path d="M3764.84,670.942l68.392,-0l34.154,43.946l-34.154,43.912l-68.392,0l-34.191,-43.912l34.191,-43.946Z" style="fill:#99c2a2;fill-opacity:0.7;"/><path d="M3778.27,405.951l41.529,-0l20.725,26.691l-20.725,26.687l-41.529,0l-20.767,-26.687l20.767,-26.691Z" style="fill:#99c2a2;fill-opacity:0.7;"/><path d="M3792.04,141.431l13.955,-0l7,8.961l-7,8.99l-13.955,-0l-6.958,-8.99l6.958,-8.961Z" style="fill:#99c2a2;fill-opacity:0.7;"/><path d="M4042.27,2156.53l172.221,0l86.083,110.692l-86.083,110.666l-172.221,0l-86.109,-110.666l86.109,-110.692Z" style="fill:#99c2a2;fill-opacity:0.7;"/><path d="M4047.95,1881.54l160.875,-0l80.458,103.433l-80.458,103.408l-160.875,0l-80.5,-103.408l80.5,-103.433Z" style="fill:#99c2a2;fill-opacity:0.7;"/><path d="M4054.65,1607.92l147.512,-0l73.709,94.808l-73.709,94.779l-147.512,0l-73.767,-94.779l73.767,-94.808Z" style="fill:#99c2a2;fill-opacity:0.7;"/><path d="M4062.4,1335.66l131.971,-0l65.958,84.812l-65.958,84.817l-131.971,-0l-65.984,-84.817l65.984,-84.812Z" style="fill:#99c2a2;fill-opacity:0.7;"/><path d="M4071.57,1065.25l113.587,0l56.792,73.004l-56.792,72.975l-113.587,0l-56.763,-72.975l56.763,-73.004Z" style="fill:#99c2a2;fill-opacity:0.7;"/><path d="M4082.18,796.629l92.392,0l46.208,59.379l-46.208,59.355l-92.392,-0l-46.158,-59.355l46.158,-59.379Z" style="fill:#99c2a2;fill-opacity:0.7;"/><path d="M4094.22,529.821l68.354,-0l34.167,43.942l-34.167,43.941l-68.354,0l-34.196,-43.941l34.196,-43.942Z" style="fill:#99c2a2;fill-opacity:0.7;"/><path d="M4107.61,264.828l41.546,-0l20.75,26.689l-20.75,26.689l-41.546,-0l-20.729,-26.689l20.729,-26.689Z" style="fill:#99c2a2;fill-opacity:0.7;"/><path d="M4121.42,0.307l13.95,0l6.958,8.962l-6.958,8.989l-13.95,0l-6.996,-8.989l6.996,-8.962Z" style="fill:#99c2a2;fill-opacity:0.7;"/><path d="M4371.66,2297.62l172.209,-0l86.083,110.692l-86.083,110.695l-172.209,0l-86.166,-110.695l86.166,-110.692Z" style="fill:#99c2a2;fill-opacity:0.7;"/><path d="M4377.28,2022.66l160.917,0l80.458,103.409l-80.458,103.433l-160.917,0l-80.458,-103.433l80.458,-103.409Z" style="fill:#99c2a2;fill-opacity:0.7;"/><path d="M4383.99,1749.07l147.5,-0l73.708,94.779l-73.708,94.779l-147.5,0l-73.75,-94.779l73.75,-94.779Z" style="fill:#99c2a2;fill-opacity:0.7;"/><path d="M4391.78,1476.82l131.917,-0l66,84.783l-66,84.813l-131.917,-0l-66,-84.813l66,-84.783Z" style="fill:#99c2a2;fill-opacity:0.7;"/><path d="M4400.95,1206.38l113.583,0l56.792,72.979l-56.792,73.004l-113.583,0l-56.792,-73.004l56.792,-72.979Z" style="fill:#99c2a2;fill-opacity:0.7;"/><path d="M4411.57,937.725l92.375,0l46.167,59.383l-46.167,59.38l-92.375,-0l-46.208,-59.38l46.208,-59.383Z" style="fill:#99c2a2;fill-opacity:0.7;"/><path d="M4423.57,670.942l68.333,-0l34.209,43.946l-34.209,43.912l-68.333,0l-34.208,-43.912l34.208,-43.946Z" style="fill:#99c2a2;fill-opacity:0.7;"/><path d="M4436.99,405.951l41.5,-0l20.75,26.691l-20.75,26.687l-41.5,0l-20.75,-26.687l20.75,-26.691Z" style="fill:#99c2a2;fill-opacity:0.7;"/><path d="M4450.74,141.431l13.958,-0l7,8.961l-7,8.99l-13.958,-0l-6.959,-8.99l6.959,-8.961Z" style="fill:#99c2a2;fill-opacity:0.7;"/><path d="M4702.32,2156.22l172.208,-0l86.084,110.696l-86.084,110.691l-172.208,0l-86.125,-110.691l86.125,-110.696Z" style="fill:#99c2a2;fill-opacity:0.7;"/><path d="M4707.95,1881.23l160.917,0l80.458,103.434l-80.458,103.437l-160.917,0l-80.417,-103.437l80.417,-103.434Z" style="fill:#99c2a2;fill-opacity:0.7;"/><path d="M4714.7,1607.64l147.5,-0l73.708,94.779l-73.708,94.808l-147.5,0l-73.792,-94.808l73.792,-94.779Z" style="fill:#99c2a2;fill-opacity:0.7;"/><path d="M4722.45,1335.38l131.958,0l65.917,84.817l-65.917,84.783l-131.958,0l-65.958,-84.783l65.958,-84.817Z" style="fill:#99c2a2;fill-opacity:0.7;"/><path d="M4731.62,1064.95l113.583,-0l56.792,73.004l-56.792,73.004l-113.583,0l-56.75,-73.004l56.75,-73.004Z" style="fill:#99c2a2;fill-opacity:0.7;"/><path d="M4742.2,796.321l92.417,-0l46.166,59.383l-46.166,59.379l-92.417,0l-46.167,-59.379l46.167,-59.383Z" style="fill:#99c2a2;fill-opacity:0.7;"/><path d="M4754.24,529.513l68.375,-0l34.166,43.941l-34.166,43.942l-68.375,-0l-34.167,-43.942l34.167,-43.941Z" style="fill:#99c2a2;fill-opacity:0.7;"/><path d="M4767.66,264.547l41.5,-0l20.792,26.661l-20.792,26.69l-41.5,-0l-20.75,-26.69l20.75,-26.661Z" style="fill:#99c2a2;fill-opacity:0.7;"/><path d="M4781.45,0l13.958,0l6.959,8.989l-6.959,8.962l-13.958,0l-7,-8.962l7,-8.989Z" style="fill:#99c2a2;fill-opacity:0.7;"/><path d="M5031.7,2297.34l172.208,-0l86.042,110.691l-86.042,110.667l-172.208,0l-86.167,-110.667l86.167,-110.691Z" style="fill:#99c2a2;fill-opacity:0.7;"/><path d="M5037.32,2022.38l160.875,0l80.5,103.409l-80.5,103.404l-160.875,-0l-80.458,-103.404l80.458,-103.409Z" style="fill:#99c2a2;fill-opacity:0.7;"/><path d="M5044.03,1748.76l147.5,0l73.709,94.78l-73.709,94.808l-147.5,-0l-73.75,-94.808l73.75,-94.78Z" style="fill:#99c2a2;fill-opacity:0.7;"/><path d="M5051.82,1476.51l131.917,0l65.958,84.784l-65.958,84.816l-131.917,0l-66,-84.816l66,-84.784Z" style="fill:#99c2a2;fill-opacity:0.7;"/><path d="M5060.99,1206.07l113.583,-0l56.792,73.004l-56.792,72.975l-113.583,0l-56.792,-72.975l56.792,-73.004Z" style="fill:#99c2a2;fill-opacity:0.7;"/><path d="M5071.57,937.446l92.375,-0l46.208,59.379l-46.208,59.383l-92.375,0l-46.208,-59.383l46.208,-59.379Z" style="fill:#99c2a2;fill-opacity:0.7;"/><path d="M5083.62,670.638l68.333,-0l34.167,43.941l-34.167,43.942l-68.333,-0l-34.209,-43.942l34.209,-43.941Z" style="fill:#99c2a2;fill-opacity:0.7;"/><path d="M5097.03,405.644l41.5,-0l20.75,26.689l-20.75,26.688l-41.5,-0l-20.75,-26.688l20.75,-26.689Z" style="fill:#99c2a2;fill-opacity:0.7;"/><path d="M5110.78,141.123l13.959,0l7,8.99l-7,8.962l-13.959,-0l-7,-8.962l7,-8.99Z" style="fill:#99c2a2;fill-opacity:0.7;"/><path d="M5361.03,2156.22l172.209,-0l86.125,110.696l-86.125,110.691l-172.209,0l-86.125,-110.691l86.125,-110.696Z" style="fill:#99c2a2;fill-opacity:0.7;"/><path d="M5366.66,1881.23l160.959,0l80.416,103.434l-80.416,103.437l-160.959,0l-80.458,-103.437l80.458,-103.434Z" style="fill:#99c2a2;fill-opacity:0.7;"/><path d="M5373.37,1607.64l147.5,-0l73.708,94.779l-73.708,94.808l-147.5,0l-73.75,-94.808l73.75,-94.779Z" style="fill:#99c2a2;fill-opacity:0.7;"/><path d="M5381.16,1335.38l131.917,0l66,84.817l-66,84.783l-131.917,0l-66,-84.783l66,-84.817Z" style="fill:#99c2a2;fill-opacity:0.7;"/><path d="M5390.32,1064.95l113.583,-0l56.792,73.004l-56.792,73.004l-113.583,0l-56.792,-73.004l56.792,-73.004Z" style="fill:#99c2a2;fill-opacity:0.7;"/><path d="M5400.95,796.321l92.375,-0l46.167,59.383l-46.167,59.379l-92.375,0l-46.208,-59.379l46.208,-59.383Z" style="fill:#99c2a2;fill-opacity:0.7;"/><path d="M5412.95,529.513l68.375,-0l34.167,43.941l-34.209,43.942l-68.333,-0l-34.167,-43.942l34.167,-43.941Z" style="fill:#99c2a2;fill-opacity:0.7;"/><path d="M5426.37,264.547l41.541,-0l20.709,26.661l-20.709,26.69l-41.541,-0l-20.75,-26.69l20.75,-26.661Z" style="fill:#99c2a2;fill-opacity:0.7;"/><path d="M5440.12,0l13.958,0l7,8.989l-7,8.962l-13.958,0l-6.959,-8.962l6.959,-8.989Z" style="fill:#99c2a2;fill-opacity:0.7;"/><path d="M5690.37,2297.34l172.208,-0l86.125,110.691l-86.125,110.667l-172.208,0l-86.084,-110.667l86.084,-110.691Z" style="fill:#99c2a2;fill-opacity:0.7;"/><path d="M5695.99,2022.38l160.958,0l80.458,103.409l-80.458,103.404l-160.958,-0l-80.459,-103.404l80.459,-103.409Z" style="fill:#99c2a2;fill-opacity:0.7;"/><path d="M5702.74,1748.76l147.5,0l73.75,94.78l-73.75,94.808l-147.5,-0l-73.75,-94.808l73.75,-94.78Z" style="fill:#99c2a2;fill-opacity:0.7;"/><path d="M5710.49,1476.51l131.958,0l66,84.784l-66,84.816l-131.958,0l-65.959,-84.816l65.959,-84.784Z" style="fill:#99c2a2;fill-opacity:0.7;"/><path d="M5719.66,1206.07l113.584,-0l56.791,73.004l-56.791,72.975l-113.584,0l-56.75,-72.975l56.75,-73.004Z" style="fill:#99c2a2;fill-opacity:0.7;"/><path d="M5730.28,937.446l92.375,-0l46.209,59.379l-46.209,59.383l-92.375,0l-46.208,-59.383l46.208,-59.379Z" style="fill:#99c2a2;fill-opacity:0.7;"/><path d="M5742.32,670.638l68.333,-0l34.167,43.941l-34.167,43.942l-68.333,-0l-34.208,-43.942l34.208,-43.941Z" style="fill:#99c2a2;fill-opacity:0.7;"/><path d="M5755.7,405.644l41.542,-0l20.75,26.689l-20.75,26.688l-41.542,-0l-20.708,-26.688l20.708,-26.689Z" style="fill:#99c2a2;fill-opacity:0.7;"/><path d="M5769.53,141.123l13.959,0l6.958,8.99l-6.958,8.962l-13.959,-0l-7,-8.962l7,-8.99Z" style="fill:#99c2a2;fill-opacity:0.7;"/><path d="M86.106,2157.39l172.214,-0l86.106,110.695l-86.106,110.692l-172.214,0l-86.106,-110.692l86.106,-110.695Z" style="fill:#99c2a2;fill-opacity:0.7;"/><path d="M91.749,1882.43l160.89,0l80.464,103.409l-80.464,103.433l-160.89,-0l-80.501,-103.433l80.501,-103.409Z" style="fill:#99c2a2;fill-opacity:0.7;"/><path d="M98.445,1608.81l147.498,0l73.73,94.809l-73.73,94.783l-147.498,0l-73.73,-94.783l73.73,-94.809Z" style="fill:#99c2a2;fill-opacity:0.7;"/><path d="M106.232,1336.55l131.925,0l65.981,84.817l-65.981,84.783l-131.925,0l-65.981,-84.783l65.981,-84.817Z" style="fill:#99c2a2;fill-opacity:0.7;"/><path d="M115.411,1066.12l113.567,-0l56.765,73.004l-56.765,73.004l-113.567,0l-56.802,-73.004l56.802,-73.004Z" style="fill:#99c2a2;fill-opacity:0.7;"/><path d="M125.981,797.521l92.389,-0l46.194,59.354l-46.194,59.379l-92.389,0l-46.157,-59.379l46.157,-59.354Z" style="fill:#99c2a2;fill-opacity:0.7;"/><path d="M138.019,530.713l68.351,-0l34.156,43.941l-34.156,43.917l-68.351,-0l-34.195,-43.917l34.195,-43.941Z" style="fill:#99c2a2;fill-opacity:0.7;"/><path d="M151.448,265.72l41.53,0l20.727,26.69l-20.727,26.661l-41.53,0l-20.764,-26.661l20.764,-26.69Z" style="fill:#99c2a2;fill-opacity:0.7;"/><path d="M165.216,1.2l13.956,0l6.997,8.962l-6.997,8.961l-13.956,0l-6.959,-8.961l6.959,-8.962Z" style="fill:#99c2a2;fill-opacity:0.7;"/><path d="M421.092,2023.55l160.887,0l80.467,103.404l-80.467,103.438l-160.887,-0l-80.465,-103.438l80.465,-103.404Z" style="fill:#99c2a2;fill-opacity:0.7;"/><path d="M427.825,1749.93l147.496,0l73.733,94.78l-73.733,94.808l-147.496,-0l-73.769,-94.808l73.769,-94.78Z" style="fill:#99c2a2;fill-opacity:0.7;"/><path d="M435.575,1477.68l131.962,0l65.942,84.813l-65.942,84.787l-131.962,0l-65.983,-84.787l65.983,-84.813Z" style="fill:#99c2a2;fill-opacity:0.7;"/><path d="M444.754,1207.24l113.567,-0l56.8,73.004l-56.8,73.004l-113.567,0l-56.804,-73.004l56.804,-73.004Z" style="fill:#99c2a2;fill-opacity:0.7;"/><path d="M455.358,938.621l92.354,-0l46.23,59.379l-46.23,59.379l-92.354,0l-46.191,-59.379l46.191,-59.379Z" style="fill:#99c2a2;fill-opacity:0.7;"/><path d="M467.358,671.838l68.392,-0l34.154,43.916l-34.154,43.942l-68.392,-0l-34.191,-43.942l34.191,-43.916Z" style="fill:#99c2a2;fill-opacity:0.7;"/><path d="M480.792,406.844l41.491,0l20.763,26.66l-20.763,26.692l-41.491,-0l-20.767,-26.692l20.767,-26.66Z" style="fill:#99c2a2;fill-opacity:0.7;"/><path d="M494.558,142.295l13.954,0l7,8.99l-7,8.961l-13.954,0l-6.958,-8.961l6.958,-8.99Z" style="fill:#99c2a2;fill-opacity:0.7;"/><path d="M746.146,2157.11l172.212,-0l86.104,110.691l-86.104,110.667l-172.212,-0l-86.109,-110.667l86.109,-110.691Z" style="fill:#99c2a2;fill-opacity:0.7;"/><path d="M751.75,1882.12l160.925,-0l80.467,103.437l-80.467,103.405l-160.925,-0l-80.467,-103.405l80.467,-103.437Z" style="fill:#99c2a2;fill-opacity:0.7;"/><path d="M758.483,1608.5l147.496,0l73.771,94.809l-73.771,94.779l-147.496,-0l-73.733,-94.784l73.733,-94.804Z" style="fill:#99c2a2;fill-opacity:0.7;"/><path d="M766.271,1336.25l131.962,0l65.942,84.813l-65.942,84.812l-131.962,0l-65.984,-84.812l65.984,-84.813Z" style="fill:#99c2a2;fill-opacity:0.7;"/><path d="M775.45,1065.84l113.492,-0l56.837,72.979l-56.837,73.004l-113.492,-0l-56.804,-73.004l56.804,-72.979Z" style="fill:#99c2a2;fill-opacity:0.7;"/><path d="M786.017,797.217l92.391,-0l46.192,59.379l-46.192,59.354l-92.391,0l-46.155,-59.354l46.155,-59.379Z" style="fill:#99c2a2;fill-opacity:0.7;"/><path d="M798.017,530.408l68.391,0l34.192,43.942l-34.192,43.942l-68.391,-0l-34.155,-43.942l34.155,-43.942Z" style="fill:#99c2a2;fill-opacity:0.7;"/><path d="M811.487,265.413l41.492,0l20.763,26.69l-20.763,26.689l-41.492,0l-20.766,-26.689l20.766,-26.69Z" style="fill:#99c2a2;fill-opacity:0.7;"/><path d="M825.254,0.893l13.954,0l7,8.962l-7,8.961l-13.954,0l-6.958,-8.961l6.958,-8.962Z" style="fill:#99c2a2;fill-opacity:0.7;"/></g></g></svg>