<?xml version="1.0" encoding="UTF-8" standalone="no"?><!DOCTYPE svg PUBLIC "-//W3C//DTD SVG 1.1//EN" "http://www.w3.org/Graphics/SVG/1.1/DTD/svg11.dtd"><svg width="100%" height="100%" viewBox="0 0 5860 2962" version="1.1" xmlns="http://www.w3.org/2000/svg" xmlns:xlink="http://www.w3.org/1999/xlink" xml:space="preserve" xmlns:serif="http://www.serif.com/" style="fill-rule:evenodd;clip-rule:evenodd;stroke-linejoin:round;stroke-miterlimit:2;"><path d="M4681.66,1608.46l113.584,0l56.792,73l-56.792,72.959l-113.584,-0l-56.791,-72.959l56.791,-73Z" style="fill:#99c2a2;fill-opacity:0.7;"/><path d="M4692.28,1904.29l92.374,-0l46.209,59.416l-46.208,59.375l-92.376,0l-46.208,-59.375l46.208,-59.416Z" style="fill:#99c2a2;fill-opacity:0.7;"/><path d="M4704.28,2202l68.374,0l34.167,43.917l-34.167,43.958l-68.374,0l-34.167,-43.958l34.167,-43.917Z" style="fill:#99c2a2;fill-opacity:0.7;"/><path d="M4717.7,2501.5l41.542,0l20.75,26.667l-20.75,26.666l-41.542,0l-20.75,-26.666l20.75,-26.667Z" style="fill:#99c2a2;fill-opacity:0.7;"/><path d="M4731.45,2801.42l14,-0l6.958,9l-6.958,8.958l-14,0l-6.958,-8.958l6.958,-9Z" style="fill:#99c2a2;fill-opacity:0.7;"/><path d="M4343.16,1455.54l131.959,-0l65.916,84.791l-65.916,84.834l-131.959,-0l-65.999,-84.834l65.999,-84.791Z" style="fill:#99c2a2;fill-opacity:0.7;"/><path d="M4352.32,1749.58l113.542,0l56.833,73l-56.833,72.959l-113.542,-0l-56.792,-72.959l56.792,-73Z" style="fill:#99c2a2;fill-opacity:0.7;"/><path d="M4362.91,2045.42l92.376,-0l46.208,59.375l-46.208,59.375l-92.376,-0l-46.166,-59.375l46.166,-59.375Z" style="fill:#99c2a2;fill-opacity:0.7;"/><path d="M4374.91,2343.12l68.374,0l34.209,43.958l-34.209,43.917l-68.374,0l-34.167,-43.917l34.167,-43.958Z" style="fill:#99c2a2;fill-opacity:0.7;"/><path d="M4388.37,2642.62l41.5,0l20.75,26.667l-20.75,26.708l-41.5,0l-20.792,-26.708l20.792,-26.667Z" style="fill:#99c2a2;fill-opacity:0.7;"/><path d="M4402.12,2942.54l13.958,-0l7,8.958l-7,9.042l-13.958,-0l-6.959,-9.042l6.959,-8.958Z" style="fill:#99c2a2;fill-opacity:0.7;"/><path d="M4022.94,1608.46l113.592,0l56.791,73l-56.792,72.959l-113.591,-0l-56.767,-72.959l56.767,-73Z" style="fill:#99c2a2;fill-opacity:0.7;"/><path d="M4033.55,1904.29l92.4,-0l46.167,59.416l-46.167,59.375l-92.4,0l-46.196,-59.375l46.196,-59.416Z" style="fill:#99c2a2;fill-opacity:0.7;"/><path d="M4045.59,2202l68.362,0l34.167,43.917l-34.167,43.958l-68.362,0l-34.196,-43.958l34.196,-43.917Z" style="fill:#99c2a2;fill-opacity:0.7;"/><path d="M4058.98,2501.5l41.513,0l20.792,26.667l-20.792,26.666l-41.513,0l-20.729,-26.666l20.729,-26.667Z" style="fill:#99c2a2;fill-opacity:0.7;"/><path d="M4072.78,2801.42l13.958,-0l6.958,9l-6.958,8.958l-13.958,0l-6.996,-8.958l6.996,-9Z" style="fill:#99c2a2;fill-opacity:0.7;"/><path d="M3683.1,1455.83l131.925,0l65.979,84.792l-65.979,84.792l-131.925,-0l-65.983,-84.792l65.983,-84.792Z" style="fill:#99c2a2;fill-opacity:0.7;"/><path d="M3692.28,1749.88l113.566,0l56.804,73l-56.804,73l-113.566,0l-56.805,-73l56.805,-73Z" style="fill:#99c2a2;fill-opacity:0.7;"/><path d="M3702.89,2045.71l92.35,0l46.196,59.417l-46.196,59.375l-92.35,0l-46.196,-59.375l46.196,-59.417Z" style="fill:#99c2a2;fill-opacity:0.7;"/><path d="M3714.89,2343.42l68.35,-0l34.196,43.916l-34.196,43.959l-68.35,-0l-34.196,-43.959l34.196,-43.916Z" style="fill:#99c2a2;fill-opacity:0.7;"/><path d="M3728.32,2642.92l41.529,-0l20.725,26.666l-20.725,26.667l-41.529,0l-20.767,-26.667l20.767,-26.666Z" style="fill:#99c2a2;fill-opacity:0.7;"/><path d="M3742.09,2942.88l13.958,0l6.996,8.958l-6.996,8.959l-13.958,-0l-6.959,-8.959l6.959,-8.958Z" style="fill:#99c2a2;fill-opacity:0.7;"/><path d="M3362.94,1608.75l113.567,0l56.766,73l-56.766,72.958l-113.567,0l-56.804,-72.958l56.804,-73Z" style="fill:#99c2a2;fill-opacity:0.7;"/><path d="M3373.51,1904.58l92.387,0l46.196,59.417l-46.196,59.375l-92.387,0l-46.196,-59.375l46.196,-59.417Z" style="fill:#99c2a2;fill-opacity:0.7;"/><path d="M3385.55,2202.29l68.35,-0l34.159,43.958l-34.159,43.917l-68.35,-0l-34.196,-43.917l34.196,-43.958Z" style="fill:#99c2a2;fill-opacity:0.7;"/><path d="M3398.98,2501.79l41.492,-0l20.763,26.666l-20.763,26.667l-41.492,0l-20.766,-26.667l20.766,-26.666Z" style="fill:#99c2a2;fill-opacity:0.7;"/><path d="M3412.74,2801.75l13.958,0l6.959,8.958l-6.959,9l-13.958,0l-6.996,-9l6.996,-8.958Z" style="fill:#99c2a2;fill-opacity:0.7;"/><path d="M3024.38,1455.83l131.962,0l65.942,84.792l-65.942,84.792l-131.963,-0l-65.983,-84.792l65.984,-84.792Z" style="fill:#99c2a2;fill-opacity:0.7;"/><path d="M3033.56,1749.88l113.604,0l56.767,73l-56.767,73l-113.604,0l-56.767,-73l56.767,-73Z" style="fill:#99c2a2;fill-opacity:0.7;"/><path d="M3044.17,2045.71l92.388,0l46.195,59.417l-46.195,59.375l-92.388,0l-46.196,-59.375l46.196,-59.417Z" style="fill:#99c2a2;fill-opacity:0.7;"/><path d="M3056.17,2343.42l68.388,-0l34.154,43.916l-34.154,43.959l-68.388,-0l-34.158,-43.959l34.158,-43.916Z" style="fill:#99c2a2;fill-opacity:0.7;"/><path d="M3069.6,2642.92l41.529,-0l20.763,26.666l-20.763,26.667l-41.529,0l-20.729,-26.667l20.729,-26.666Z" style="fill:#99c2a2;fill-opacity:0.7;"/><path d="M3083.37,2942.88l13.996,0l6.958,8.958l-6.958,8.959l-13.996,-0l-6.958,-8.959l6.958,-8.958Z" style="fill:#99c2a2;fill-opacity:0.7;"/><path d="M2704.22,1608.75l113.567,0l56.804,73l-56.804,72.958l-113.567,0l-56.804,-72.958l56.804,-73Z" style="fill:#99c2a2;fill-opacity:0.7;"/><path d="M2714.83,1904.58l92.35,0l46.234,59.417l-46.234,59.375l-92.35,0l-46.195,-59.375l46.195,-59.417Z" style="fill:#99c2a2;fill-opacity:0.7;"/><path d="M2726.83,2202.29l68.35,-0l34.196,43.958l-34.196,43.917l-68.35,-0l-34.195,-43.917l34.195,-43.958Z" style="fill:#99c2a2;fill-opacity:0.7;"/><path d="M2740.26,2501.79l41.491,-0l20.763,26.666l-20.763,26.667l-41.492,0l-20.766,-26.667l20.767,-26.666Z" style="fill:#99c2a2;fill-opacity:0.7;"/><path d="M2754.02,2801.75l13.959,0l6.995,8.958l-6.995,9l-13.959,0l-6.958,-9l6.958,-8.958Z" style="fill:#99c2a2;fill-opacity:0.7;"/><path d="M2364.38,1456.12l131.887,0l65.979,84.792l-65.979,84.833l-131.888,0l-65.983,-84.833l65.983,-84.792Z" style="fill:#99c2a2;fill-opacity:0.7;"/><path d="M2373.56,1750.12l113.529,0l56.8,73.042l-56.8,73l-113.529,-0l-56.804,-73l56.804,-73.042Z" style="fill:#99c2a2;fill-opacity:0.7;"/><path d="M2384.13,2046.04l92.387,-0l46.196,59.375l-46.196,59.375l-92.388,-0l-46.158,-59.375l46.158,-59.375Z" style="fill:#99c2a2;fill-opacity:0.7;"/><path d="M2396.13,2343.71l68.387,0l34.158,43.917l-34.158,43.958l-68.388,0l-34.158,-43.958l34.158,-43.917Z" style="fill:#99c2a2;fill-opacity:0.7;"/><path d="M2409.56,2643.21l41.491,0l20.767,26.709l-20.767,26.666l-41.491,0l-20.767,-26.666l20.767,-26.709Z" style="fill:#99c2a2;fill-opacity:0.7;"/><path d="M2423.33,2943.17l13.959,-0l6.996,8.958l-6.996,8.958l-13.959,0l-6.995,-8.958l6.995,-8.958Z" style="fill:#99c2a2;fill-opacity:0.7;"/><path d="M2044.22,1609.04l113.529,-0l56.804,73l-56.804,72.958l-113.529,0l-56.804,-72.958l56.804,-73Z" style="fill:#99c2a2;fill-opacity:0.7;"/><path d="M2054.79,1904.88l92.387,0l46.196,59.375l-46.196,59.375l-92.387,0l-46.159,-59.375l46.159,-59.375Z" style="fill:#99c2a2;fill-opacity:0.7;"/><path d="M2066.83,2202.58l68.35,0l34.159,43.917l-34.159,43.958l-68.35,0l-34.195,-43.958l34.195,-43.917Z" style="fill:#99c2a2;fill-opacity:0.7;"/><path d="M2080.22,2502.08l41.529,0l20.767,26.667l-20.767,26.708l-41.529,0l-20.729,-26.708l20.729,-26.667Z" style="fill:#99c2a2;fill-opacity:0.7;"/><path d="M2094.02,2802l13.921,0l7.033,9l-6.995,8.958l-13.996,0l-6.921,-8.958l6.958,-9Z" style="fill:#99c2a2;fill-opacity:0.7;"/><path d="M1705.66,1456.12l131.962,0l65.979,84.792l-65.979,84.791l-131.962,0l-65.984,-84.791l65.984,-84.792Z" style="fill:#99c2a2;fill-opacity:0.7;"/><path d="M1714.88,1750.12l113.567,0l56.804,73l-56.804,73.042l-113.567,-0l-56.804,-73.042l56.804,-73Z" style="fill:#99c2a2;fill-opacity:0.7;"/><path d="M1725.49,2046.04l92.35,-0l46.196,59.375l-46.196,59.333l-92.35,0l-46.234,-59.333l46.234,-59.375Z" style="fill:#99c2a2;fill-opacity:0.7;"/><path d="M1737.49,2343.71l68.35,0l34.196,43.917l-34.196,43.958l-68.35,0l-34.196,-43.958l34.196,-43.917Z" style="fill:#99c2a2;fill-opacity:0.7;"/><path d="M1750.92,2643.21l41.492,0l20.766,26.667l-20.766,26.708l-41.492,0l-20.767,-26.708l20.767,-26.667Z" style="fill:#99c2a2;fill-opacity:0.7;"/><path d="M1764.68,2943.17l13.958,-0l6.958,8.958l-6.958,8.958l-13.958,0l-6.996,-8.958l6.996,-8.958Z" style="fill:#99c2a2;fill-opacity:0.7;"/><path d="M1385.54,1609.04l113.529,-0l56.804,73l-56.804,72.958l-113.529,0l-56.804,-72.958l56.804,-73Z" style="fill:#99c2a2;fill-opacity:0.7;"/><path d="M1396.11,1904.88l92.387,0l46.158,59.375l-46.158,59.375l-92.387,0l-46.196,-59.375l46.196,-59.375Z" style="fill:#99c2a2;fill-opacity:0.7;"/><path d="M1408.11,2202.58l68.387,0l34.158,43.917l-34.158,43.958l-68.387,0l-34.159,-43.958l34.159,-43.917Z" style="fill:#99c2a2;fill-opacity:0.7;"/><path d="M1421.57,2502.08l41.492,0l20.762,26.667l-20.762,26.708l-41.492,0l-20.766,-26.708l20.766,-26.667Z" style="fill:#99c2a2;fill-opacity:0.7;"/><path d="M1435.34,2802l13.958,0l6.996,9l-6.996,8.958l-13.958,0l-6.996,-8.958l6.996,-9Z" style="fill:#99c2a2;fill-opacity:0.7;"/><path d="M1045.62,1456.42l131.963,-0l65.979,84.791l-65.979,84.792l-131.963,0l-65.946,-84.792l65.946,-84.791Z" style="fill:#99c2a2;fill-opacity:0.7;"/><path d="M1054.84,1750.46l113.566,0l56.801,72.959l-56.801,73.041l-113.566,0l-56.804,-73.041l56.804,-72.959Z" style="fill:#99c2a2;fill-opacity:0.7;"/><path d="M1065.45,2046.33l92.35,0l46.196,59.375l-46.196,59.334l-92.35,-0l-46.233,-59.334l46.233,-59.375Z" style="fill:#99c2a2;fill-opacity:0.7;"/><path d="M1077.45,2344l68.35,0l34.196,43.958l-34.196,43.917l-68.35,0l-34.196,-43.917l34.196,-43.958Z" style="fill:#99c2a2;fill-opacity:0.7;"/><path d="M1090.88,2643.5l41.492,0l20.763,26.667l-20.763,26.666l-41.492,0l-20.766,-26.666l20.766,-26.667Z" style="fill:#99c2a2;fill-opacity:0.7;"/><path d="M1104.64,2943.46l13.958,0l6.959,8.959l-6.959,9l-13.958,-0l-6.996,-9l6.996,-8.959Z" style="fill:#99c2a2;fill-opacity:0.7;"/><path d="M725.499,1609.33l113.529,0l56.805,73l-56.805,72.959l-113.529,-0l-56.804,-72.959l56.804,-73Z" style="fill:#99c2a2;fill-opacity:0.7;"/><path d="M736.07,1905.21l92.388,0l46.195,59.375l-46.196,59.375l-92.387,0l-46.196,-59.375l46.196,-59.375Z" style="fill:#99c2a2;fill-opacity:0.7;"/><path d="M748.07,2202.88l68.387,0l34.159,43.958l-34.159,43.917l-68.387,0l-34.158,-43.917l34.158,-43.958Z" style="fill:#99c2a2;fill-opacity:0.7;"/><path d="M761.537,2502.38l41.491,0l20.725,26.708l-20.725,26.667l-41.491,0l-20.767,-26.667l20.767,-26.708Z" style="fill:#99c2a2;fill-opacity:0.7;"/><path d="M775.303,2802.33l13.959,0l6.996,9l-6.996,8.959l-13.959,-0l-6.995,-8.959l6.995,-9Z" style="fill:#99c2a2;fill-opacity:0.7;"/><path d="M386.941,1456.42l131.962,-0l65.942,84.791l-65.942,84.792l-131.962,0l-65.981,-84.792l65.981,-84.791Z" style="fill:#99c2a2;fill-opacity:0.7;"/><path d="M396.12,1750.46l113.567,0l56.804,72.959l-56.804,73.041l-113.567,0l-56.767,-73.041l56.767,-72.959Z" style="fill:#99c2a2;fill-opacity:0.7;"/><path d="M406.728,2046.33l92.35,0l46.234,59.375l-46.234,59.334l-92.35,-0l-46.195,-59.334l46.195,-59.375Z" style="fill:#99c2a2;fill-opacity:0.7;"/><path d="M418.728,2344l68.388,0l34.158,43.958l-34.158,43.917l-68.388,0l-34.195,-43.917l34.195,-43.958Z" style="fill:#99c2a2;fill-opacity:0.7;"/><path d="M432.158,2643.5l41.491,0l20.763,26.667l-20.763,26.666l-41.491,0l-20.767,-26.666l20.767,-26.667Z" style="fill:#99c2a2;fill-opacity:0.7;"/><path d="M445.924,2943.46l13.959,0l6.995,8.959l-6.995,9l-13.959,-0l-6.958,-9l6.958,-8.959Z" style="fill:#99c2a2;fill-opacity:0.7;"/><path d="M66.778,1609.33l113.605,0l56.727,73l-56.727,72.959l-113.605,-0l-56.803,-72.959l56.803,-73Z" style="fill:#99c2a2;fill-opacity:0.7;"/><path d="M77.348,1905.21l92.389,0l46.194,59.375l-46.194,59.375l-92.389,0l-46.157,-59.375l46.157,-59.375Z" style="fill:#99c2a2;fill-opacity:0.7;"/><path d="M89.385,2202.88l68.352,0l34.156,43.958l-34.156,43.917l-68.352,0l-34.194,-43.917l34.194,-43.958Z" style="fill:#99c2a2;fill-opacity:0.7;"/><path d="M102.815,2502.38l41.53,0l20.728,26.708l-20.728,26.667l-41.53,0l-20.764,-26.667l20.764,-26.708Z" style="fill:#99c2a2;fill-opacity:0.7;"/><path d="M116.583,2802.33l13.957,0l6.996,9l-6.996,8.959l-13.957,-0l-6.959,-8.959l6.959,-9Z" style="fill:#99c2a2;fill-opacity:0.7;"/><path d="M5661.87,1455.25l131.958,0l66,84.792l-66,84.791l-131.958,0l-66,-84.791l66,-84.792Z" style="fill:#99c2a2;fill-opacity:0.7;"/><path d="M5671.03,1749.25l113.583,0l56.792,73.042l-56.792,72.958l-113.583,0l-56.751,-72.958l56.751,-73.042Z" style="fill:#99c2a2;fill-opacity:0.7;"/><path d="M5681.66,2045.12l92.376,0l46.208,59.417l-46.208,59.375l-92.376,-0l-46.208,-59.375l46.208,-59.417Z" style="fill:#99c2a2;fill-opacity:0.7;"/><path d="M5693.7,2342.83l68.333,0l34.167,43.917l-34.167,43.917l-68.333,-0l-34.208,-43.917l34.208,-43.917Z" style="fill:#99c2a2;fill-opacity:0.7;"/><path d="M5707.07,2642.29l41.542,-0l20.75,26.708l-20.75,26.667l-41.542,-0l-20.708,-26.667l20.708,-26.708Z" style="fill:#99c2a2;fill-opacity:0.7;"/><path d="M5720.87,2942.25l13.958,0l6.959,9l-6.959,8.958l-13.958,0l-7,-8.958l7,-9Z" style="fill:#99c2a2;fill-opacity:0.7;"/><path d="M5341.7,1608.17l113.583,-0l56.792,73l-56.792,73l-113.583,-0l-56.75,-73l56.75,-73Z" style="fill:#99c2a2;fill-opacity:0.7;"/><path d="M5352.32,1904l92.375,0l46.167,59.417l-46.167,59.375l-92.375,-0l-46.208,-59.375l46.208,-59.417Z" style="fill:#99c2a2;fill-opacity:0.7;"/><path d="M5364.32,2201.71l68.375,0l34.167,43.917l-34.167,43.917l-68.375,-0l-34.167,-43.917l34.167,-43.917Z" style="fill:#99c2a2;fill-opacity:0.7;"/><path d="M5377.74,2501.21l41.541,0l20.709,26.667l-20.709,26.708l-41.541,0l-20.75,-26.708l20.75,-26.667Z" style="fill:#99c2a2;fill-opacity:0.7;"/><path d="M5391.49,2801.17l13.958,-0l7,8.958l-7,8.958l-13.958,0l-6.958,-8.958l6.958,-8.958Z" style="fill:#99c2a2;fill-opacity:0.7;"/><path d="M5001.82,1455.54l131.958,-0l66.001,84.791l-66.001,84.834l-131.958,-0l-65.958,-84.834l65.958,-84.791Z" style="fill:#99c2a2;fill-opacity:0.7;"/><path d="M5011.03,1749.58l113.583,0l56.75,73l-56.75,72.959l-113.583,-0l-56.792,-72.959l56.792,-73Z" style="fill:#99c2a2;fill-opacity:0.7;"/><path d="M5021.62,2045.42l92.375,-0l46.208,59.375l-46.208,59.375l-92.375,-0l-46.209,-59.375l46.209,-59.375Z" style="fill:#99c2a2;fill-opacity:0.7;"/><path d="M5033.66,2343.12l68.334,0l34.167,43.958l-34.167,43.917l-68.334,0l-34.208,-43.917l34.208,-43.958Z" style="fill:#99c2a2;fill-opacity:0.7;"/><path d="M5047.07,2642.62l41.5,0l20.75,26.667l-20.75,26.708l-41.5,0l-20.75,-26.708l20.75,-26.667Z" style="fill:#99c2a2;fill-opacity:0.7;"/><path d="M5060.87,2942.54l13.917,-0l6.958,8.958l-6.958,9.042l-13.917,-0l-7,-9.042l7,-8.958Z" style="fill:#99c2a2;fill-opacity:0.7;"/><path d="M1064.54,1206.96l113.571,-0l56.8,72.975l-56.8,73.004l-113.571,-0l-56.8,-73.004l56.8,-72.975Z" style="fill:#99c2a2;fill-opacity:0.7;"/><path d="M1075.14,938.313l92.354,-0l46.229,59.379l-46.229,59.383l-92.354,0l-46.192,-59.383l46.192,-59.379Z" style="fill:#99c2a2;fill-opacity:0.7;"/><path d="M1087.14,671.529l68.392,0l34.154,43.946l-34.154,43.913l-68.392,-0l-34.192,-43.913l34.192,-43.946Z" style="fill:#99c2a2;fill-opacity:0.7;"/><path d="M1100.58,406.537l41.492,-0l20.763,26.688l-20.763,26.692l-41.492,-0l-20.766,-26.692l20.766,-26.688Z" style="fill:#99c2a2;fill-opacity:0.7;"/><path d="M1114.35,141.988l13.954,-0l6.996,8.99l-6.996,8.989l-13.954,0l-6.996,-8.989l6.996,-8.99Z" style="fill:#99c2a2;fill-opacity:0.7;"/><path d="M1384.74,1336.25l131.887,0l65.98,84.813l-65.98,84.812l-131.887,0l-65.983,-84.812l65.983,-84.813Z" style="fill:#99c2a2;fill-opacity:0.7;"/><path d="M1393.92,1065.81l113.529,0l56.8,73.009l-56.8,73.004l-113.529,-0l-56.804,-73.004l56.804,-73.009Z" style="fill:#99c2a2;fill-opacity:0.7;"/><path d="M1404.49,797.217l92.391,-0l46.155,59.379l-46.155,59.354l-92.391,0l-46.192,-59.354l46.192,-59.379Z" style="fill:#99c2a2;fill-opacity:0.7;"/><path d="M1416.49,530.408l68.391,0l34.155,43.942l-34.155,43.942l-68.391,-0l-34.154,-43.942l34.154,-43.942Z" style="fill:#99c2a2;fill-opacity:0.7;"/><path d="M1429.96,265.413l41.491,0l20.763,26.69l-20.763,26.689l-41.491,0l-20.767,-26.689l20.767,-26.69Z" style="fill:#99c2a2;fill-opacity:0.7;"/><path d="M1443.72,0.893l13.954,0l7,8.962l-7,8.961l-13.954,0l-6.996,-8.961l6.996,-8.962Z" style="fill:#99c2a2;fill-opacity:0.7;"/><path d="M1723.26,1206.96l113.566,-0l56.8,72.975l-56.8,73.004l-113.566,-0l-56.804,-73.004l56.804,-72.975Z" style="fill:#99c2a2;fill-opacity:0.7;"/><path d="M1733.87,938.313l92.354,-0l46.192,59.379l-46.192,59.383l-92.354,0l-46.229,-59.383l46.229,-59.379Z" style="fill:#99c2a2;fill-opacity:0.7;"/><path d="M1745.87,671.529l68.354,0l34.192,43.946l-34.192,43.913l-68.354,-0l-34.192,-43.913l34.192,-43.946Z" style="fill:#99c2a2;fill-opacity:0.7;"/><path d="M1759.3,406.537l41.492,-0l20.762,26.688l-20.762,26.692l-41.492,-0l-20.766,-26.692l20.766,-26.688Z" style="fill:#99c2a2;fill-opacity:0.7;"/><path d="M1773.07,141.988l13.954,-0l6.963,8.99l-6.963,8.989l-13.954,0l-6.996,-8.989l6.996,-8.99Z" style="fill:#99c2a2;fill-opacity:0.7;"/><path d="M2044.74,1335.97l131.921,-0l65.983,84.783l-65.983,84.817l-131.921,-0l-65.983,-84.817l65.983,-84.783Z" style="fill:#99c2a2;fill-opacity:0.7;"/><path d="M2053.92,1065.53l113.571,0l56.762,73.005l-56.762,73.004l-113.571,-0l-56.8,-73.004l56.8,-73.005Z" style="fill:#99c2a2;fill-opacity:0.7;"/><path d="M2064.49,796.908l92.387,0l46.192,59.38l-46.192,59.383l-92.387,-0l-46.158,-59.383l46.158,-59.38Z" style="fill:#99c2a2;fill-opacity:0.7;"/><path d="M2076.53,530.1l68.35,0l34.155,43.942l-34.155,43.941l-68.35,0l-34.195,-43.941l34.195,-43.942Z" style="fill:#99c2a2;fill-opacity:0.7;"/><path d="M2089.95,265.133l41.534,-0l20.725,26.661l-20.725,26.689l-41.534,0l-20.762,-26.689l20.762,-26.661Z" style="fill:#99c2a2;fill-opacity:0.7;"/><path d="M2103.72,0.586l13.954,-0l6.963,8.962l-6.963,8.989l-13.954,-0l-6.958,-8.989l6.958,-8.962Z" style="fill:#99c2a2;fill-opacity:0.7;"/><path d="M2383.26,1206.65l113.608,0l56.762,73.004l-56.762,72.98l-113.608,-0l-56.8,-72.98l56.8,-73.004Z" style="fill:#99c2a2;fill-opacity:0.7;"/><path d="M2393.87,938.033l92.354,0l46.229,59.38l-46.229,59.383l-92.354,-0l-46.192,-59.383l46.192,-59.38Z" style="fill:#99c2a2;fill-opacity:0.7;"/><path d="M2405.9,671.225l68.317,0l34.192,43.942l-34.192,43.941l-68.317,0l-34.229,-43.941l34.229,-43.942Z" style="fill:#99c2a2;fill-opacity:0.7;"/><path d="M2419.3,406.23l41.533,-0l20.725,26.691l-20.725,26.687l-41.533,0l-20.762,-26.687l20.762,-26.691Z" style="fill:#99c2a2;fill-opacity:0.7;"/><path d="M2433.07,141.71l13.954,-0l7,8.989l-7,8.961l-13.954,0l-6.958,-8.961l6.958,-8.989Z" style="fill:#99c2a2;fill-opacity:0.7;"/><path d="M2703.46,1335.97l131.925,-0l65.979,84.783l-65.979,84.817l-131.925,-0l-65.984,-84.817l65.984,-84.783Z" style="fill:#99c2a2;fill-opacity:0.7;"/><path d="M2712.64,1065.53l113.529,0l56.8,73.005l-56.8,73.004l-113.533,-0l-56.8,-73.004l56.804,-73.005Z" style="fill:#99c2a2;fill-opacity:0.7;"/><path d="M2723.21,796.908l92.387,0l46.192,59.38l-46.192,59.383l-92.387,-0l-46.159,-59.383l46.159,-59.38Z" style="fill:#99c2a2;fill-opacity:0.7;"/><path d="M2735.21,530.1l68.391,0l34.154,43.942l-34.154,43.941l-68.391,0l-34.155,-43.941l34.155,-43.942Z" style="fill:#99c2a2;fill-opacity:0.7;"/><path d="M2748.68,265.133l41.455,-0l20.8,26.661l-20.763,26.689l-41.533,0l-20.725,-26.689l20.766,-26.661Z" style="fill:#99c2a2;fill-opacity:0.7;"/><path d="M2762.45,0.586l13.954,-0l7,8.962l-7,8.989l-13.954,-0l-6.958,-8.989l6.958,-8.962Z" style="fill:#99c2a2;fill-opacity:0.7;"/><path d="M3041.98,1206.65l113.571,0l56.8,73.004l-56.8,72.98l-113.571,-0l-56.8,-72.98l56.8,-73.004Z" style="fill:#99c2a2;fill-opacity:0.7;"/><path d="M3052.55,938.033l92.388,0l46.192,59.38l-46.192,59.383l-92.388,-0l-46.195,-59.383l46.195,-59.38Z" style="fill:#99c2a2;fill-opacity:0.7;"/><path d="M3064.59,671.225l68.35,0l34.192,43.942l-34.192,43.941l-68.35,0l-34.196,-43.941l34.196,-43.942Z" style="fill:#99c2a2;fill-opacity:0.7;"/><path d="M3078.02,406.23l41.496,-0l20.762,26.691l-20.762,26.687l-41.496,0l-20.763,-26.687l20.763,-26.691Z" style="fill:#99c2a2;fill-opacity:0.7;"/><path d="M3091.79,141.71l13.954,-0l7,8.989l-7,8.961l-13.954,0l-6.996,-8.961l6.996,-8.989Z" style="fill:#99c2a2;fill-opacity:0.7;"/><path d="M3363.46,1335.66l131.962,-0l65.979,84.812l-65.979,84.817l-131.962,-0l-65.946,-84.817l65.946,-84.812Z" style="fill:#99c2a2;fill-opacity:0.7;"/><path d="M3372.67,1065.22l113.571,0l56.763,73.004l-56.763,73.004l-113.571,0l-56.8,-73.004l56.8,-73.004Z" style="fill:#99c2a2;fill-opacity:0.7;"/><path d="M3383.24,796.6l92.392,0l46.191,59.379l-46.191,59.384l-92.392,-0l-46.192,-59.384l46.192,-59.379Z" style="fill:#99c2a2;fill-opacity:0.7;"/><path d="M3395.24,529.821l68.392,-0l34.154,43.912l-34.154,43.942l-68.392,0l-34.154,-43.942l34.154,-43.912Z" style="fill:#99c2a2;fill-opacity:0.7;"/><path d="M3408.68,264.828l41.53,-0l20.762,26.689l-20.762,26.689l-41.53,-0l-20.766,-26.689l20.766,-26.689Z" style="fill:#99c2a2;fill-opacity:0.7;"/><path d="M3422.45,0.279l13.992,-0l6.962,8.989l-6.962,8.962l-13.992,-0l-6.958,-8.962l6.958,-8.989Z" style="fill:#99c2a2;fill-opacity:0.7;"/><path d="M3701.98,1206.38l113.609,0l56.762,72.979l-56.762,73.004l-113.609,0l-56.762,-73.004l56.762,-72.979Z" style="fill:#99c2a2;fill-opacity:0.7;"/><path d="M3712.59,937.725l92.387,0l46.155,59.383l-46.155,59.38l-92.387,-0l-46.196,-59.38l46.196,-59.383Z" style="fill:#99c2a2;fill-opacity:0.7;"/><path d="M3724.59,670.942l68.391,-0l34.155,43.946l-34.155,43.912l-68.391,0l-34.192,-43.912l34.192,-43.946Z" style="fill:#99c2a2;fill-opacity:0.7;"/><path d="M3738.02,405.951l41.529,-0l20.725,26.691l-20.725,26.687l-41.529,0l-20.767,-26.687l20.767,-26.691Z" style="fill:#99c2a2;fill-opacity:0.7;"/><path d="M3751.79,141.431l13.954,-0l7,8.961l-7,8.99l-13.954,-0l-6.959,-8.99l6.959,-8.961Z" style="fill:#99c2a2;fill-opacity:0.7;"/><path d="M4022.14,1335.66l131.971,-0l65.958,84.812l-65.958,84.817l-131.971,-0l-65.983,-84.817l65.983,-84.812Z" style="fill:#99c2a2;fill-opacity:0.7;"/><path d="M4031.32,1065.25l113.588,0l56.791,73.004l-56.792,72.975l-113.587,0l-56.762,-72.975l56.762,-73.004Z" style="fill:#99c2a2;fill-opacity:0.7;"/><path d="M4041.93,796.629l92.391,0l46.208,59.379l-46.208,59.355l-92.391,-0l-46.159,-59.355l46.159,-59.379Z" style="fill:#99c2a2;fill-opacity:0.7;"/><path d="M4053.97,529.821l68.354,-0l34.167,43.942l-34.167,43.941l-68.354,0l-34.196,-43.941l34.196,-43.942Z" style="fill:#99c2a2;fill-opacity:0.7;"/><path d="M4067.36,264.828l41.546,-0l20.749,26.689l-20.749,26.689l-41.546,-0l-20.73,-26.689l20.73,-26.689Z" style="fill:#99c2a2;fill-opacity:0.7;"/><path d="M4081.17,0.307l13.95,0l6.958,8.962l-6.958,8.989l-13.95,0l-6.996,-8.989l6.996,-8.962Z" style="fill:#99c2a2;fill-opacity:0.7;"/><path d="M4360.7,1206.38l113.583,0l56.792,72.979l-56.792,73.004l-113.583,0l-56.792,-73.004l56.792,-72.979Z" style="fill:#99c2a2;fill-opacity:0.7;"/><path d="M4371.32,937.725l92.375,0l46.167,59.383l-46.167,59.38l-92.375,-0l-46.208,-59.38l46.208,-59.383Z" style="fill:#99c2a2;fill-opacity:0.7;"/><path d="M4383.32,670.942l68.333,-0l34.209,43.946l-34.208,43.912l-68.334,0l-34.208,-43.912l34.208,-43.946Z" style="fill:#99c2a2;fill-opacity:0.7;"/><path d="M4396.74,405.951l41.5,-0l20.75,26.691l-20.75,26.687l-41.5,0l-20.75,-26.687l20.75,-26.691Z" style="fill:#99c2a2;fill-opacity:0.7;"/><path d="M4410.49,141.431l13.958,-0l7,8.961l-7,8.99l-13.958,-0l-6.959,-8.99l6.959,-8.961Z" style="fill:#99c2a2;fill-opacity:0.7;"/><path d="M4682.2,1335.38l131.958,0l65.917,84.817l-65.917,84.783l-131.958,0l-65.958,-84.783l65.958,-84.817Z" style="fill:#99c2a2;fill-opacity:0.7;"/><path d="M4691.37,1064.95l113.583,-0l56.792,73.004l-56.792,73.004l-113.583,0l-56.75,-73.004l56.75,-73.004Z" style="fill:#99c2a2;fill-opacity:0.7;"/><path d="M4701.95,796.321l92.417,-0l46.166,59.383l-46.166,59.379l-92.417,0l-46.167,-59.379l46.167,-59.383Z" style="fill:#99c2a2;fill-opacity:0.7;"/><path d="M4713.99,529.513l68.375,-0l34.167,43.941l-34.167,43.942l-68.375,-0l-34.167,-43.942l34.167,-43.941Z" style="fill:#99c2a2;fill-opacity:0.7;"/><path d="M4727.41,264.547l41.501,-0l20.791,26.661l-20.792,26.69l-41.5,-0l-20.75,-26.69l20.75,-26.661Z" style="fill:#99c2a2;fill-opacity:0.7;"/><path d="M4741.2,0l13.958,0l6.959,8.989l-6.958,8.962l-13.959,0l-7,-8.962l7,-8.989Z" style="fill:#99c2a2;fill-opacity:0.7;"/><path d="M5020.74,1206.07l113.583,-0l56.792,73.004l-56.792,72.975l-113.583,0l-56.792,-72.975l56.792,-73.004Z" style="fill:#99c2a2;fill-opacity:0.7;"/><path d="M5031.32,937.446l92.375,-0l46.208,59.379l-46.208,59.383l-92.375,0l-46.208,-59.383l46.208,-59.379Z" style="fill:#99c2a2;fill-opacity:0.7;"/><path d="M5043.37,670.638l68.333,-0l34.167,43.941l-34.167,43.942l-68.333,-0l-34.208,-43.942l34.208,-43.941Z" style="fill:#99c2a2;fill-opacity:0.7;"/><path d="M5056.78,405.644l41.5,-0l20.751,26.689l-20.751,26.688l-41.5,-0l-20.749,-26.688l20.749,-26.689Z" style="fill:#99c2a2;fill-opacity:0.7;"/><path d="M5070.53,141.123l13.958,0l7,8.99l-7,8.962l-13.958,-0l-7.001,-8.962l7.001,-8.99Z" style="fill:#99c2a2;fill-opacity:0.7;"/><path d="M5340.91,1335.38l131.916,0l66,84.817l-66,84.783l-131.917,0l-65.999,-84.783l65.999,-84.817Z" style="fill:#99c2a2;fill-opacity:0.7;"/><path d="M5350.07,1064.95l113.583,-0l56.792,73.004l-56.792,73.004l-113.583,0l-56.792,-73.004l56.792,-73.004Z" style="fill:#99c2a2;fill-opacity:0.7;"/><path d="M5360.7,796.321l92.375,-0l46.167,59.383l-46.167,59.379l-92.375,0l-46.208,-59.379l46.208,-59.383Z" style="fill:#99c2a2;fill-opacity:0.7;"/><path d="M5372.7,529.513l68.375,-0l34.167,43.941l-34.209,43.942l-68.333,-0l-34.167,-43.942l34.167,-43.941Z" style="fill:#99c2a2;fill-opacity:0.7;"/><path d="M5386.12,264.547l41.541,-0l20.709,26.661l-20.709,26.69l-41.541,-0l-20.75,-26.69l20.75,-26.661Z" style="fill:#99c2a2;fill-opacity:0.7;"/><path d="M5399.87,0l13.958,0l7,8.989l-7,8.962l-13.958,0l-6.958,-8.962l6.958,-8.989Z" style="fill:#99c2a2;fill-opacity:0.7;"/><path d="M5679.41,1206.07l113.583,-0l56.792,73.004l-56.792,72.975l-113.583,0l-56.751,-72.975l56.751,-73.004Z" style="fill:#99c2a2;fill-opacity:0.7;"/><path d="M5690.03,937.446l92.376,-0l46.208,59.379l-46.208,59.383l-92.376,0l-46.208,-59.383l46.208,-59.379Z" style="fill:#99c2a2;fill-opacity:0.7;"/><path d="M5702.07,670.638l68.333,-0l34.167,43.941l-34.167,43.942l-68.333,-0l-34.208,-43.942l34.208,-43.941Z" style="fill:#99c2a2;fill-opacity:0.7;"/><path d="M5715.45,405.644l41.542,-0l20.75,26.689l-20.75,26.688l-41.542,-0l-20.708,-26.688l20.708,-26.689Z" style="fill:#99c2a2;fill-opacity:0.7;"/><path d="M5729.28,141.123l13.958,0l6.958,8.99l-6.958,8.962l-13.958,-0l-7.001,-8.962l7.001,-8.99Z" style="fill:#99c2a2;fill-opacity:0.7;"/><path d="M65.981,1336.55l131.925,0l65.981,84.817l-65.981,84.783l-131.925,0l-65.981,-84.783l65.981,-84.817Z" style="fill:#99c2a2;fill-opacity:0.7;"/><path d="M75.16,1066.12l113.567,-0l56.765,73.004l-56.765,73.004l-113.567,0l-56.802,-73.004l56.802,-73.004Z" style="fill:#99c2a2;fill-opacity:0.7;"/><path d="M85.73,797.521l92.389,-0l46.194,59.354l-46.194,59.379l-92.389,0l-46.156,-59.379l46.156,-59.354Z" style="fill:#99c2a2;fill-opacity:0.7;"/><path d="M97.768,530.713l68.351,-0l34.156,43.941l-34.156,43.917l-68.351,-0l-34.194,-43.917l34.194,-43.941Z" style="fill:#99c2a2;fill-opacity:0.7;"/><path d="M111.198,265.72l41.529,0l20.728,26.69l-20.728,26.661l-41.529,0l-20.765,-26.661l20.765,-26.69Z" style="fill:#99c2a2;fill-opacity:0.7;"/><path d="M124.965,1.2l13.957,0l6.996,8.962l-6.996,8.961l-13.957,0l-6.959,-8.961l6.959,-8.962Z" style="fill:#99c2a2;fill-opacity:0.7;"/><path d="M404.503,1207.24l113.567,-0l56.8,73.004l-56.8,73.004l-113.567,0l-56.804,-73.004l56.804,-73.004Z" style="fill:#99c2a2;fill-opacity:0.7;"/><path d="M415.108,938.621l92.354,-0l46.229,59.379l-46.229,59.379l-92.355,0l-46.191,-59.379l46.191,-59.379Z" style="fill:#99c2a2;fill-opacity:0.7;"/><path d="M427.108,671.838l68.391,-0l34.154,43.916l-34.154,43.942l-68.392,-0l-34.191,-43.942l34.191,-43.916Z" style="fill:#99c2a2;fill-opacity:0.7;"/><path d="M440.541,406.844l41.492,0l20.762,26.66l-20.762,26.692l-41.492,-0l-20.767,-26.692l20.767,-26.66Z" style="fill:#99c2a2;fill-opacity:0.7;"/><path d="M454.308,142.295l13.954,0l7,8.99l-7,8.961l-13.954,0l-6.959,-8.961l6.959,-8.99Z" style="fill:#99c2a2;fill-opacity:0.7;"/><path d="M726.02,1336.25l131.963,0l65.941,84.813l-65.941,84.812l-131.963,0l-65.983,-84.812l65.983,-84.813Z" style="fill:#99c2a2;fill-opacity:0.7;"/><path d="M735.199,1065.84l113.492,-0l56.837,72.979l-56.837,73.004l-113.492,-0l-56.804,-73.004l56.804,-72.979Z" style="fill:#99c2a2;fill-opacity:0.7;"/><path d="M745.766,797.217l92.392,-0l46.191,59.379l-46.191,59.354l-92.392,0l-46.154,-59.354l46.154,-59.379Z" style="fill:#99c2a2;fill-opacity:0.7;"/><path d="M757.766,530.408l68.392,0l34.191,43.942l-34.191,43.942l-68.392,-0l-34.154,-43.942l34.154,-43.942Z" style="fill:#99c2a2;fill-opacity:0.7;"/><path d="M771.237,265.413l41.491,0l20.763,26.69l-20.763,26.689l-41.491,0l-20.767,-26.689l20.767,-26.69Z" style="fill:#99c2a2;fill-opacity:0.7;"/><path d="M785.003,0.893l13.955,0l7,8.962l-7,8.961l-13.955,0l-6.958,-8.961l6.958,-8.962Z" style="fill:#99c2a2;fill-opacity:0.7;"/></svg>