<svg width="360" height="246" viewBox="0 0 360 246" fill="none" xmlns="http://www.w3.org/2000/svg">
<g clip-path="url(#clip0_546_41537)">
<path fill-rule="evenodd" clip-rule="evenodd" d="M283.168 3.45459L294.814 3.45459L300.637 12.3926L294.814 21.3286L283.168 21.3286L277.344 12.3926L283.168 3.45459Z" fill="#F8A53A" fill-opacity="0.3"/>
<path fill-rule="evenodd" clip-rule="evenodd" d="M283.337 23.9326L294.645 23.9326L300.299 32.6106L294.645 41.2886L283.337 41.2886L277.683 32.6106L283.337 23.9326Z" fill="#F8A53A" fill-opacity="0.3"/>
<path fill-rule="evenodd" clip-rule="evenodd" d="M283.549 44.4785L294.433 44.4785L299.874 52.8305L294.433 61.1825L283.549 61.1825L278.107 52.8305L283.549 44.4785Z" fill="#F8A53A" fill-opacity="0.3"/>
<path fill-rule="evenodd" clip-rule="evenodd" d="M283.825 65.1206L294.157 65.1206L299.324 73.0506L294.157 80.9806L283.825 80.9806L278.658 73.0506L283.825 65.1206Z" fill="#F8A53A" fill-opacity="0.3"/>
<path fill-rule="evenodd" clip-rule="evenodd" d="M284.163 85.8608L293.819 85.8608L298.644 93.2689L293.819 100.679L284.163 100.679L279.335 93.2689L284.163 85.8608Z" fill="#F8A53A" fill-opacity="0.3"/>
<path fill-rule="evenodd" clip-rule="evenodd" d="M284.567 106.699L293.415 106.699L297.838 113.489L293.415 120.281L284.567 120.281L280.141 113.489L284.567 106.699Z" fill="#F8A53A" fill-opacity="0.3"/>
<path fill-rule="evenodd" clip-rule="evenodd" d="M285.032 127.635L292.947 127.635L296.906 133.709L292.947 139.785L285.032 139.785L281.073 133.709L285.032 127.635Z" fill="#F8A53A" fill-opacity="0.3"/>
<path fill-rule="evenodd" clip-rule="evenodd" d="M285.583 148.699L292.397 148.699L295.805 153.929L292.397 159.157L285.583 159.157L282.175 153.929L285.583 148.699Z" fill="#F8A53A" fill-opacity="0.3"/>
<path fill-rule="evenodd" clip-rule="evenodd" d="M286.219 169.893L291.763 169.893L294.534 174.149L291.763 178.403L286.219 178.403L283.448 174.149L286.219 169.893Z" fill="#F8A53A" fill-opacity="0.3"/>
<path fill-rule="evenodd" clip-rule="evenodd" d="M286.939 191.221L291.042 191.221L293.092 194.367L291.042 197.515L286.939 197.515L284.89 194.367L286.939 191.221Z" fill="#F8A53A" fill-opacity="0.3"/>
<path fill-rule="evenodd" clip-rule="evenodd" d="M287.745 212.675L290.237 212.675L291.483 214.587L290.237 216.497L287.745 216.497L286.499 214.587L287.745 212.675Z" fill="#F8A53A" fill-opacity="0.3"/>
<path fill-rule="evenodd" clip-rule="evenodd" d="M288.571 234.163L289.411 234.163L289.828 234.807L289.411 235.449L288.571 235.449L288.153 234.807L288.571 234.163Z" fill="#F8A53A" fill-opacity="0.3"/>
<path fill-rule="evenodd" clip-rule="evenodd" d="M263.407 13.5645L275.054 13.5645L280.877 22.5005L275.054 31.4384L263.407 31.4384L257.582 22.5005L263.407 13.5645Z" fill="#F8A53A" fill-opacity="0.3"/>
<path fill-rule="evenodd" clip-rule="evenodd" d="M263.576 34.0425L274.884 34.0425L280.536 42.7205L274.884 51.3985L263.576 51.3985L257.92 42.7205L263.576 34.0425Z" fill="#F8A53A" fill-opacity="0.3"/>
<path fill-rule="evenodd" clip-rule="evenodd" d="M263.786 54.5864L274.672 54.5864L280.114 62.9404L274.672 71.2924L263.786 71.2924L258.344 62.9404L263.786 54.5864Z" fill="#F8A53A" fill-opacity="0.3"/>
<path fill-rule="evenodd" clip-rule="evenodd" d="M264.064 75.2305L274.397 75.2305L279.563 83.1584L274.397 91.0885L264.064 91.0885L258.895 83.1584L264.064 75.2305Z" fill="#F8A53A" fill-opacity="0.3"/>
<path fill-rule="evenodd" clip-rule="evenodd" d="M264.403 95.9707L274.056 95.9707L278.884 103.381L274.056 110.789L264.403 110.789L259.575 103.381L264.403 95.9707Z" fill="#F8A53A" fill-opacity="0.3"/>
<path fill-rule="evenodd" clip-rule="evenodd" d="M264.804 116.809L273.654 116.809L278.078 123.599L273.654 130.391L264.804 130.391L260.381 123.599L264.804 116.809Z" fill="#F8A53A" fill-opacity="0.3"/>
<path fill-rule="evenodd" clip-rule="evenodd" d="M265.271 137.743L273.189 137.743L277.146 143.819L273.189 149.895L265.271 149.895L261.313 143.819L265.271 137.743Z" fill="#F8A53A" fill-opacity="0.3"/>
<path fill-rule="evenodd" clip-rule="evenodd" d="M265.822 158.809L272.636 158.809L276.044 164.039L272.636 169.267L265.822 169.267L262.414 164.039L265.822 158.809Z" fill="#F8A53A" fill-opacity="0.3"/>
<path fill-rule="evenodd" clip-rule="evenodd" d="M266.459 180.003L272 180.003L274.771 184.257L272 188.511L266.459 188.511L263.687 184.257L266.459 180.003Z" fill="#F8A53A" fill-opacity="0.3"/>
<path fill-rule="evenodd" clip-rule="evenodd" d="M267.179 201.329L271.28 201.329L273.331 204.479L271.28 207.625L267.179 207.625L265.127 204.479L267.179 201.329Z" fill="#F8A53A" fill-opacity="0.3"/>
<path fill-rule="evenodd" clip-rule="evenodd" d="M267.985 222.784L270.474 222.784L271.72 224.696L270.474 226.608L267.985 226.608L266.739 224.696L267.985 222.784Z" fill="#F8A53A" fill-opacity="0.3"/>
<path fill-rule="evenodd" clip-rule="evenodd" d="M268.81 244.272L269.648 244.272L270.068 244.914L269.648 245.56L268.81 245.56L268.393 244.914L268.81 244.272Z" fill="#F8A53A" fill-opacity="0.3"/>
<path fill-rule="evenodd" clip-rule="evenodd" d="M243.644 3.45459L255.291 3.45459L261.114 12.3926L255.291 21.3286L243.644 21.3286L237.821 12.3926L243.644 3.45459Z" fill="#F8A53A" fill-opacity="0.3"/>
<path fill-rule="evenodd" clip-rule="evenodd" d="M243.814 23.9326L255.121 23.9326L260.778 32.6106L255.121 41.2886L243.814 41.2886L238.16 32.6106L243.814 23.9326Z" fill="#F8A53A" fill-opacity="0.3"/>
<path fill-rule="evenodd" clip-rule="evenodd" d="M244.026 44.4785L254.909 44.4785L260.353 52.8305L254.909 61.1825L244.026 61.1825L238.584 52.8305L244.026 44.4785Z" fill="#F8A53A" fill-opacity="0.3"/>
<path fill-rule="evenodd" clip-rule="evenodd" d="M244.301 65.1206L254.634 65.1206L259.8 73.0506L254.634 80.9806L244.301 80.9806L239.135 73.0506L244.301 65.1206Z" fill="#F8A53A" fill-opacity="0.3"/>
<path fill-rule="evenodd" clip-rule="evenodd" d="M244.642 85.8608L254.295 85.8608L259.123 93.2689L254.295 100.679L244.642 100.679L239.814 93.2689L244.642 85.8608Z" fill="#F8A53A" fill-opacity="0.3"/>
<path fill-rule="evenodd" clip-rule="evenodd" d="M245.044 106.699L253.894 106.699L258.317 113.489L253.894 120.281L245.044 120.281L240.618 113.489L245.044 106.699Z" fill="#F8A53A" fill-opacity="0.3"/>
<path fill-rule="evenodd" clip-rule="evenodd" d="M245.509 127.635L253.426 127.635L257.385 133.709L253.426 139.785L245.509 139.785L241.552 133.709L245.509 127.635Z" fill="#F8A53A" fill-opacity="0.3"/>
<path fill-rule="evenodd" clip-rule="evenodd" d="M246.06 148.699L252.876 148.699L256.282 153.929L252.876 159.157L246.06 159.157L242.654 153.929L246.06 148.699Z" fill="#F8A53A" fill-opacity="0.3"/>
<path fill-rule="evenodd" clip-rule="evenodd" d="M246.696 169.893L252.239 169.893L255.011 174.149L252.239 178.403L246.696 178.403L243.924 174.149L246.696 169.893Z" fill="#F8A53A" fill-opacity="0.3"/>
<path fill-rule="evenodd" clip-rule="evenodd" d="M247.418 191.221L251.519 191.221L253.571 194.367L251.519 197.515L247.418 197.515L245.366 194.367L247.418 191.221Z" fill="#F8A53A" fill-opacity="0.3"/>
<path fill-rule="evenodd" clip-rule="evenodd" d="M248.222 212.675L250.714 212.675L251.959 214.587L250.714 216.497L248.222 216.497L246.978 214.587L248.222 212.675Z" fill="#F8A53A" fill-opacity="0.3"/>
<path fill-rule="evenodd" clip-rule="evenodd" d="M249.05 234.163L249.887 234.163L250.305 234.807L249.887 235.449L249.05 235.449L248.63 234.807L249.05 234.163Z" fill="#F8A53A" fill-opacity="0.3"/>
<path fill-rule="evenodd" clip-rule="evenodd" d="M223.805 13.5845L235.451 13.5845L241.274 22.5225L235.451 31.4605L223.805 31.4605L217.982 22.5225L223.805 13.5845Z" fill="#F8A53A" fill-opacity="0.3"/>
<path fill-rule="evenodd" clip-rule="evenodd" d="M223.972 34.0645L235.282 34.0645L240.934 42.7404L235.282 51.4185L223.972 51.4185L218.318 42.7404L223.972 34.0645Z" fill="#F8A53A" fill-opacity="0.3"/>
<path fill-rule="evenodd" clip-rule="evenodd" d="M224.186 54.6084L235.07 54.6084L240.512 62.9624L235.07 71.3144L224.186 71.3144L218.742 62.9624L224.186 54.6084Z" fill="#F8A53A" fill-opacity="0.3"/>
<path fill-rule="evenodd" clip-rule="evenodd" d="M224.462 75.2505L234.795 75.2505L239.961 83.1805L234.795 91.1105L224.462 91.1105L219.295 83.1805L224.462 75.2505Z" fill="#F8A53A" fill-opacity="0.3"/>
<path fill-rule="evenodd" clip-rule="evenodd" d="M224.8 95.9907L234.454 95.9907L239.281 103.403L234.454 110.811L224.8 110.811L219.972 103.403L224.8 95.9907Z" fill="#F8A53A" fill-opacity="0.3"/>
<path fill-rule="evenodd" clip-rule="evenodd" d="M225.202 116.829L234.052 116.829L238.476 123.621L234.052 130.411L225.202 130.411L220.778 123.621L225.202 116.829Z" fill="#F8A53A" fill-opacity="0.3"/>
<path fill-rule="evenodd" clip-rule="evenodd" d="M225.669 137.765L233.585 137.765L237.544 143.839L233.585 149.915L225.669 149.915L221.71 143.839L225.669 137.765Z" fill="#F8A53A" fill-opacity="0.3"/>
<path fill-rule="evenodd" clip-rule="evenodd" d="M226.22 158.829L233.034 158.829L236.442 164.061L233.034 169.289L226.22 169.289L222.812 164.061L226.22 158.829Z" fill="#F8A53A" fill-opacity="0.3"/>
<path fill-rule="evenodd" clip-rule="evenodd" d="M226.856 180.024L232.398 180.024L235.169 184.278L232.398 188.532L226.856 188.532L224.085 184.278L226.856 180.024Z" fill="#F8A53A" fill-opacity="0.3"/>
<path fill-rule="evenodd" clip-rule="evenodd" d="M227.577 201.351L231.678 201.351L233.729 204.497L231.678 207.647L227.577 207.647L225.525 204.497L227.577 201.351Z" fill="#F8A53A" fill-opacity="0.3"/>
<path fill-rule="evenodd" clip-rule="evenodd" d="M228.382 222.807L230.874 222.807L232.118 224.719L230.874 226.629L228.382 226.629L227.136 224.719L228.382 222.807Z" fill="#F8A53A" fill-opacity="0.3"/>
<path fill-rule="evenodd" clip-rule="evenodd" d="M229.208 244.295L230.046 244.295L230.466 244.937L230.046 245.579L229.208 245.579L228.791 244.937L229.208 244.295Z" fill="#F8A53A" fill-opacity="0.3"/>
<path fill-rule="evenodd" clip-rule="evenodd" d="M204.042 3.47656L215.688 3.47656L221.514 12.4125L215.688 21.3506L204.042 21.3506L198.219 12.4125L204.042 3.47656Z" fill="#F8A53A" fill-opacity="0.3"/>
<path fill-rule="evenodd" clip-rule="evenodd" d="M204.211 23.9546L215.519 23.9546L221.173 32.6326L215.519 41.3106L204.211 41.3106L198.557 32.6326L204.211 23.9546Z" fill="#F8A53A" fill-opacity="0.3"/>
<path fill-rule="evenodd" clip-rule="evenodd" d="M204.424 44.4985L215.309 44.4985L220.751 52.8506L215.309 61.2046L204.424 61.2046L198.982 52.8506L204.424 44.4985Z" fill="#F8A53A" fill-opacity="0.3"/>
<path fill-rule="evenodd" clip-rule="evenodd" d="M204.699 65.1426L215.032 65.1426L220.198 73.0706L215.032 81.0006L204.699 81.0006L199.532 73.0706L204.699 65.1426Z" fill="#F8A53A" fill-opacity="0.3"/>
<path fill-rule="evenodd" clip-rule="evenodd" d="M205.04 85.8828L214.693 85.8828L219.521 93.2908L214.693 100.701L205.04 100.701L200.212 93.2908L205.04 85.8828Z" fill="#F8A53A" fill-opacity="0.3"/>
<path fill-rule="evenodd" clip-rule="evenodd" d="M205.442 106.721L214.292 106.721L218.715 113.511L214.292 120.303L205.442 120.303L201.016 113.511L205.442 106.721Z" fill="#F8A53A" fill-opacity="0.3"/>
<path fill-rule="evenodd" clip-rule="evenodd" d="M205.906 127.655L213.824 127.655L217.783 133.731L213.824 139.805L205.906 139.805L201.95 133.731L205.906 127.655Z" fill="#F8A53A" fill-opacity="0.3"/>
<path fill-rule="evenodd" clip-rule="evenodd" d="M206.46 148.721L213.274 148.721L216.679 153.949L213.274 159.177L206.46 159.177L203.051 153.949L206.46 148.721Z" fill="#F8A53A" fill-opacity="0.3"/>
<path fill-rule="evenodd" clip-rule="evenodd" d="M207.094 169.915L212.637 169.915L215.409 174.169L212.637 178.423L207.094 178.423L204.322 174.169L207.094 169.915Z" fill="#F8A53A" fill-opacity="0.3"/>
<path fill-rule="evenodd" clip-rule="evenodd" d="M207.816 191.24L211.917 191.24L213.966 194.388L211.917 197.536L207.816 197.536L205.764 194.388L207.816 191.24Z" fill="#F8A53A" fill-opacity="0.3"/>
<path fill-rule="evenodd" clip-rule="evenodd" d="M208.622 212.696L211.111 212.696L212.357 214.608L211.111 216.518L208.622 216.518L207.376 214.608L208.622 212.696Z" fill="#F8A53A" fill-opacity="0.3"/>
<path fill-rule="evenodd" clip-rule="evenodd" d="M209.448 234.185L210.285 234.185L210.703 234.827L210.285 235.471L209.448 235.471L209.028 234.827L209.448 234.185Z" fill="#F8A53A" fill-opacity="0.3"/>
<path fill-rule="evenodd" clip-rule="evenodd" d="M184.282 13.5845L195.928 13.5845L201.751 22.5225L195.928 31.4605L184.282 31.4605L178.458 22.5225L184.282 13.5845Z" fill="#F8A53A" fill-opacity="0.3"/>
<path fill-rule="evenodd" clip-rule="evenodd" d="M184.451 34.0645L195.759 34.0645L201.413 42.7404L195.759 51.4185L184.451 51.4185L178.797 42.7404L184.451 34.0645Z" fill="#F8A53A" fill-opacity="0.3"/>
<path fill-rule="evenodd" clip-rule="evenodd" d="M184.663 54.6084L195.547 54.6084L200.988 62.9624L195.547 71.3144L184.663 71.3144L179.221 62.9624L184.663 54.6084Z" fill="#F8A53A" fill-opacity="0.3"/>
<path fill-rule="evenodd" clip-rule="evenodd" d="M184.939 75.2505L195.271 75.2505L200.438 83.1805L195.271 91.1105L184.939 91.1105L179.772 83.1805L184.939 75.2505Z" fill="#F8A53A" fill-opacity="0.3"/>
<path fill-rule="evenodd" clip-rule="evenodd" d="M185.277 95.9907L194.933 95.9907L199.758 103.403L194.933 110.811L185.277 110.811L180.451 103.403L185.277 95.9907Z" fill="#F8A53A" fill-opacity="0.3"/>
<path fill-rule="evenodd" clip-rule="evenodd" d="M185.681 116.829L194.529 116.829L198.955 123.621L194.529 130.411L185.681 130.411L181.255 123.621L185.681 116.829Z" fill="#F8A53A" fill-opacity="0.3"/>
<path fill-rule="evenodd" clip-rule="evenodd" d="M186.146 137.765L194.064 137.765L198.02 143.839L194.064 149.915L186.146 149.915L182.187 143.839L186.146 137.765Z" fill="#F8A53A" fill-opacity="0.3"/>
<path fill-rule="evenodd" clip-rule="evenodd" d="M186.697 158.829L193.513 158.829L196.919 164.061L193.513 169.289L186.697 169.289L183.291 164.061L186.697 158.829Z" fill="#F8A53A" fill-opacity="0.3"/>
<path fill-rule="evenodd" clip-rule="evenodd" d="M187.333 180.024L192.877 180.024L195.648 184.278L192.877 188.532L187.333 188.532L184.562 184.278L187.333 180.024Z" fill="#F8A53A" fill-opacity="0.3"/>
<path fill-rule="evenodd" clip-rule="evenodd" d="M188.053 201.351L192.156 201.351L194.206 204.497L192.156 207.647L188.053 207.647L186.004 204.497L188.053 201.351Z" fill="#F8A53A" fill-opacity="0.3"/>
<path fill-rule="evenodd" clip-rule="evenodd" d="M188.859 222.807L191.351 222.807L192.597 224.719L191.351 226.629L188.859 226.629L187.615 224.719L188.859 222.807Z" fill="#F8A53A" fill-opacity="0.3"/>
<path fill-rule="evenodd" clip-rule="evenodd" d="M189.685 244.295L190.525 244.295L190.942 244.937L190.525 245.579L189.685 245.579L189.267 244.937L189.685 244.295Z" fill="#F8A53A" fill-opacity="0.3"/>
<path fill-rule="evenodd" clip-rule="evenodd" d="M164.521 3.47656L176.168 3.47656L181.991 12.4125L176.168 21.3506L164.521 21.3506L158.696 12.4125L164.521 3.47656Z" fill="#F8A53A" fill-opacity="0.3"/>
<path fill-rule="evenodd" clip-rule="evenodd" d="M164.69 23.9546L175.996 23.9546L181.652 32.6326L175.996 41.3106L164.69 41.3106L159.036 32.6326L164.69 23.9546Z" fill="#F8A53A" fill-opacity="0.3"/>
<path fill-rule="evenodd" clip-rule="evenodd" d="M164.9 44.4985L175.786 44.4985L181.228 52.8506L175.786 61.2046L164.9 61.2046L159.459 52.8506L164.9 44.4985Z" fill="#F8A53A" fill-opacity="0.3"/>
<path fill-rule="evenodd" clip-rule="evenodd" d="M165.178 65.1426L175.511 65.1426L180.677 73.0706L175.511 81.0006L165.178 81.0006L160.009 73.0706L165.178 65.1426Z" fill="#F8A53A" fill-opacity="0.3"/>
<path fill-rule="evenodd" clip-rule="evenodd" d="M165.517 85.8828L175.17 85.8828L179.998 93.2908L175.17 100.701L165.517 100.701L160.689 93.2908L165.517 85.8828Z" fill="#F8A53A" fill-opacity="0.3"/>
<path fill-rule="evenodd" clip-rule="evenodd" d="M165.921 106.721L174.768 106.721L179.194 113.511L174.768 120.303L165.921 120.303L161.495 113.511L165.921 106.721Z" fill="#F8A53A" fill-opacity="0.3"/>
<path fill-rule="evenodd" clip-rule="evenodd" d="M166.385 127.655L174.303 127.655L178.26 133.731L174.303 139.805L166.385 139.805L162.427 133.731L166.385 127.655Z" fill="#F8A53A" fill-opacity="0.3"/>
<path fill-rule="evenodd" clip-rule="evenodd" d="M166.936 148.721L173.75 148.721L177.158 153.949L173.75 159.177L166.936 159.177L163.528 153.949L166.936 148.721Z" fill="#F8A53A" fill-opacity="0.3"/>
<path fill-rule="evenodd" clip-rule="evenodd" d="M167.573 169.915L173.114 169.915L175.888 174.169L173.114 178.423L167.573 178.423L164.801 174.169L167.573 169.915Z" fill="#F8A53A" fill-opacity="0.3"/>
<path fill-rule="evenodd" clip-rule="evenodd" d="M168.293 191.24L172.394 191.24L174.445 194.388L172.394 197.536L168.293 197.536L166.241 194.388L168.293 191.24Z" fill="#F8A53A" fill-opacity="0.3"/>
<path fill-rule="evenodd" clip-rule="evenodd" d="M169.098 212.696L171.588 212.696L172.834 214.608L171.588 216.518L169.098 216.518L167.852 214.608L169.098 212.696Z" fill="#F8A53A" fill-opacity="0.3"/>
<path fill-rule="evenodd" clip-rule="evenodd" d="M169.924 234.185L170.762 234.185L171.182 234.827L170.762 235.471L169.924 235.471L169.507 234.827L169.924 234.185Z" fill="#F8A53A" fill-opacity="0.3"/>
<path fill-rule="evenodd" clip-rule="evenodd" d="M144.679 13.6064L156.326 13.6064L162.149 22.5445L156.326 31.4825L144.679 31.4825L138.854 22.5445L144.679 13.6064Z" fill="#F8A53A" fill-opacity="0.3"/>
<path fill-rule="evenodd" clip-rule="evenodd" d="M144.849 34.0845L156.156 34.0845L161.81 42.7625L156.156 51.4405L144.849 51.4405L139.195 42.7625L144.849 34.0845Z" fill="#F8A53A" fill-opacity="0.3"/>
<path fill-rule="evenodd" clip-rule="evenodd" d="M145.058 54.6309L155.944 54.6309L161.386 62.9849L155.944 71.3348L145.058 71.3348L139.617 62.9849L145.058 54.6309Z" fill="#F8A53A" fill-opacity="0.3"/>
<path fill-rule="evenodd" clip-rule="evenodd" d="M145.339 75.2725L155.669 75.2725L160.835 83.2025L155.669 91.1324L145.339 91.1324L140.17 83.2025L145.339 75.2725Z" fill="#F8A53A" fill-opacity="0.3"/>
<path fill-rule="evenodd" clip-rule="evenodd" d="M145.675 96.0127L155.33 96.0127L160.158 103.421L155.33 110.831L145.675 110.831L140.847 103.421L145.675 96.0127Z" fill="#F8A53A" fill-opacity="0.3"/>
<path fill-rule="evenodd" clip-rule="evenodd" d="M146.079 116.851L154.929 116.851L159.35 123.643L154.929 130.433L146.079 130.433L141.655 123.643L146.079 116.851Z" fill="#F8A53A" fill-opacity="0.3"/>
<path fill-rule="evenodd" clip-rule="evenodd" d="M146.546 137.787L154.459 137.787L158.418 143.861L154.459 149.937L146.546 149.937L142.587 143.861L146.546 137.787Z" fill="#F8A53A" fill-opacity="0.3"/>
<path fill-rule="evenodd" clip-rule="evenodd" d="M147.097 158.849L153.908 158.849L157.317 164.081L153.908 169.311L147.097 169.311L143.689 164.081L147.097 158.849Z" fill="#F8A53A" fill-opacity="0.3"/>
<path fill-rule="evenodd" clip-rule="evenodd" d="M147.731 180.047L153.274 180.047L156.046 184.301L153.274 188.555L147.731 188.555L144.962 184.301L147.731 180.047Z" fill="#F8A53A" fill-opacity="0.3"/>
<path fill-rule="evenodd" clip-rule="evenodd" d="M148.451 201.373L152.554 201.373L154.604 204.519L152.554 207.667L148.451 207.667L146.402 204.519L148.451 201.373Z" fill="#F8A53A" fill-opacity="0.3"/>
<path fill-rule="evenodd" clip-rule="evenodd" d="M149.257 222.826L151.746 222.826L152.992 224.74L151.746 226.65L149.257 226.65L148.011 224.74L149.257 222.826Z" fill="#F8A53A" fill-opacity="0.3"/>
<path fill-rule="evenodd" clip-rule="evenodd" d="M150.083 244.316L150.92 244.316L151.34 244.958L150.92 245.6L150.083 245.6L149.663 244.958L150.083 244.316Z" fill="#F8A53A" fill-opacity="0.3"/>
<path fill-rule="evenodd" clip-rule="evenodd" d="M124.919 3.49463L136.567 3.49463L142.391 12.4326L136.567 21.3706L124.919 21.3706L119.096 12.4326L124.919 3.49463Z" fill="#F8A53A" fill-opacity="0.3"/>
<path fill-rule="evenodd" clip-rule="evenodd" d="M125.088 23.9766L136.398 23.9766L142.05 32.6545L136.398 41.3305L125.088 41.3305L119.434 32.6545L125.088 23.9766Z" fill="#F8A53A" fill-opacity="0.3"/>
<path fill-rule="evenodd" clip-rule="evenodd" d="M125.302 44.5205L136.184 44.5205L141.625 52.8725L136.184 61.2245L125.302 61.2245L119.861 52.8725L125.302 44.5205Z" fill="#F8A53A" fill-opacity="0.3"/>
<path fill-rule="evenodd" clip-rule="evenodd" d="M125.578 65.1626L135.911 65.1626L141.075 73.0906L135.911 81.0206L125.578 81.0206L120.412 73.0906L125.578 65.1626Z" fill="#F8A53A" fill-opacity="0.3"/>
<path fill-rule="evenodd" clip-rule="evenodd" d="M125.914 85.9028L135.57 85.9028L140.398 93.3128L135.57 100.721L125.914 100.721L121.089 93.3128L125.914 85.9028Z" fill="#F8A53A" fill-opacity="0.3"/>
<path fill-rule="evenodd" clip-rule="evenodd" d="M126.318 106.739L135.168 106.739L139.592 113.531L135.168 120.323L126.318 120.323L121.894 113.531L126.318 106.739Z" fill="#F8A53A" fill-opacity="0.3"/>
<path fill-rule="evenodd" clip-rule="evenodd" d="M126.786 127.675L134.701 127.675L138.66 133.751L134.701 139.825L126.786 139.825L122.827 133.751L126.786 127.675Z" fill="#F8A53A" fill-opacity="0.3"/>
<path fill-rule="evenodd" clip-rule="evenodd" d="M127.336 148.741L134.148 148.741L137.556 153.971L134.148 159.199L127.336 159.199L123.928 153.971L127.336 148.741Z" fill="#F8A53A" fill-opacity="0.3"/>
<path fill-rule="evenodd" clip-rule="evenodd" d="M127.97 169.935L133.514 169.935L136.285 174.189L133.514 178.443L127.97 178.443L125.201 174.189L127.97 169.935Z" fill="#F8A53A" fill-opacity="0.3"/>
<path fill-rule="evenodd" clip-rule="evenodd" d="M128.693 191.261L132.794 191.261L134.843 194.409L132.794 197.557L128.693 197.557L126.641 194.409L128.693 191.261Z" fill="#F8A53A" fill-opacity="0.3"/>
<path fill-rule="evenodd" clip-rule="evenodd" d="M129.496 212.719L131.988 212.719L133.234 214.629L131.988 216.541L129.496 216.541L128.253 214.629L129.496 212.719Z" fill="#F8A53A" fill-opacity="0.3"/>
<path fill-rule="evenodd" clip-rule="evenodd" d="M130.325 234.205L131.16 234.205L131.582 234.849L131.162 235.491L130.322 235.491L129.907 234.849L130.325 234.205Z" fill="#F8A53A" fill-opacity="0.3"/>
<path fill-rule="evenodd" clip-rule="evenodd" d="M105.158 13.6045L116.805 13.6045L122.628 22.5425L116.805 31.4825L105.158 31.4825L99.3351 22.5425L105.158 13.6045Z" fill="#F8A53A" fill-opacity="0.3"/>
<path fill-rule="evenodd" clip-rule="evenodd" d="M105.328 34.0845L116.635 34.0845L122.289 42.7625L116.635 51.4405L105.328 51.4405L99.6736 42.7625L105.328 34.0845Z" fill="#F8A53A" fill-opacity="0.3"/>
<path fill-rule="evenodd" clip-rule="evenodd" d="M105.54 54.6309L116.423 54.6309L121.867 62.9829L116.423 71.3348L105.54 71.3348L100.098 62.9828L105.54 54.6309Z" fill="#F8A53A" fill-opacity="0.3"/>
<path fill-rule="evenodd" clip-rule="evenodd" d="M105.815 75.2725L116.148 75.2725L121.314 83.2025L116.148 91.1305L105.815 91.1305L100.649 83.2025L105.815 75.2725Z" fill="#F8A53A" fill-opacity="0.3"/>
<path fill-rule="evenodd" clip-rule="evenodd" d="M106.156 96.0127L115.809 96.0127L120.637 103.421L115.809 110.829L106.156 110.829L101.328 103.421L106.156 96.0127Z" fill="#F8A53A" fill-opacity="0.3"/>
<path fill-rule="evenodd" clip-rule="evenodd" d="M106.558 116.849L115.405 116.849L119.832 123.641L115.405 130.431L106.558 130.431L102.132 123.641L106.558 116.849Z" fill="#F8A53A" fill-opacity="0.3"/>
<path fill-rule="evenodd" clip-rule="evenodd" d="M107.023 137.785L114.941 137.785L118.899 143.861L114.941 149.935L107.023 149.935L103.064 143.861L107.023 137.785Z" fill="#F8A53A" fill-opacity="0.3"/>
<path fill-rule="evenodd" clip-rule="evenodd" d="M107.576 158.849L114.39 158.849L117.798 164.079L114.39 169.311L107.576 169.311L104.168 164.079L107.576 158.849Z" fill="#F8A53A" fill-opacity="0.3"/>
<path fill-rule="evenodd" clip-rule="evenodd" d="M108.212 180.047L113.753 180.047L116.525 184.301L113.753 188.553L108.212 188.553L105.438 184.301L108.212 180.047Z" fill="#F8A53A" fill-opacity="0.3"/>
<path fill-rule="evenodd" clip-rule="evenodd" d="M108.932 201.371L113.033 201.371L115.085 204.519L113.033 207.667L108.932 207.667L106.881 204.519L108.932 201.371Z" fill="#F8A53A" fill-opacity="0.3"/>
<path fill-rule="evenodd" clip-rule="evenodd" d="M109.738 222.826L112.227 222.826L113.473 224.738L112.227 226.65L109.738 226.65L108.492 224.738L109.738 222.826Z" fill="#F8A53A" fill-opacity="0.3"/>
<path fill-rule="evenodd" clip-rule="evenodd" d="M110.564 244.316L111.401 244.316L111.819 244.958L111.401 245.6L110.564 245.6L110.144 244.958L110.564 244.316Z" fill="#F8A53A" fill-opacity="0.3"/>
<path fill-rule="evenodd" clip-rule="evenodd" d="M85.3978 3.49463L97.0464 3.49463L102.87 12.4326L97.0464 21.3706L85.3978 21.3706L79.5746 12.4326L85.3978 3.49463Z" fill="#F8A53A" fill-opacity="0.3"/>
<path fill-rule="evenodd" clip-rule="evenodd" d="M85.5671 23.9766L96.8749 23.9766L102.529 32.6545L96.8749 41.3305L85.5671 41.3305L79.9131 32.6545L85.5671 23.9766Z" fill="#F8A53A" fill-opacity="0.3"/>
<path fill-rule="evenodd" clip-rule="evenodd" d="M85.7792 44.5205L96.665 44.5205L102.104 52.8725L96.665 61.2245L85.7792 61.2245L80.3375 52.8725L85.7792 44.5205Z" fill="#F8A53A" fill-opacity="0.3"/>
<path fill-rule="evenodd" clip-rule="evenodd" d="M86.0547 65.1626L96.3875 65.1626L101.556 73.0906L96.3875 81.0206L86.0547 81.0206L80.8883 73.0906L86.0547 65.1626Z" fill="#F8A53A" fill-opacity="0.3"/>
<path fill-rule="evenodd" clip-rule="evenodd" d="M86.3955 85.9028L96.0489 85.9028L100.877 93.3128L96.0489 100.721L86.3955 100.721L81.5654 93.3128L86.3955 85.9028Z" fill="#F8A53A" fill-opacity="0.3"/>
<path fill-rule="evenodd" clip-rule="evenodd" d="M86.7949 106.739L95.6448 106.739L100.069 113.531L95.6448 120.323L86.7949 120.323L82.3733 113.531L86.7949 106.739Z" fill="#F8A53A" fill-opacity="0.3"/>
<path fill-rule="evenodd" clip-rule="evenodd" d="M87.2644 127.675L95.1799 127.675L99.1365 133.751L95.1799 139.825L87.2644 139.825L83.3055 133.751L87.2644 127.675Z" fill="#F8A53A" fill-opacity="0.3"/>
<path fill-rule="evenodd" clip-rule="evenodd" d="M87.8152 148.741L94.627 148.741L98.0352 153.971L94.627 159.199L87.8152 159.199L84.4071 153.971L87.8152 148.741Z" fill="#F8A53A" fill-opacity="0.3"/>
<path fill-rule="evenodd" clip-rule="evenodd" d="M88.4495 169.935L93.9928 169.935L96.7622 174.189L93.9928 178.443L88.4495 178.443L85.6778 174.189L88.4495 169.935Z" fill="#F8A53A" fill-opacity="0.3"/>
<path fill-rule="evenodd" clip-rule="evenodd" d="M89.1695 191.261L93.2729 191.261L95.3223 194.409L93.2729 197.557L89.1695 197.557L87.1201 194.409L89.1695 191.261Z" fill="#F8A53A" fill-opacity="0.3"/>
<path fill-rule="evenodd" clip-rule="evenodd" d="M89.9775 212.719L92.467 212.719L93.7129 214.629L92.467 216.541L89.9775 216.541L88.7316 214.629L89.9775 212.719Z" fill="#F8A53A" fill-opacity="0.3"/>
<path fill-rule="evenodd" clip-rule="evenodd" d="M90.8036 234.205L91.641 234.205L92.0608 234.849L91.641 235.491L90.8036 235.491L90.3838 234.849L90.8036 234.205Z" fill="#F8A53A" fill-opacity="0.3"/>
<path fill-rule="evenodd" clip-rule="evenodd" d="M65.5562 13.6265L77.2026 13.6265L83.0281 22.5645L77.2026 31.5005L65.5562 31.5005L59.733 22.5645L65.5562 13.6265Z" fill="#F8A53A" fill-opacity="0.3"/>
<path fill-rule="evenodd" clip-rule="evenodd" d="M65.7278 34.1064L77.0333 34.1064L82.6873 42.7845L77.0333 51.4625L65.7278 51.4625L60.0738 42.7845L65.7278 34.1064Z" fill="#F8A53A" fill-opacity="0.3"/>
<path fill-rule="evenodd" clip-rule="evenodd" d="M65.9376 54.6528L76.8234 54.6528L82.2651 63.0028L76.8234 71.3548L65.9376 71.3548L60.4959 63.0028L65.9376 54.6528Z" fill="#F8A53A" fill-opacity="0.3"/>
<path fill-rule="evenodd" clip-rule="evenodd" d="M66.2129 75.2944L76.5457 75.2944L81.7144 83.2224L76.5457 91.1524L66.2129 91.1524L61.0465 83.2224L66.2129 75.2944Z" fill="#F8A53A" fill-opacity="0.3"/>
<path fill-rule="evenodd" clip-rule="evenodd" d="M66.5537 96.0347L76.2071 96.0347L81.0349 103.443L76.2071 110.851L66.5537 110.851L61.7258 103.443L66.5537 96.0347Z" fill="#F8A53A" fill-opacity="0.3"/>
<path fill-rule="evenodd" clip-rule="evenodd" d="M66.9555 116.871L75.8032 116.871L80.2292 123.661L75.8032 130.453L66.9555 130.453L62.5294 123.661L66.9555 116.871Z" fill="#F8A53A" fill-opacity="0.3"/>
<path fill-rule="evenodd" clip-rule="evenodd" d="M67.4205 137.807L75.3383 137.807L79.2971 143.883L75.3383 149.957L67.4205 149.957L63.4639 143.883L67.4205 137.807Z" fill="#F8A53A" fill-opacity="0.3"/>
<path fill-rule="evenodd" clip-rule="evenodd" d="M67.9734 158.873L74.7874 158.873L78.1956 164.099L74.7874 169.331L67.9734 169.331L64.5652 164.099L67.9734 158.873Z" fill="#F8A53A" fill-opacity="0.3"/>
<path fill-rule="evenodd" clip-rule="evenodd" d="M68.6099 180.068L74.1509 180.068L76.9226 184.32L74.1509 188.572L68.6099 188.572L65.836 184.32L68.6099 180.068Z" fill="#F8A53A" fill-opacity="0.3"/>
<path fill-rule="evenodd" clip-rule="evenodd" d="M69.3299 201.393L73.431 201.393L75.4827 204.541L73.431 207.687L69.3299 207.687L67.2783 204.541L69.3299 201.393Z" fill="#F8A53A" fill-opacity="0.3"/>
<path fill-rule="evenodd" clip-rule="evenodd" d="M70.1357 222.849L72.6252 222.849L73.8711 224.759L72.6252 226.671L70.1357 226.671L68.8898 224.759L70.1357 222.849Z" fill="#F8A53A" fill-opacity="0.3"/>
<path fill-rule="evenodd" clip-rule="evenodd" d="M70.9619 244.337L71.7992 244.337L72.2168 244.981L71.7992 245.623L70.9619 245.623L70.5421 244.981L70.9619 244.337Z" fill="#F8A53A" fill-opacity="0.3"/>
<path fill-rule="evenodd" clip-rule="evenodd" d="M45.7957 3.5166L57.4444 3.5166L63.2676 12.4546L57.4444 21.3926L45.7957 21.3926L39.9703 12.4546L45.7957 3.5166Z" fill="#F8A53A" fill-opacity="0.3"/>
<path fill-rule="evenodd" clip-rule="evenodd" d="M45.9673 23.9966L57.2706 23.9966L62.9268 32.6726L57.2706 41.3506L45.9673 41.3506L40.3111 32.6726L45.9673 23.9966Z" fill="#F8A53A" fill-opacity="0.3"/>
<path fill-rule="evenodd" clip-rule="evenodd" d="M46.1771 44.5425L57.0629 44.5425L62.5046 52.8945L57.0629 61.2445L46.1771 61.2445L40.7354 52.8945L46.1771 44.5425Z" fill="#F8A53A" fill-opacity="0.3"/>
<path fill-rule="evenodd" clip-rule="evenodd" d="M46.4524 65.1826L56.7852 65.1826L61.9539 73.1126L56.7852 81.0426L46.4524 81.0426L41.286 73.1126L46.4524 65.1826Z" fill="#F8A53A" fill-opacity="0.3"/>
<path fill-rule="evenodd" clip-rule="evenodd" d="M46.7932 85.9229L56.4466 85.9229L61.2744 93.3329L56.4466 100.741L46.7932 100.741L41.9631 93.3329L46.7932 85.9229Z" fill="#F8A53A" fill-opacity="0.3"/>
<path fill-rule="evenodd" clip-rule="evenodd" d="M47.1951 106.761L56.0405 106.761L60.4666 113.553L56.0405 120.343L47.1951 120.343L42.7713 113.553L47.1951 106.761Z" fill="#F8A53A" fill-opacity="0.3"/>
<path fill-rule="evenodd" clip-rule="evenodd" d="M47.6621 127.697L55.5731 127.697L59.532 133.771L55.5731 139.847L47.6621 139.847L43.7033 133.771L47.6621 127.697Z" fill="#F8A53A" fill-opacity="0.3"/>
<path fill-rule="evenodd" clip-rule="evenodd" d="M48.2129 148.761L55.0247 148.761L58.4329 153.991L55.0247 159.219L48.2129 159.219L44.8048 153.991L48.2129 148.761Z" fill="#F8A53A" fill-opacity="0.3"/>
<path fill-rule="evenodd" clip-rule="evenodd" d="M48.8471 169.957L54.3905 169.957L57.1621 174.211L54.3905 178.465L48.8471 178.465L46.0755 174.211L48.8471 169.957Z" fill="#F8A53A" fill-opacity="0.3"/>
<path fill-rule="evenodd" clip-rule="evenodd" d="M49.5672 191.282L53.6706 191.282L55.72 194.43L53.6706 197.576L49.5672 197.576L47.5178 194.43L49.5672 191.282Z" fill="#F8A53A" fill-opacity="0.3"/>
<path fill-rule="evenodd" clip-rule="evenodd" d="M50.3752 212.738L52.8648 212.738L54.1084 214.65L52.8648 216.562L50.3752 216.562L49.1294 214.65L50.3752 212.738Z" fill="#F8A53A" fill-opacity="0.3"/>
<path fill-rule="evenodd" clip-rule="evenodd" d="M51.2013 234.227L52.0387 234.227L52.4585 234.871L52.0387 235.513L51.2013 235.513L50.7815 234.871L51.2013 234.227Z" fill="#F8A53A" fill-opacity="0.3"/>
<path fill-rule="evenodd" clip-rule="evenodd" d="M26.035 13.6265L37.6814 13.6265L43.5046 22.5645L37.6814 31.5005L26.035 31.5005L20.2096 22.5645L26.035 13.6265Z" fill="#F8A53A" fill-opacity="0.3"/>
<path fill-rule="evenodd" clip-rule="evenodd" d="M26.2043 34.1064L37.5122 34.1064L43.1638 42.7845L37.5122 51.4625L26.2043 51.4625L20.5504 42.7845L26.2043 34.1064Z" fill="#F8A53A" fill-opacity="0.3"/>
<path fill-rule="evenodd" clip-rule="evenodd" d="M26.4167 54.6528L37.3002 54.6528L42.7419 63.0028L37.3002 71.3548L26.4167 71.3548L20.9727 63.0028L26.4167 54.6528Z" fill="#F8A53A" fill-opacity="0.3"/>
<path fill-rule="evenodd" clip-rule="evenodd" d="M26.692 75.2944L37.0248 75.2944L42.1912 83.2224L37.0248 91.1524L26.692 91.1524L21.5256 83.2224L26.692 75.2944Z" fill="#F8A53A" fill-opacity="0.3"/>
<path fill-rule="evenodd" clip-rule="evenodd" d="M27.0305 96.0347L36.6839 96.0347L41.5117 103.443L36.6839 110.851L27.0305 110.851L22.2026 103.443L27.0305 96.0347Z" fill="#F8A53A" fill-opacity="0.3"/>
<path fill-rule="evenodd" clip-rule="evenodd" d="M27.4345 116.871L36.2844 116.871L40.7083 123.661L36.2844 130.453L27.4345 130.453L23.0084 123.661L27.4345 116.871Z" fill="#F8A53A" fill-opacity="0.3"/>
<path fill-rule="evenodd" clip-rule="evenodd" d="M27.8996 137.807L35.8173 137.807L39.7739 143.883L35.8173 149.957L27.8996 149.957L23.9407 143.883L27.8996 137.807Z" fill="#F8A53A" fill-opacity="0.3"/>
<path fill-rule="evenodd" clip-rule="evenodd" d="M28.4502 158.873L35.2642 158.873L38.6724 164.099L35.2642 169.331L28.4502 169.331L25.0443 164.099L28.4502 158.873Z" fill="#F8A53A" fill-opacity="0.3"/>
<path fill-rule="evenodd" clip-rule="evenodd" d="M29.0866 180.068L34.6277 180.068L37.4016 184.32L34.6277 188.572L29.0866 188.572L26.315 184.32L29.0866 180.068Z" fill="#F8A53A" fill-opacity="0.3"/>
<path fill-rule="evenodd" clip-rule="evenodd" d="M29.8068 201.393L33.9101 201.393L35.9595 204.541L33.9101 207.687L29.8068 207.687L27.7551 204.541L29.8068 201.393Z" fill="#F8A53A" fill-opacity="0.3"/>
<path fill-rule="evenodd" clip-rule="evenodd" d="M30.6125 222.849L33.102 222.849L34.3479 224.759L33.102 226.671L30.6125 226.671L29.3666 224.759L30.6125 222.849Z" fill="#F8A53A" fill-opacity="0.3"/>
<path fill-rule="evenodd" clip-rule="evenodd" d="M31.4386 244.337L32.276 244.337L32.6958 244.981L32.276 245.623L31.4386 245.623L31.0211 244.981L31.4386 244.337Z" fill="#F8A53A" fill-opacity="0.3"/>
<path fill-rule="evenodd" clip-rule="evenodd" d="M6.27454 3.5166L17.9209 3.5166L23.7441 12.4546L17.9209 21.3926L6.27454 21.3926L0.45137 12.4546L6.27454 3.5166Z" fill="#F8A53A" fill-opacity="0.3"/>
<path fill-rule="evenodd" clip-rule="evenodd" d="M6.44401 23.9966L17.7518 23.9966L23.4058 32.6726L17.7518 41.3506L6.44401 41.3506L0.790079 32.6726L6.44401 23.9966Z" fill="#F8A53A" fill-opacity="0.3"/>
<path fill-rule="evenodd" clip-rule="evenodd" d="M6.65618 44.5425L17.5397 44.5425L22.9814 52.8945L17.5397 61.2445L6.65617 61.2445L1.21443 52.8945L6.65618 44.5425Z" fill="#F8A53A" fill-opacity="0.3"/>
<path fill-rule="evenodd" clip-rule="evenodd" d="M6.93147 65.1826L17.2643 65.1826L22.4307 73.1126L17.2643 81.0426L6.93147 81.0426L1.76511 73.1126L6.93147 65.1826Z" fill="#F8A53A" fill-opacity="0.3"/>
<path fill-rule="evenodd" clip-rule="evenodd" d="M7.26997 85.9229L16.9234 85.9229L21.7512 93.3329L16.9234 100.741L7.26997 100.741L2.44211 93.3329L7.26997 85.9229Z" fill="#F8A53A" fill-opacity="0.3"/>
<path fill-rule="evenodd" clip-rule="evenodd" d="M7.67176 106.761L16.5217 106.761L20.9478 113.553L16.5217 120.343L7.67176 120.343L3.24795 113.553L7.67176 106.761Z" fill="#F8A53A" fill-opacity="0.3"/>
<path fill-rule="evenodd" clip-rule="evenodd" d="M8.13907 127.697L16.0568 127.697L20.0134 133.771L16.0568 139.847L8.13907 139.847L4.1802 133.771L8.13907 127.697Z" fill="#F8A53A" fill-opacity="0.3"/>
<path fill-rule="evenodd" clip-rule="evenodd" d="M8.68973 148.761L15.506 148.761L18.9097 153.991L15.506 159.219L8.68973 159.219L5.28159 153.991L8.68973 148.761Z" fill="#F8A53A" fill-opacity="0.3"/>
<path fill-rule="evenodd" clip-rule="evenodd" d="M9.32395 169.957L14.8673 169.957L17.6389 174.211L14.8673 178.465L9.32395 178.465L6.55454 174.211L9.32395 169.957Z" fill="#F8A53A" fill-opacity="0.3"/>
<path fill-rule="evenodd" clip-rule="evenodd" d="M10.046 191.282L14.1471 191.282L16.1965 194.43L14.1471 197.576L10.046 197.576L7.9944 194.43L10.046 191.282Z" fill="#F8A53A" fill-opacity="0.3"/>
<path fill-rule="evenodd" clip-rule="evenodd" d="M10.8519 212.738L13.3437 212.738L14.5874 214.65L13.3437 216.562L10.8519 216.562L9.60608 214.65L10.8519 212.738Z" fill="#F8A53A" fill-opacity="0.3"/>
<path fill-rule="evenodd" clip-rule="evenodd" d="M11.6781 234.227L12.5155 234.227L12.9353 234.871L12.5155 235.513L11.6781 235.513L11.2606 234.871L11.6781 234.227Z" fill="#F8A53A" fill-opacity="0.3"/>
<path fill-rule="evenodd" clip-rule="evenodd" d="M342.53 13.5425L354.177 13.5425L360 22.4805L354.177 31.4165L342.53 31.4165L336.707 22.4805L342.53 13.5425Z" fill="#F8A53A" fill-opacity="0.3"/>
<path fill-rule="evenodd" clip-rule="evenodd" d="M342.7 34.0225L354.007 34.0225L359.661 42.6985L354.007 51.3765L342.7 51.3765L337.046 42.6985L342.7 34.0225Z" fill="#F8A53A" fill-opacity="0.3"/>
<path fill-rule="evenodd" clip-rule="evenodd" d="M342.912 54.5688L353.795 54.5688L359.239 62.9189L353.795 71.2708L342.912 71.2708L337.47 62.9189L342.912 54.5688Z" fill="#F8A53A" fill-opacity="0.3"/>
<path fill-rule="evenodd" clip-rule="evenodd" d="M343.187 75.2085L353.52 75.2085L358.686 83.1385L353.52 91.0685L343.187 91.0685L338.021 83.1385L343.187 75.2085Z" fill="#F8A53A" fill-opacity="0.3"/>
<path fill-rule="evenodd" clip-rule="evenodd" d="M343.526 95.9487L353.181 95.9487L358.009 103.359L353.181 110.767L343.526 110.767L338.698 103.359L343.526 95.9487Z" fill="#F8A53A" fill-opacity="0.3"/>
<path fill-rule="evenodd" clip-rule="evenodd" d="M343.93 116.787L352.778 116.787L357.204 123.577L352.778 130.369L343.93 130.369L339.504 123.577L343.93 116.787Z" fill="#F8A53A" fill-opacity="0.3"/>
<path fill-rule="evenodd" clip-rule="evenodd" d="M344.395 137.723L352.312 137.723L356.271 143.797L352.312 149.873L344.395 149.873L340.436 143.797L344.395 137.723Z" fill="#F8A53A" fill-opacity="0.3"/>
<path fill-rule="evenodd" clip-rule="evenodd" d="M344.946 158.787L351.76 158.787L355.168 164.017L351.76 169.245L344.946 169.245L341.54 164.017L344.946 158.787Z" fill="#F8A53A" fill-opacity="0.3"/>
<path fill-rule="evenodd" clip-rule="evenodd" d="M345.582 179.982L351.125 179.982L353.897 184.236L351.125 188.49L345.582 188.49L342.81 184.236L345.582 179.982Z" fill="#F8A53A" fill-opacity="0.3"/>
<path fill-rule="evenodd" clip-rule="evenodd" d="M346.304 201.309L350.405 201.309L352.455 204.457L350.405 207.603L346.304 207.603L344.252 204.457L346.304 201.309Z" fill="#F8A53A" fill-opacity="0.3"/>
<path fill-rule="evenodd" clip-rule="evenodd" d="M347.108 222.763L349.6 222.763L350.845 224.675L349.6 226.587L347.108 226.587L345.864 224.675L347.108 222.763Z" fill="#F8A53A" fill-opacity="0.3"/>
<path fill-rule="evenodd" clip-rule="evenodd" d="M347.936 244.251L348.773 244.251L349.191 244.895L348.773 245.539L347.936 245.539L347.516 244.895L347.936 244.251Z" fill="#F8A53A" fill-opacity="0.3"/>
<path fill-rule="evenodd" clip-rule="evenodd" d="M322.77 3.43262L334.416 3.43262L340.24 12.3706L334.416 21.3086L322.77 21.3086L316.947 12.3706L322.77 3.43262Z" fill="#F8A53A" fill-opacity="0.3"/>
<path fill-rule="evenodd" clip-rule="evenodd" d="M322.939 23.9106L334.247 23.9106L339.901 32.5887L334.247 41.2666L322.939 41.2666L317.285 32.5887L322.939 23.9106Z" fill="#F8A53A" fill-opacity="0.3"/>
<path fill-rule="evenodd" clip-rule="evenodd" d="M323.151 44.4565L334.035 44.4565L339.477 52.8105L334.035 61.1606L323.151 61.1606L317.71 52.8105L323.151 44.4565Z" fill="#F8A53A" fill-opacity="0.3"/>
<path fill-rule="evenodd" clip-rule="evenodd" d="M323.427 65.0986L333.759 65.0986L338.926 73.0286L333.759 80.9587L323.427 80.9586L318.26 73.0286L323.427 65.0986Z" fill="#F8A53A" fill-opacity="0.3"/>
<path fill-rule="evenodd" clip-rule="evenodd" d="M323.765 85.8389L333.421 85.8389L338.247 93.2488L333.421 100.657L323.765 100.657L318.937 93.2488L323.765 85.8389Z" fill="#F8A53A" fill-opacity="0.3"/>
<path fill-rule="evenodd" clip-rule="evenodd" d="M324.167 106.677L333.017 106.677L337.441 113.469L333.017 120.259L324.167 120.259L319.743 113.469L324.167 106.677Z" fill="#F8A53A" fill-opacity="0.3"/>
<path fill-rule="evenodd" clip-rule="evenodd" d="M324.634 127.613L332.552 127.613L336.509 133.687L332.552 139.763L324.634 139.763L320.675 133.687L324.634 127.613Z" fill="#F8A53A" fill-opacity="0.3"/>
<path fill-rule="evenodd" clip-rule="evenodd" d="M325.185 148.677L331.999 148.677L335.407 153.909L331.999 159.137L325.185 159.137L321.779 153.909L325.185 148.677Z" fill="#F8A53A" fill-opacity="0.3"/>
<path fill-rule="evenodd" clip-rule="evenodd" d="M325.822 169.873L331.365 169.873L334.134 174.127L331.365 178.381L325.822 178.381L323.05 174.127L325.822 169.873Z" fill="#F8A53A" fill-opacity="0.3"/>
<path fill-rule="evenodd" clip-rule="evenodd" d="M326.541 191.198L330.645 191.198L332.694 194.346L330.645 197.492L326.541 197.492L324.492 194.346L326.541 191.198Z" fill="#F8A53A" fill-opacity="0.3"/>
<path fill-rule="evenodd" clip-rule="evenodd" d="M327.347 212.654L329.839 212.654L331.083 214.566L329.839 216.478L327.347 216.478L326.101 214.566L327.347 212.654Z" fill="#F8A53A" fill-opacity="0.3"/>
<path fill-rule="evenodd" clip-rule="evenodd" d="M328.173 234.143L329.011 234.143L329.43 234.785L329.011 235.427L328.173 235.427L327.756 234.785L328.173 234.143Z" fill="#F8A53A" fill-opacity="0.3"/>
<path fill-rule="evenodd" clip-rule="evenodd" d="M302.928 13.5645L314.574 13.5645L320.4 22.5005L314.574 31.4384L302.928 31.4384L297.105 22.5005L302.928 13.5645Z" fill="#F8A53A" fill-opacity="0.3"/>
<path fill-rule="evenodd" clip-rule="evenodd" d="M303.097 34.0425L314.405 34.0425L320.059 42.7205L314.405 51.3985L303.097 51.3985L297.443 42.7205L303.097 34.0425Z" fill="#F8A53A" fill-opacity="0.3"/>
<path fill-rule="evenodd" clip-rule="evenodd" d="M303.31 54.5864L314.195 54.5864L319.635 62.9404L314.195 71.2924L303.31 71.2924L297.868 62.9404L303.31 54.5864Z" fill="#F8A53A" fill-opacity="0.3"/>
<path fill-rule="evenodd" clip-rule="evenodd" d="M303.585 75.2305L313.918 75.2305L319.084 83.1584L313.918 91.0885L303.585 91.0885L298.419 83.1584L303.585 75.2305Z" fill="#F8A53A" fill-opacity="0.3"/>
<path fill-rule="evenodd" clip-rule="evenodd" d="M303.923 95.9707L313.579 95.9707L318.407 103.381L313.579 110.789L303.923 110.789L299.098 103.381L303.923 95.9707Z" fill="#F8A53A" fill-opacity="0.3"/>
<path fill-rule="evenodd" clip-rule="evenodd" d="M304.328 116.809L313.175 116.809L317.601 123.599L313.175 130.391L304.328 130.391L299.902 123.599L304.328 116.809Z" fill="#F8A53A" fill-opacity="0.3"/>
<path fill-rule="evenodd" clip-rule="evenodd" d="M304.793 137.743L312.71 137.743L316.669 143.819L312.71 149.895L304.793 149.895L300.836 143.819L304.793 137.743Z" fill="#F8A53A" fill-opacity="0.3"/>
<path fill-rule="evenodd" clip-rule="evenodd" d="M305.345 158.809L312.16 158.809L315.565 164.039L312.16 169.267L305.345 169.267L301.937 164.039L305.345 158.809Z" fill="#F8A53A" fill-opacity="0.3"/>
<path fill-rule="evenodd" clip-rule="evenodd" d="M305.98 180.003L311.523 180.003L314.295 184.257L311.523 188.511L305.98 188.511L303.208 184.257L305.98 180.003Z" fill="#F8A53A" fill-opacity="0.3"/>
<path fill-rule="evenodd" clip-rule="evenodd" d="M306.702 201.329L310.803 201.329L312.852 204.479L310.803 207.625L306.702 207.625L304.65 204.479L306.702 201.329Z" fill="#F8A53A" fill-opacity="0.3"/>
<path fill-rule="evenodd" clip-rule="evenodd" d="M307.508 222.784L309.997 222.784L311.243 224.696L309.997 226.608L307.508 226.608L306.262 224.696L307.508 222.784Z" fill="#F8A53A" fill-opacity="0.3"/>
<path fill-rule="evenodd" clip-rule="evenodd" d="M308.334 244.272L309.171 244.272L309.589 244.914L309.171 245.56L308.334 245.56L307.914 244.914L308.334 244.272Z" fill="#F8A53A" fill-opacity="0.3"/>
<path fill-rule="evenodd" clip-rule="evenodd" d="M66.5194 -6.56006L77.4052 -6.56006L82.8469 1.79193L77.4052 10.1459L66.5194 10.1459L61.0777 1.79193L66.5194 -6.56006Z" fill="#F8A53A" fill-opacity="0.3"/>
<path fill-rule="evenodd" clip-rule="evenodd" d="M86.2822 -16.6699L97.1657 -16.6699L102.607 -8.31793L97.1657 0.0340745L86.2822 0.0340741L80.8404 -8.31793L86.2822 -16.6699Z" fill="#F8A53A" fill-opacity="0.3"/>
<path fill-rule="evenodd" clip-rule="evenodd" d="M106.043 -6.56006L116.926 -6.56006L122.37 1.79193L116.926 10.1459L106.043 10.1459L100.601 1.79193L106.043 -6.56006Z" fill="#F8A53A" fill-opacity="0.3"/>
<path fill-rule="evenodd" clip-rule="evenodd" d="M125.885 -16.6919L136.768 -16.6919L142.208 -8.33789L136.768 0.0121019L125.885 0.0121014L120.443 -8.33789L125.885 -16.6919Z" fill="#F8A53A" fill-opacity="0.3"/>
<path fill-rule="evenodd" clip-rule="evenodd" d="M145.645 -6.58203L156.528 -6.58203L161.97 1.76996L156.528 10.124L145.645 10.124L140.201 1.76996L145.645 -6.58203Z" fill="#F8A53A" fill-opacity="0.3"/>
<path fill-rule="evenodd" clip-rule="evenodd" d="M165.405 -16.6919L176.291 -16.6919L181.731 -8.33789L176.291 0.0121019L165.405 0.0121014L159.964 -8.33789L165.405 -16.6919Z" fill="#F8A53A" fill-opacity="0.3"/>
<path fill-rule="evenodd" clip-rule="evenodd" d="M185.166 -6.58203L196.052 -6.58203L201.493 1.76996L196.052 10.124L185.166 10.124L179.724 1.76996L185.166 -6.58203Z" fill="#F8A53A" fill-opacity="0.3"/>
<path fill-rule="evenodd" clip-rule="evenodd" d="M224.768 -6.60205L235.652 -6.60205L241.094 1.74996L235.652 10.1039L224.768 10.1039L219.326 1.74995L224.768 -6.60205Z" fill="#F8A53A" fill-opacity="0.3"/>
<path fill-rule="evenodd" clip-rule="evenodd" d="M264.289 -6.60205L275.175 -6.60205L280.615 1.74996L275.175 10.1039L264.289 10.1039L258.847 1.74995L264.289 -6.60205Z" fill="#F8A53A" fill-opacity="0.3"/>
<path fill-rule="evenodd" clip-rule="evenodd" d="M303.891 -6.62402L314.777 -6.62402L320.219 1.72798L314.777 10.082L303.891 10.082L298.45 1.72798L303.891 -6.62402Z" fill="#F8A53A" fill-opacity="0.3"/>
<path fill-rule="evenodd" clip-rule="evenodd" d="M343.415 -6.62402L354.298 -6.62402L359.742 1.72798L354.298 10.082L343.415 10.082L337.973 1.72798L343.415 -6.62402Z" fill="#F8A53A" fill-opacity="0.3"/>
<path fill-rule="evenodd" clip-rule="evenodd" d="M7.15911 -16.6479L18.0426 -16.6479L23.4844 -8.29594L18.0426 0.0560625L7.1591 0.056062L1.71736 -8.29594L7.15911 -16.6479Z" fill="#F8A53A" fill-opacity="0.3"/>
<path fill-rule="evenodd" clip-rule="evenodd" d="M26.9196 -6.53809L37.8031 -6.53809L43.2449 1.81392L37.8031 10.1659L26.9196 10.1659L21.4756 1.81392L26.9196 -6.53809Z" fill="#F8A53A" fill-opacity="0.3"/>
<path fill-rule="evenodd" clip-rule="evenodd" d="M46.7612 -16.6699L57.6424 -16.6699L63.0864 -8.31793L57.6424 0.0340745L46.7612 0.0340741L41.3172 -8.31793L46.7612 -16.6699Z" fill="#F8A53A" fill-opacity="0.3"/>
</g>
<defs>
<clipPath id="clip0_546_41537">
<rect width="437" height="360" fill="white" transform="translate(360 -191) rotate(90)"/>
</clipPath>
</defs>
</svg>
